<svg width="517" height="598" viewBox="0 0 517 598" fill="none" xmlns="http://www.w3.org/2000/svg">
<g clip-path="url(#clip0_25_499)">
<path opacity="0.35" d="M67.87 471.39C61.19 438.67 74.8699 403.18 62.9999 371.97C53.2099 346.29 28.32 329.65 13.71 306.37C-5.01005 276.55 -4.51005 235.79 14.93 206.44C35.49 175.44 72.19 159.91 101.07 136.44C119.9 121.12 135.61 102.16 155.07 87.67C174.53 73.18 199.75 63.34 223.07 70.07C238.02 74.39 250.36 84.94 264.71 90.95C297.1 104.53 333.81 93.4 368.84 90.68C399.42 88.3263 430.148 92.5932 458.93 103.19C477.16 109.91 495.2 119.81 505.82 136.08C516.99 153.2 518.34 175.41 513.18 195.19C508.02 214.97 496.97 232.7 484.74 249.08C465.74 274.46 442.14 304.13 452.37 334.08C458.85 353.08 477.25 365.08 489.49 380.96C515.99 415.42 508.1 471.1 473.1 496.83C458.89 507.27 441.1 513.34 430.02 527.06C423.89 534.65 420.31 544.06 414.02 551.55C397.78 571.04 368.9 572.55 343.54 572.35C312.76 572.11 281.987 571.63 251.22 570.91C224.13 570.28 186.73 575.65 160.88 567.52C122.61 555.46 75.98 511.08 67.87 471.39Z" fill="url(#paint0_linear_25_499)"/>
<path opacity="0.45" d="M115.89 541.78C100.89 546.16 83.08 555.58 84.32 571.16C85.59 587.1 105.43 593.36 121.32 594.84C151.58 597.64 182.04 597.39 212.43 597.13L339.56 596.06C368.91 595.81 398.46 595.54 427.25 589.86C436.37 588.06 445.86 585.46 452.45 578.86C459.04 572.26 461.39 560.63 455.13 553.75C449.3 547.35 439.19 547.64 431.55 543.56C423.01 539 418.45 529.56 411.55 522.77C396.4 508 372.6 508 351.43 508.91L212.8 515C195.58 515.75 171.8 512.4 155.61 519C141.81 524.52 133.1 541.78 115.89 541.78Z" fill="url(#paint1_linear_25_499)"/>
<path d="M370.15 148.86H169.05C155.983 148.86 145.39 159.453 145.39 172.52V556.19C145.39 569.257 155.983 579.85 169.05 579.85H370.15C383.217 579.85 393.81 569.257 393.81 556.19V172.52C393.81 159.453 383.217 148.86 370.15 148.86Z" fill="url(#paint2_linear_25_499)"/>
<path d="M379.43 148.86H178.33C165.263 148.86 154.67 159.453 154.67 172.52V556.19C154.67 569.257 165.263 579.85 178.33 579.85H379.43C392.497 579.85 403.09 569.257 403.09 556.19V172.52C403.09 159.453 392.497 148.86 379.43 148.86Z" fill="#838CE7"/>
<path d="M391.2 182.76V504C391.2 509.474 389.026 514.724 385.155 518.595C381.284 522.466 376.034 524.64 370.56 524.64H187.2C181.727 524.637 176.478 522.462 172.608 518.592C168.738 514.722 166.563 509.473 166.56 504V182.76C166.563 177.287 168.738 172.039 172.608 168.168C176.478 164.298 181.727 162.123 187.2 162.12H236.45V169C236.45 170.428 236.731 171.841 237.277 173.16C237.824 174.479 238.624 175.677 239.634 176.686C240.643 177.696 241.841 178.496 243.16 179.043C244.479 179.589 245.893 179.87 247.32 179.87H320.49C323.373 179.87 326.138 178.725 328.176 176.686C330.215 174.648 331.36 171.883 331.36 169V162.16H370.56C376.027 162.16 381.271 164.329 385.141 168.191C389.01 172.053 391.189 177.293 391.2 182.76Z" fill="url(#paint3_linear_25_499)"/>
<path opacity="0.19" d="M321.1 167.55C318.05 170.43 313.55 172.13 312.04 176.05C310.79 179.29 312.09 182.89 312.54 186.33C313.54 194.06 310.27 201.59 308.1 209.08C305.957 216.482 304.882 224.153 304.91 231.86C304.91 235.64 305.14 239.69 303.15 242.86C301.16 246.03 295.87 247.44 293.67 244.37C293.216 243.69 292.878 242.94 292.67 242.15C289.1 230.7 291.25 218.33 291.1 206.3C290.95 194.27 287.2 180.75 276.52 175.22C274.179 196.13 270.471 216.864 265.42 237.29C264.34 241.69 261.98 247.04 257.42 246.94C256.58 240.46 256.25 233.94 255.92 227.4C254.673 202.613 253.427 177.816 252.18 153.01C252.08 151.01 252 148.79 252.93 147.01C254.32 144.25 257.55 143.01 260.52 142.15C271.8 138.797 283.46 136.891 295.22 136.48C303.09 136.2 314.69 137.74 320.34 144.1C325.61 150 327.19 161.79 321.1 167.55Z" fill="url(#paint4_linear_25_499)"/>
<path d="M301.67 563.75H261.23C257.952 563.75 254.808 562.448 252.49 560.13C250.172 557.812 248.87 554.668 248.87 551.39C248.865 549.764 249.181 548.153 249.799 546.649C250.418 545.146 251.328 543.779 252.477 542.628C253.625 541.477 254.989 540.564 256.491 539.941C257.994 539.318 259.604 538.999 261.23 539H301.67C303.292 539 304.898 539.319 306.396 539.94C307.894 540.561 309.256 541.47 310.403 542.617C311.55 543.764 312.459 545.125 313.08 546.624C313.701 548.122 314.02 549.728 314.02 551.35C314.027 552.976 313.712 554.587 313.094 556.091C312.477 557.596 311.568 558.963 310.42 560.115C309.273 561.267 307.909 562.181 306.408 562.805C304.906 563.429 303.296 563.75 301.67 563.75Z" fill="url(#paint5_linear_25_499)"/>
<path d="M248.228 318.723C251.195 306.15 243.409 293.552 230.836 290.585C218.264 287.618 205.666 295.404 202.699 307.977C199.732 320.549 207.518 333.147 220.091 336.114C232.663 339.082 245.261 331.295 248.228 318.723Z" stroke="white" stroke-width="0.82" stroke-miterlimit="10"/>
<path d="M308.361 318.72C311.328 306.148 303.542 293.55 290.969 290.583C278.397 287.615 265.799 295.402 262.832 307.974C259.865 320.547 267.651 333.144 280.223 336.112C292.796 339.079 305.394 331.293 308.361 318.72Z" stroke="white" stroke-width="0.82" stroke-miterlimit="10"/>
<path d="M368.483 318.718C371.451 306.146 363.664 293.548 351.092 290.581C338.519 287.613 325.921 295.4 322.954 307.972C319.987 320.545 327.773 333.142 340.346 336.11C352.918 339.077 365.516 331.291 368.483 318.718Z" stroke="white" stroke-width="0.82" stroke-miterlimit="10"/>
<path d="M248.23 380.687C251.198 368.115 243.411 355.517 230.839 352.55C218.266 349.583 205.669 357.369 202.701 369.942C199.734 382.514 207.52 395.112 220.093 398.079C232.665 401.046 245.263 393.26 248.23 380.687Z" stroke="white" stroke-width="0.82" stroke-miterlimit="10"/>
<path d="M308.354 380.684C311.321 368.112 303.535 355.514 290.962 352.547C278.39 349.58 265.792 357.366 262.825 369.939C259.857 382.511 267.644 395.109 280.216 398.076C292.789 401.043 305.386 393.257 308.354 380.684Z" stroke="white" stroke-width="0.82" stroke-miterlimit="10"/>
<path d="M310.561 485.172C322.914 472.82 322.914 452.793 310.561 440.44C298.209 428.088 278.182 428.088 265.83 440.44C253.477 452.793 253.477 472.82 265.83 485.172C278.182 497.524 298.209 497.524 310.561 485.172Z" fill="#FF354E"/>
<path d="M368.485 380.683C371.453 368.11 363.666 355.513 351.094 352.546C338.521 349.578 325.924 357.365 322.956 369.937C319.989 382.51 327.776 395.107 340.348 398.075C352.921 401.042 365.518 393.255 368.485 380.683Z" stroke="white" stroke-width="0.82" stroke-miterlimit="10"/>
<path d="M268.74 461.24C268.522 461.237 268.307 461.18 268.115 461.075C267.924 460.97 267.761 460.82 267.64 460.638C267.52 460.455 267.446 460.246 267.425 460.029C267.404 459.811 267.437 459.592 267.52 459.39C268.6 456.65 271.52 448.09 287.87 448.09C303.31 448.09 306.79 456.63 307.93 459.37C308.017 459.572 308.053 459.793 308.035 460.012C308.016 460.232 307.944 460.443 307.824 460.628C307.705 460.813 307.541 460.965 307.349 461.072C307.156 461.179 306.94 461.236 306.72 461.24H300.54C300.305 461.24 300.074 461.177 299.872 461.057C299.669 460.938 299.503 460.766 299.39 460.56C298.58 459.06 296.74 451.85 287.58 451.85C280.12 451.85 277.35 455.85 275.81 460.33C275.721 460.592 275.553 460.82 275.329 460.983C275.106 461.146 274.837 461.236 274.56 461.24H268.74Z" fill="white"/>
<path d="M275.18 460.01H267.24C265.197 460.01 263.54 461.666 263.54 463.71V465.26C263.54 467.303 265.197 468.96 267.24 468.96H275.18C277.223 468.96 278.88 467.303 278.88 465.26V463.71C278.88 461.666 277.223 460.01 275.18 460.01Z" fill="white"/>
<path d="M307.44 460.01H299.5C297.457 460.01 295.8 461.666 295.8 463.71V465.26C295.8 467.303 297.457 468.96 299.5 468.96H307.44C309.484 468.96 311.14 467.303 311.14 465.26V463.71C311.14 461.666 309.484 460.01 307.44 460.01Z" fill="white"/>
<path d="M260.81 81.6698C259.22 79.0498 253.16 64.7698 250.94 59.6698L243.1 41.7798C242.702 42.6031 242.496 43.5055 242.496 44.4198C242.496 45.3341 242.702 46.2365 243.1 47.0598C237.887 47.309 232.696 47.9003 227.56 48.8298C225.79 49.1498 223.63 49.9298 223.48 51.7198C223.37 52.9398 224.3 53.9798 225.22 54.7898C228.343 57.5036 232.076 59.4215 236.1 60.3798C238.33 60.9098 240.89 61.2898 242.21 63.1598C242.86 64.2628 243.244 65.5024 243.33 66.7798C244.547 74.9928 246.233 83.1294 248.38 91.1498C249.14 94.0098 250.33 97.2498 253.14 98.1498C254.94 98.7398 256.89 98.1498 258.68 97.5498C264.12 95.7198 269.57 93.5498 274.01 89.9198C279.34 85.5398 298.01 61.9198 288.77 56.3598C284.25 53.6298 272.01 68.1998 269.61 71.1698C265.96 75.7298 265.25 77.8198 260.81 81.6698Z" fill="url(#paint6_linear_25_499)"/>
<path d="M368.4 112.35C366.483 113.406 364.362 114.04 362.18 114.21C360.78 114.4 359.35 114.52 357.93 114.58C349.4 114.93 340.67 112.97 334.09 107.64C330.59 104.8 327.76 101.09 323.86 98.82C320.868 97.232 317.592 96.2499 314.22 95.93C311.48 95.56 308.68 95.39 305.95 95.06C299.85 94.33 293.15 92.21 290.32 86.75C288.32 82.99 288.71 78.48 289.32 74.28C290.48 66.28 292.39 58.28 292.73 50.13C292.92 45.73 292.59 41.13 290.23 37.4C288.65 34.92 286.29 33.06 284.44 30.78C279.26 24.38 282.84 14.24 289.65 10.43C290.944 9.84164 292.174 9.12115 293.32 8.28001C294.71 7.06001 295.47 5.28001 296.69 3.88001C300.1 -0.0599926 306.1 -0.149993 311.25 0.0700074L320.1 0.450007C322.96 0.570007 326.26 0.940007 327.78 3.36001C328.95 5.22001 328.73 7.92001 330.45 9.29001C331.06 9.72689 331.735 10.0644 332.45 10.29C335.673 11.4935 338.578 13.4174 340.943 15.9147C343.309 18.4121 345.073 21.417 346.1 24.7C348.65 33.16 346.03 42.53 348.57 50.98C348.756 51.7678 349.13 52.4987 349.66 53.11C350.413 53.6992 351.267 54.1465 352.18 54.43C357.74 56.88 359.46 64 359.01 70.05C358.76 73.46 358.07 77.05 359.33 80.19C360.24 82.47 362.06 84.25 363.79 85.99C367.44 89.64 371.04 93.63 372.54 98.57C374.04 103.51 372.79 109.64 368.4 112.35Z" fill="#3F3D56"/>
<path d="M357.93 114.58C349.4 114.93 340.67 112.97 334.09 107.64C330.59 104.8 327.76 101.09 323.86 98.8201C320.868 97.2321 317.592 96.25 314.22 95.9301C310.63 91.9301 307.08 87.8601 303.64 83.7201C300.98 80.5201 298.36 77.2101 296.77 73.3601C295.18 69.5101 294.77 65.6001 294.26 61.6001C292.91 50.4501 291.6 38.8901 295.09 28.2201C295.529 26.6853 296.204 25.228 297.09 23.9001C303.09 15.6001 319.01 16.9001 324.24 25.2401C325.579 27.625 326.509 30.2176 326.99 32.9101C327.945 37.2672 328.573 41.6895 328.87 46.1401C329.11 49.8501 329.25 53.9001 331.68 56.7101C333.2 58.4601 335.43 59.4701 337.07 61.1201C343.35 67.4101 338.38 79.1201 343.45 86.4401C344.757 88.1301 346.327 89.5988 348.1 90.7901C352.15 93.7901 356.5 96.7301 359.02 101.1C361.54 105.47 361.57 111.4 357.93 114.58Z" fill="#25233A"/>
<path d="M275.82 120.12C275.82 120.12 238.73 126.91 237.66 136.84C236.59 146.77 244.38 229 244.38 229H252.87C252.87 229 268.12 184 265.49 170.77C262.86 157.54 260.19 153.86 260.19 153.86C260.19 153.86 275.64 161.49 290.25 144.66C304.86 127.83 298.34 116.58 298.34 116.58L275.82 120.12Z" fill="#3F3D56"/>
<path d="M296.68 118.1C296.68 118.1 261.31 131.16 261.95 141.1C262.59 151.04 284.36 230.72 284.36 230.72L292.73 229.26C292.73 229.26 300.04 182.34 295.18 169.72C290.32 157.1 287.1 154 287.1 154C287.1 154 307.56 163.4 319.58 144.63C329.76 128.71 312.9 112.57 302.52 116.12L296.68 118.1Z" fill="#25233A"/>
<path d="M275.82 120.12V99.23C275.82 99.23 269.68 87.83 268.68 81.96C268.1 78.56 272.39 68.13 277.33 64.1C280.77 61.3 283.33 56.31 287.73 56.17L309.32 55.52L319.9 85.52L316.17 120.3C316.17 120.3 307.1 115.6 275.82 120.12Z" fill="#838CE7"/>
<path d="M298.03 115.34C297.78 115.75 296.56 117.64 296.68 118.1C296.8 118.56 302.43 118.71 304.45 118.91C307.89 119.25 312.73 119.91 316.17 120.29C318.5 108.86 317.34 101.63 319.04 95.4599C319.356 94.7346 319.516 93.951 319.51 93.1599C319.31 91.7799 314.38 84.6899 313.15 84.1599C309.15 82.4299 309.15 88.4799 308.69 90.7199C307.01 99.5699 302.7 107.74 298.03 115.34Z" fill="url(#paint7_linear_25_499)"/>
<path d="M283.28 20.7901C283.28 20.7901 278.28 37.4601 281.7 40.3201C285.12 43.1801 288.1 43.5801 288.8 45.0001C289.5 46.4201 291.26 52.4501 288.8 56.4101C286.34 60.3701 287.51 66.0001 291.1 64.1001C294.69 62.2001 302.67 56.3701 302.67 56.3701L307.27 39.6401C307.27 39.6401 314.63 22.1001 313.49 18.2601C312.35 14.4201 294.42 4.13008 283.28 20.7901Z" fill="url(#paint8_linear_25_499)"/>
<path d="M304.94 25.1401C305.48 27.2401 304.52 29.5201 305.11 31.6101C305.84 34.1901 308.64 35.6101 311.25 36.2001C313.86 36.7901 316.69 37.0001 318.92 38.5101C321.44 40.2101 322.98 43.5101 325.92 44.1601C327.393 44.3741 328.895 44.23 330.3 43.7401C333.54 42.9001 337.03 41.9001 339.07 39.2401C340.129 37.7738 340.762 36.0435 340.9 34.2401C341.62 27.1801 336.78 20.5201 330.75 16.7701C324.72 13.0201 317.6 11.5601 310.75 9.77014C306.95 8.77014 297.95 5.95014 295.85 11.0701C294.36 14.7001 297.76 21.3001 302.01 17.8701C301.6 20.6901 304.29 22.5801 304.94 25.1401Z" fill="#3F3D56"/>
<path d="M313.68 40.66C313.68 40.66 309.25 44.24 306.56 43.26C303.87 42.28 299.26 48.26 299.26 48.26C299.26 48.26 297.84 50.68 300.98 51.86C302.728 52.4822 304.584 52.7487 306.437 52.644C308.289 52.5392 310.103 52.0653 311.77 51.25C317.51 48.34 324.1 40 326.56 37.54C331.97 32.03 330.76 19.54 324.63 18.81C318.5 18.08 319.51 25.04 319.73 25.36C320.145 25.654 320.595 25.8958 321.07 26.08C321.425 26.2395 321.742 26.4731 321.999 26.765C322.256 27.057 322.448 27.4005 322.562 27.7727C322.675 28.1449 322.708 28.537 322.658 28.9229C322.607 29.3087 322.475 29.6794 322.27 30.01C320.01 33.63 315.97 39.71 313.68 40.66Z" fill="url(#paint9_linear_25_499)"/>
<path d="M238.87 238.5C238.709 238.807 238.636 239.154 238.66 239.5C238.723 239.731 238.851 239.939 239.028 240.1C239.205 240.262 239.424 240.369 239.66 240.41C240.133 240.482 240.616 240.458 241.08 240.34C244.148 239.871 247.05 238.64 249.52 236.76C250.745 235.811 251.722 234.579 252.368 233.17C253.014 231.762 253.31 230.218 253.23 228.67C253.23 228.42 244.86 228.67 243.94 229.33C241.57 231 239.95 235.9 238.87 238.5Z" fill="url(#paint10_linear_25_499)"/>
<path d="M235.26 244.05L238.87 238.5C238.87 238.5 247.17 242.59 251.97 233.93C254.43 229.48 253.23 228.7 253.23 228.7C253.23 228.7 256.14 229.35 256.61 234.61C256.889 237.751 256.889 240.91 256.61 244.05L254.44 245.25L253.27 240.49C253.27 240.49 247.73 248.03 246.04 250.55C245.16 251.86 241.04 252.85 237.33 253.5C236.63 253.619 235.91 253.542 235.25 253.279C234.591 253.016 234.016 252.576 233.59 252.008C233.163 251.44 232.901 250.766 232.832 250.059C232.764 249.352 232.891 248.64 233.2 248C233.75 246.86 234.43 245.56 235.26 244.05Z" fill="url(#paint11_linear_25_499)"/>
<path d="M280.1 239C279.957 239.313 279.911 239.661 279.97 240C280.045 240.213 280.178 240.4 280.355 240.54C280.532 240.68 280.746 240.767 280.97 240.79C281.419 240.835 281.872 240.784 282.3 240.64C285.157 240.018 287.812 238.687 290.02 236.77C291.112 235.804 291.954 234.588 292.477 233.227C292.999 231.866 293.185 230.399 293.02 228.95C292.97 228.73 285.15 229.45 284.32 230.12C282.1 231.87 280.91 236.52 280.1 239Z" fill="url(#paint12_linear_25_499)"/>
<path d="M276.99 244.46L280.1 239C280.1 239 288.1 242.36 292.1 233.94C294.15 229.61 292.98 228.94 292.98 228.94C292.98 228.94 295.75 229.39 296.5 234.3C296.945 237.235 297.129 240.203 297.05 243.17L295.05 244.43L293.67 240.02C293.67 240.02 288.91 247.44 287.46 249.9C286.71 251.18 282.92 252.36 279.46 253.19C278.799 253.354 278.106 253.33 277.458 253.12C276.811 252.91 276.235 252.523 275.796 252.002C275.358 251.481 275.074 250.848 274.978 250.174C274.881 249.5 274.975 248.813 275.25 248.19C275.73 247.19 276.3 245.93 276.99 244.46Z" fill="url(#paint13_linear_25_499)"/>
<path d="M303.6 67.17C303.6 67.17 319.53 114.62 337.75 96.81C341.28 93.36 327.26 42.98 326.52 41.81C325.78 40.64 327.52 32.81 325.78 31.36C324.456 30.3108 322.996 29.4462 321.44 28.79C321.44 28.79 318.98 29.19 319.07 30.86C319.16 32.53 316.71 34.02 316.21 35.2C315.71 36.38 313.1 40 313.52 41.5C314.099 43.1979 314.874 44.8223 315.83 46.34C316.21 46.73 322.69 76.48 322.69 76.48C322.69 76.48 316.54 53.65 309.32 55.48C302.1 57.31 303.6 67.17 303.6 67.17Z" fill="url(#paint14_linear_25_499)"/>
</g>
<defs>
<linearGradient id="paint0_linear_25_499" x1="-102.5" y1="158" x2="90.9404" y2="632.199" gradientUnits="userSpaceOnUse">
<stop stop-color="#913CA4"/>
<stop offset="1" stop-color="#4379C6"/>
</linearGradient>
<linearGradient id="paint1_linear_25_499" x1="84.26" y1="552.93" x2="458.82" y2="552.93" gradientUnits="userSpaceOnUse">
<stop stop-color="#933BA3"/>
<stop offset="1" stop-color="#4379C6"/>
</linearGradient>
<linearGradient id="paint2_linear_25_499" x1="278.51" y1="363.85" x2="755.96" y2="336.7" gradientUnits="userSpaceOnUse">
<stop stop-color="#5C66BC"/>
<stop offset="0.3" stop-color="#58A0BA"/>
<stop offset="0.55" stop-color="#4C718A"/>
<stop offset="0.68" stop-color="#485F77"/>
<stop offset="0.69" stop-color="#475C74"/>
<stop offset="0.87" stop-color="#41455E"/>
<stop offset="0.99" stop-color="#3F3D56"/>
</linearGradient>
<linearGradient id="paint3_linear_25_499" x1="271.61" y1="686.89" x2="285.86" y2="14.0401" gradientUnits="userSpaceOnUse">
<stop offset="0.01" stop-opacity="0"/>
<stop offset="0.93" stop-opacity="0.89"/>
<stop offset="0.98"/>
</linearGradient>
<linearGradient id="paint4_linear_25_499" x1="30168.4" y1="21314.5" x2="35483.7" y2="21314.5" gradientUnits="userSpaceOnUse">
<stop stop-color="#183866"/>
<stop offset="1" stop-color="#1A7FC1"/>
</linearGradient>
<linearGradient id="paint5_linear_25_499" x1="27251.7" y1="11691.8" x2="27302.9" y2="18952.7" gradientUnits="userSpaceOnUse">
<stop offset="0.01" stop-opacity="0"/>
<stop offset="0.93" stop-opacity="0.89"/>
<stop offset="0.98"/>
</linearGradient>
<linearGradient id="paint6_linear_25_499" x1="223.52" y1="70.0898" x2="291.34" y2="70.0898" gradientUnits="userSpaceOnUse">
<stop stop-color="#ECC4D7"/>
<stop offset="0.42" stop-color="#EFD4D1"/>
<stop offset="1" stop-color="#F2EAC9"/>
</linearGradient>
<linearGradient id="paint7_linear_25_499" x1="9511.54" y1="3441.87" x2="11593.6" y2="3764.35" gradientUnits="userSpaceOnUse">
<stop offset="0.01" stop-opacity="0"/>
<stop offset="0.93" stop-opacity="0.89"/>
<stop offset="0.98"/>
</linearGradient>
<linearGradient id="paint8_linear_25_499" x1="14032.5" y1="2023.72" x2="15130" y2="2023.72" gradientUnits="userSpaceOnUse">
<stop stop-color="#ECC4D7"/>
<stop offset="0.42" stop-color="#EFD4D1"/>
<stop offset="1" stop-color="#F2EAC9"/>
</linearGradient>
<linearGradient id="paint9_linear_25_499" x1="20157.2" y1="-2649.81" x2="21014.5" y2="-2029.86" gradientUnits="userSpaceOnUse">
<stop stop-color="#9EA7FA"/>
<stop offset="0.3" stop-color="#58A0BA"/>
<stop offset="0.55" stop-color="#4C718A"/>
<stop offset="0.68" stop-color="#485F77"/>
<stop offset="0.69" stop-color="#475C74"/>
<stop offset="0.87" stop-color="#41455E"/>
<stop offset="0.99" stop-color="#3F3D56"/>
</linearGradient>
<linearGradient id="paint10_linear_25_499" x1="5687.53" y1="3014.03" x2="5900.93" y2="3014.03" gradientUnits="userSpaceOnUse">
<stop stop-color="#ECC4D7"/>
<stop offset="0.42" stop-color="#EFD4D1"/>
<stop offset="1" stop-color="#F2EAC9"/>
</linearGradient>
<linearGradient id="paint11_linear_25_499" x1="9183.92" y1="6073.18" x2="9511.46" y2="6367.27" gradientUnits="userSpaceOnUse">
<stop stop-color="#68E1FD"/>
<stop offset="0.3" stop-color="#58A0BA"/>
<stop offset="0.55" stop-color="#4C718A"/>
<stop offset="0.68" stop-color="#485F77"/>
<stop offset="0.69" stop-color="#475C74"/>
<stop offset="0.87" stop-color="#41455E"/>
<stop offset="0.99" stop-color="#3F3D56"/>
</linearGradient>
<linearGradient id="paint12_linear_25_499" x1="5727.61" y1="3023.08" x2="5900.58" y2="3023.08" gradientUnits="userSpaceOnUse">
<stop stop-color="#ECC4D7"/>
<stop offset="0.42" stop-color="#EFD4D1"/>
<stop offset="1" stop-color="#F2EAC9"/>
</linearGradient>
<linearGradient id="paint13_linear_25_499" x1="9455.23" y1="5992.71" x2="9729.23" y2="6201.32" gradientUnits="userSpaceOnUse">
<stop stop-color="#68E1FD"/>
<stop offset="0.3" stop-color="#58A0BA"/>
<stop offset="0.55" stop-color="#4C718A"/>
<stop offset="0.68" stop-color="#485F77"/>
<stop offset="0.69" stop-color="#475C74"/>
<stop offset="0.87" stop-color="#41455E"/>
<stop offset="0.99" stop-color="#3F3D56"/>
</linearGradient>
<linearGradient id="paint14_linear_25_499" x1="15579.9" y1="4694.9" x2="16794.3" y2="4694.9" gradientUnits="userSpaceOnUse">
<stop stop-color="#ECC4D7"/>
<stop offset="0.42" stop-color="#EFD4D1"/>
<stop offset="1" stop-color="#F2EAC9"/>
</linearGradient>
<clipPath id="clip0_25_499">
<rect width="516.07" height="597.28" fill="white"/>
</clipPath>
</defs>
</svg>
