<svg width="519" height="524" viewBox="0 0 519 524" fill="none" xmlns="http://www.w3.org/2000/svg">
<path d="M404.031 374.112C403.127 374.112 402.311 372.952 401.936 370.608V364.648C402.311 362.304 403.127 361.146 404.053 361.146C404.98 361.146 405.774 362.304 406.171 364.648V370.608C405.774 372.952 404.98 374.112 404.031 374.112ZM404.031 400.045C403.127 400.045 402.311 398.885 401.936 396.54V390.581C402.311 388.237 403.127 387.078 404.053 387.078C404.98 387.078 405.774 388.237 406.171 390.581V396.54C405.774 398.885 404.98 400.045 404.031 400.045ZM404.031 425.978C403.127 425.978 402.311 424.817 401.936 422.473V416.514C402.311 414.17 403.127 413.011 404.053 413.011C404.98 413.011 405.774 414.17 406.171 416.514V422.473C405.774 424.817 404.98 425.978 404.031 425.978ZM404.031 451.911C403.127 451.911 402.311 450.75 401.936 448.406V442.447C402.311 440.103 403.127 438.944 404.053 438.944C404.98 438.944 405.774 440.103 406.171 442.447V448.406C405.774 450.75 404.98 451.911 404.031 451.911ZM404.031 477.843C403.127 477.843 402.311 476.683 401.936 474.339V468.38C402.311 466.036 403.127 464.877 404.053 464.877C404.98 464.877 405.774 466.036 406.171 468.38V474.339C405.774 476.683 404.98 477.843 404.031 477.843ZM404.305 503.54C404.305 503.791 404.224 504.034 404.053 504.264L403.328 503.517C402.72 503.066 402.21 501.986 401.936 500.272V494.313C402.311 491.968 403.127 490.81 404.053 490.81C404.98 490.81 405.774 491.968 406.171 494.313V500.272C405.88 501.986 405.378 503.066 404.758 503.517L404.053 502.792C404.224 503.026 404.305 503.278 404.305 503.54ZM429.49 503.54C429.49 504.471 428.363 505.312 426.086 505.698H420.299C418.024 505.312 416.897 504.471 416.897 503.517C416.897 502.564 418.024 501.746 420.299 501.337H426.086C428.363 501.746 429.49 502.564 429.49 503.54ZM454.674 503.54C454.674 504.471 453.548 505.312 451.271 505.698H445.483C443.208 505.312 442.082 504.471 442.082 503.517C442.082 502.564 443.208 501.746 445.483 501.337H451.271C453.548 501.746 454.674 502.564 454.674 503.54ZM460.427 482.6C461.33 482.631 462.1 483.82 462.382 486.18L462.147 492.141C461.68 494.468 460.819 495.588 459.894 495.544C458.969 495.501 458.221 494.306 457.916 491.954L458.151 486.015C458.64 483.693 459.479 482.565 460.427 482.6ZM460.77 456.659C461.674 456.632 462.49 457.773 462.865 460.133L462.864 466.142C462.489 468.503 461.673 469.652 460.747 469.635C459.821 469.618 459.027 468.446 458.63 466.118L458.631 460.2C459.028 457.865 459.822 456.686 460.77 456.659ZM442.998 447.993C442.998 447.062 444.124 446.222 446.4 445.836H452.186C454.46 446.222 455.586 447.062 455.586 448.017C455.586 448.97 454.46 449.788 452.186 450.196H446.4C444.124 449.788 442.998 448.97 442.998 447.993ZM417.851 447.993C417.851 447.062 418.974 446.222 421.245 445.836H427.016C429.285 446.222 430.408 447.062 430.408 448.017C430.408 448.97 429.285 449.788 427.016 450.196H421.245C418.974 449.788 417.851 448.97 417.851 447.993Z" fill="#D1DCF8"/>
<path d="M392.719 447.992C392.719 447.062 393.844 446.221 396.118 445.835H401.896C404.167 446.221 405.292 447.062 405.292 448.016C405.292 448.969 404.167 449.787 401.896 450.196H396.118C393.844 449.787 392.719 448.969 392.719 447.992ZM367.525 447.992C367.525 447.062 368.651 446.221 370.928 445.835H376.716C378.991 446.221 380.117 447.062 380.117 448.016C380.117 448.969 378.991 449.787 376.716 450.196H370.928C368.651 449.787 367.525 448.969 367.525 447.992ZM342.33 447.992C342.33 447.062 343.457 446.221 345.735 445.835H351.527C353.803 446.221 354.93 447.062 354.93 448.016C354.93 448.969 353.803 449.787 351.527 450.196H345.735C343.457 449.787 342.33 448.969 342.33 447.992ZM317.138 447.992C317.138 447.062 318.264 446.221 320.543 445.835H326.333C328.609 446.221 329.736 447.062 329.736 448.016C329.736 448.969 328.609 449.787 326.333 450.196H320.543C318.264 449.787 317.138 448.969 317.138 447.992ZM296.691 452.931C296.239 452.931 295.809 452.639 295.445 452.057C295.263 451.766 295.098 451.4 294.954 450.962C294.883 450.743 294.816 450.506 294.757 450.249C294.697 449.857 294.643 449.236 294.596 448.656V445.835H301.132C303.407 446.221 304.533 447.062 304.533 448.016C304.533 448.969 303.407 449.787 301.132 450.196H298.831C298.781 450.199 298.725 450.129 298.664 450.249C298.602 450.506 298.535 450.743 298.462 450.962C298.317 451.4 298.151 451.766 297.968 452.057C297.601 452.639 297.165 452.931 296.691 452.931ZM296.691 478.864C295.787 478.864 294.971 477.703 294.596 475.358V469.398C294.971 467.056 295.787 465.897 296.713 465.897C297.639 465.897 298.433 467.056 298.831 469.398V475.358C298.433 477.703 297.639 478.864 296.691 478.864ZM296.691 504.796C295.787 504.796 294.971 503.636 294.596 501.291V495.331C294.971 492.989 295.787 491.83 296.713 491.83C297.639 491.83 298.433 492.989 298.831 495.331V501.291C298.433 503.636 297.639 504.796 296.691 504.796ZM275.559 508.923C275.559 507.992 276.685 507.152 278.962 506.765H284.75C287.025 507.152 288.151 507.992 288.151 508.945C288.151 509.899 287.025 510.716 284.75 511.126H278.962C276.685 510.716 275.559 509.899 275.559 508.923ZM250.374 508.923C250.374 507.992 251.5 507.152 253.777 506.765H259.565C261.84 507.152 262.966 507.992 262.966 508.945C262.966 509.899 261.84 510.716 259.565 511.126H253.777C251.5 510.716 250.374 509.899 250.374 508.923ZM225.189 508.923C225.189 507.992 226.315 507.152 228.593 506.765H234.38C236.655 507.152 237.781 507.992 237.781 508.945C237.781 509.899 236.655 510.716 234.38 511.126H228.593C226.315 510.716 225.189 509.899 225.189 508.923Z" fill="#D1DCF8"/>
<path d="M36.1553 376.943H450.151C465.344 376.943 477.66 364.26 477.66 348.616V51.133C477.66 35.4885 465.344 22.8062 450.151 22.8062H36.1553C20.9621 22.8062 8.64551 35.4885 8.64551 51.133V348.616C8.64551 364.26 20.9621 376.943 36.1553 376.943Z" fill="#E4ECF9"/>
<path d="M8.64563 71.0211V42.7268C8.64563 31.7249 17.3071 22.8057 27.9916 22.8057H458.315C468.999 22.8057 477.66 31.7249 477.66 42.7268V71.0211H8.64563Z" fill="#D0DEFC"/>
<path d="M34.4791 48.2338C34.4791 53.8188 38.8847 58.3552 44.3086 58.3552C49.7324 58.3552 54.1158 53.8188 54.1158 48.2338C54.1158 42.6489 49.7324 38.1353 44.3086 38.1353C38.8847 38.1353 34.4791 42.6489 34.4791 48.2338ZM61.5571 48.2338C61.5571 53.8188 65.9627 58.3552 71.3866 58.3552C76.8104 58.3552 81.1939 53.8188 81.1939 48.2338C81.1939 42.6489 76.8104 38.1353 71.3866 38.1353C65.9627 38.1353 61.5571 42.6489 61.5571 48.2338ZM88.6351 48.2338C88.6351 53.8188 93.0407 58.3552 98.4646 58.3552C103.888 58.3552 108.272 53.8188 108.272 48.2338C108.272 42.6489 103.888 38.1353 98.4646 38.1353C93.0407 38.1353 88.6351 42.6489 88.6351 48.2338Z" fill="#BBCAEA"/>
<path d="M61.5543 260.267C61.5543 252.106 55.1559 245.495 47.2306 245.495C39.327 245.495 32.907 252.106 32.907 260.267C32.907 268.405 39.327 275.016 47.2306 275.016C55.1559 275.016 61.5543 268.405 61.5543 260.267Z" fill="#71C687"/>
<path d="M32.907 336.702C32.907 344.841 39.327 351.452 47.2306 351.452C55.1559 351.452 61.5543 344.841 61.5543 336.702C61.5543 328.541 55.1559 321.93 47.2306 321.93C39.327 321.93 32.907 328.541 32.907 336.702Z" fill="#FCC230"/>
<path d="M47.2298 313.222C55.1406 313.222 61.5536 306.619 61.5536 298.473C61.5536 290.327 55.1406 283.724 47.2298 283.724C39.3189 283.724 32.9059 290.327 32.9059 298.473C32.9059 306.619 39.3189 313.222 47.2298 313.222Z" fill="#FE4C40"/>
<path d="M0.410782 137.071C-2.30749 153.536 12.9885 177.522 16.0572 179.635C16.3016 179.814 16.618 179.883 17.0226 179.935C18.7179 184.866 37.3989 239.063 61.7001 271.359C72.8576 286.154 81.3953 290.793 93.118 288.416C94.3328 288.184 95.5888 287.878 96.8911 287.477C138.926 274.651 156.154 247.946 156.154 247.946L119.662 204.653C119.662 204.653 112.134 210.935 103.728 217.437C103.593 217.549 103.463 217.641 103.328 217.753C93.4135 225.416 82.4529 233.23 81.2219 231.366C79.2764 228.434 48.0447 182.044 37.8507 167.635C38.0785 165.179 38.4328 160.796 38.5065 156.829C38.5609 152.856 38.3649 149.264 37.4795 148.362C35.222 146.115 31.0916 156.222 31.0741 159.214C31.0614 162.186 3.12859 120.606 0.410782 137.071Z" fill="#FEC9AC"/>
<path opacity="0.52" d="M93.1179 288.416C94.3327 288.184 95.5887 287.878 96.8911 287.477C138.926 274.651 156.154 247.946 156.154 247.946L119.662 204.653C119.662 204.653 112.134 210.935 103.728 217.437C109.346 241.286 105.382 267.416 93.1179 288.416Z" fill="#FFAB90"/>
<path d="M150.765 276.071L148.375 301.467L144.742 340.1H317.118L307.562 285.803C307.562 285.803 344.97 288.073 374.354 246.1C374.354 246.1 332.699 182.222 298.09 153.752C294.898 151.125 291.768 148.797 288.736 146.854C267.172 133.016 242.899 129.529 218.374 133.523C192.105 137.793 167.9 150.729 148.674 169.642C124.805 193.101 111.952 212.491 111.952 212.491C111.952 212.491 132.552 270.166 150.765 276.071Z" fill="#EE984F"/>
<path d="M306.705 282.601C306.705 282.601 252.813 301.388 206.12 300.899C183.67 300.665 162.874 295.979 150.542 282.601L156.151 231.026C156.151 231.026 205.947 246.385 269.599 236.758C278.635 235.389 287.941 233.519 297.431 231.026L306.705 282.601Z" fill="#D1DCF8"/>
<path d="M494.687 216.103C491.952 232.565 469.8 249.976 466.224 250.922C465.936 251.007 465.615 250.965 465.217 250.876C462.03 254.949 426.961 299.708 393.638 321.885C378.349 332.036 368.801 333.499 358.505 327.256C357.434 326.622 356.348 325.905 355.248 325.082C319.717 298.635 312.059 267.56 312.059 267.56L360.422 239.168C360.422 239.168 365.504 247.664 371.341 256.667C371.433 256.819 371.526 256.95 371.617 257.102C378.505 267.716 386.331 278.828 388.092 277.49C390.871 275.387 435.269 242.278 449.525 232.163C450.101 229.767 451.177 225.511 452.385 221.743C453.612 217.976 454.953 214.654 456.079 214.105C458.932 212.756 459.576 223.701 458.629 226.53C457.685 229.338 497.422 199.642 494.687 216.103Z" fill="#FEC9AC"/>
<path opacity="0.52" d="M358.505 327.256C357.434 326.622 356.348 325.905 355.248 325.082C319.717 298.635 312.059 267.56 312.059 267.56L360.422 239.168C360.422 239.168 365.504 247.664 371.341 256.667C358.365 277.25 353.694 303.257 358.505 327.256Z" fill="#FFAB90"/>
<path d="M317.118 340.1L307.562 285.803C307.562 285.803 344.97 288.073 374.354 246.101C374.354 246.101 332.699 182.222 298.09 153.752C294.163 166.036 290.226 178.331 286.299 190.615C279.819 210.873 273.28 231.267 263.128 249.85C252.965 268.432 238.826 285.291 220.408 295.027C202.587 304.453 181.728 306.649 161.87 303.98C157.332 303.367 152.829 302.518 148.375 301.467L144.742 340.1H317.118V340.1Z" fill="#EA7D20"/>
<path d="M303.399 265.853C302.655 265.853 301.994 265.308 301.855 264.527L295.166 227.326C295.006 226.446 295.572 225.6 296.426 225.437C297.253 225.28 298.102 225.856 298.259 226.736L304.948 263.937C305.108 264.817 304.542 265.663 303.688 265.826C303.592 265.844 303.494 265.853 303.399 265.853ZM152.228 265.718C151.365 265.626 150.737 264.83 150.827 263.939L154.59 226.369C154.679 225.476 155.453 224.828 156.317 224.923C157.181 225.015 157.808 225.811 157.719 226.701L153.956 264.272C153.866 265.174 153.077 265.815 152.228 265.718Z" fill="#BB2C32"/>
<path d="M260.435 134.711C257.971 142.223 248.827 147.387 241.898 149.346C235.327 151.205 228.366 151.361 221.773 149.569C206.922 145.529 206.554 136.058 206.554 136.058C209.062 135.223 210.283 128.634 210.856 121.544C211.58 112.607 211.299 102.88 211.299 102.88H250.74C250.74 102.88 251.896 115.223 253.15 124.727C253.41 126.642 254.058 128.478 255.074 130.069C255.971 131.505 257.149 132.763 258.576 133.709C259.646 134.421 260.435 134.711 260.435 134.711Z" fill="#FEC9AC"/>
<g opacity="0.5">
<path opacity="0.5" d="M255.074 130.069C241.596 135.089 225.686 133.453 214.272 124.549C213.072 123.614 211.937 122.613 210.856 121.544C211.58 112.607 211.299 102.88 211.299 102.88H250.74C250.74 102.88 251.897 115.223 253.15 124.727C253.41 126.642 254.058 128.478 255.074 130.069Z" fill="#FFAB90"/>
</g>
<path d="M262.851 146.555C263.167 146.848 262.492 148.39 260.356 150.878C258.215 153.327 254.535 156.747 248.639 159.723C238.52 164.457 226.791 165.299 216.117 162.203C209.91 160.27 205.496 157.242 203.482 154.36C201.419 151.478 201.583 149.514 201.948 149.434C202.45 149.24 203.132 150.71 205.323 152.586C207.484 154.488 211.388 156.557 217.256 158.004C226.999 160.826 237.688 160.06 246.901 155.745C252.429 153.382 256.179 150.71 258.68 148.937C261.172 147.133 262.483 146.209 262.851 146.555Z" fill="white"/>
<path d="M334.832 264.44C334.421 263.546 337.199 261.504 342.567 257.471C347.276 254.3 351.632 250.57 355.505 246.369C360.313 241.665 362.747 239.205 363.55 239.792C364.261 240.295 363.1 243.809 358.571 249.376C354.472 253.821 349.868 257.765 344.889 261.117C338.756 264.707 335.2 265.271 334.832 264.44Z" fill="white"/>
<path d="M145.473 251.787C144.973 252.46 141.406 250.99 136.143 245.491C131.974 240.603 128.487 235.106 125.818 229.21C123.048 222.043 123.174 218.089 123.995 217.883C124.96 217.611 126.387 221.006 129.653 227.361C132.152 232.884 135.423 238.041 139.329 242.618C143.67 248.258 146.116 250.969 145.473 251.787Z" fill="white"/>
<path d="M306.704 282.601C306.704 282.601 252.813 301.388 206.119 300.899C211.037 299.396 215.826 297.448 220.409 295.022C238.826 285.295 252.964 268.433 263.124 249.847C265.459 245.573 267.61 241.199 269.599 236.758C278.634 235.389 287.941 233.519 297.431 231.026L306.704 282.601Z" fill="#E4ECF9"/>
<path d="M263.972 89.163C262.91 96.9409 261.376 105.144 256.218 110.928C251.639 116.056 244.747 118.499 237.985 118.827C234.314 119.009 230.597 118.62 227.127 117.368C220.093 114.841 214.653 109.081 209.767 103.308C207.952 101.177 206.166 99.0023 204.482 96.7518C202.738 94.4228 200.559 92.5052 198.222 90.8154C198.211 90.8076 198.2 90.7997 198.19 90.7918C196.325 89.4431 194.803 87.644 193.363 85.8455C192.206 84.4119 191.038 82.8929 190.743 81.0819C190.471 79.4412 190.967 77.7282 191.888 76.3795C192.454 75.5772 193.139 74.8842 193.917 74.3009C192.407 65.8917 193.28 56.9965 196.526 49.1094C200.845 38.6103 209.307 29.994 219.562 25.6802L257.764 19.5068C257.93 25.3883 260.373 30.8936 262.107 36.4837C267.371 53.3508 266.356 71.6034 263.972 89.163Z" fill="#FEC9AC"/>
<path d="M279.424 38.2988C277.893 41.9585 275.971 45.5295 273.125 48.2369C270.279 50.9443 266.392 52.6848 262.549 52.1792C259.356 51.7477 256.553 49.8583 253.591 48.5195C251.626 47.6122 248.968 47.8948 246.584 48.6837C243.983 49.5757 241.253 50.0225 238.522 49.7689L236.124 49.5612C236.485 47.7757 238.941 47.7016 240.314 46.5407C230.634 45.4845 220.621 51.7034 217.009 61.0161C215.694 64.4383 211.649 76.6966 211.649 76.6966C211.649 76.6966 207.647 73.8999 205.899 73.2004C203.572 72.2785 200.929 71.6088 198.458 72.2487C196.522 72.7398 194.73 74.1678 194.181 76.1467C193.257 72.1438 191.31 68.9094 189.645 65.4352C187.147 60.2225 186.293 54.2916 186.813 48.505C187.015 46.1986 187.405 43.9227 187.896 41.6614C188.633 38.2544 189.616 34.8918 190.598 31.5445C192.101 26.4719 193.647 21.3245 196.479 16.8912C200.437 10.702 206.708 6.31302 213.498 3.82866C220.274 1.34429 227.571 0.645481 234.766 0.719576C239.389 0.779142 244.041 1.15107 248.462 2.56468C252.869 3.97757 257.03 6.5215 259.847 10.3003C260.729 11.4909 261.465 12.7847 262.159 14.109C263.185 16.0877 264.109 18.1551 265.251 20.0743C268.054 24.7902 272.273 28.6141 277.17 30.8755C278.037 31.2772 278.962 31.6491 279.583 32.4075C280.883 33.9845 280.233 36.3948 279.424 38.2988Z" fill="#022E4F"/>
<path opacity="0.5" d="M204.208 87.8843C204.295 88.7771 203.601 89.6699 202.749 89.7737C202.33 89.8333 201.925 89.7294 201.535 89.5652C200.177 89.0153 199.137 87.8545 198.241 86.6647C196.609 84.5072 195.164 82.0083 195.106 79.2704C195.091 78.4074 195.236 77.4856 195.799 76.8456C196.594 75.9383 197.996 75.8788 199.151 76.2064C201.478 76.8456 203.399 78.8244 204.049 81.2049L204.208 87.8843Z" fill="#FFAB90"/>
<path d="M259.067 31.5154C256.192 33.3598 252.465 32.7198 249.185 31.8423C244.07 30.4738 238.883 28.6439 233.639 29.3282C228.438 29.9827 223.626 33.2705 220.983 37.9123C220.332 39.0724 219.798 40.3073 219.018 41.3788C217.11 43.9823 213.889 45.2615 210.739 45.4997C207.575 45.7373 204.44 45.053 201.348 44.3687C198.314 43.7142 195.294 43.0452 192.274 42.3754C190.815 42.0478 189.385 41.7354 187.897 41.6613C188.634 38.2544 189.616 34.8918 190.598 31.5445C192.101 26.4719 193.647 21.3245 196.479 16.8911C200.438 10.702 206.708 6.31301 213.498 3.82866C220.275 1.34429 227.571 0.645481 234.766 0.719576C239.389 0.779142 244.041 1.15107 248.462 2.56468C252.869 3.97757 257.03 6.5215 259.847 10.3003C260.729 11.4909 261.466 12.7847 262.159 14.109C262.419 16.3107 262.853 18.527 263.012 20.7441C263.315 24.7757 262.405 29.3877 259.067 31.5154Z" fill="#003567"/>
<path d="M223.7 67.3414C223.547 67.2482 223.523 66.8992 223.765 66.321C224.012 65.7538 224.54 64.945 225.55 64.1972C227.314 63.0311 229.586 62.6633 231.612 63.2156C232.796 63.608 233.539 64.2101 233.941 64.6725C234.343 65.1471 234.423 65.4883 234.302 65.6288C234.028 65.9629 233.11 65.3083 231.189 64.945C229.587 64.5151 227.865 64.7942 226.468 65.7091C224.747 66.6628 224.069 67.5771 223.7 67.3414ZM248.464 62.2237C248.231 61.9925 248.747 60.7992 250.821 59.6602C252.622 58.8548 254.613 58.5343 256.566 58.735C258.877 59.1662 259.722 60.14 259.565 60.4424C259.396 60.8335 258.362 60.5635 256.398 60.5104C254.742 60.3375 253.033 60.6133 251.508 61.2984C249.651 61.9673 248.748 62.55 248.464 62.2237ZM240.386 92.5973C240.534 92.4607 241.022 92.8615 241.934 93.5174C242.389 93.8295 242.98 94.1979 243.676 94.3494C244.337 94.497 245.281 94.3695 245.768 93.8126C246.648 92.9955 246.017 90.5312 245.798 88.6146C245.488 86.6074 245.079 84.6164 244.577 82.65C243.516 77.9816 242.84 75.6694 243.226 75.514C243.542 75.3787 244.847 77.4681 246.253 82.1961C247.053 85.3374 247.588 88.3781 247.914 91.4571C247.962 92.0049 247.992 92.596 247.885 93.2357C247.783 93.8709 247.497 94.5644 246.987 95.0791C245.702 96.2284 244.263 96.1002 243.279 95.7693C242.273 95.3867 241.672 94.7884 241.249 94.3125C240.433 93.3257 240.253 92.7184 240.386 92.5973ZM243.691 102.724C243.734 102.894 243.37 103.209 242.515 103.489C241.667 103.759 240.308 104.033 238.496 103.828C235.455 103.353 232.546 101.931 230.4 99.5397C229.202 98.0537 228.793 96.5204 228.846 95.5369C228.893 94.5391 229.23 94.1293 229.392 94.1688C229.821 94.2212 229.471 96.0355 231.692 98.3515C233.479 100.353 236.086 101.662 238.75 102.064C241.906 102.659 243.592 102.262 243.691 102.724Z" fill="#4F2D2A"/>
<path d="M254.583 77.9847C255.68 77.9847 256.569 76.3403 256.569 74.3119C256.569 72.2835 255.68 70.6392 254.583 70.6392C253.486 70.6392 252.596 72.2835 252.596 74.3119C252.596 76.3403 253.486 77.9847 254.583 77.9847Z" fill="#4F2D2A"/>
<path d="M231.309 80.0042C232.406 80.0042 233.295 78.3598 233.295 76.3314C233.295 74.303 232.406 72.6587 231.309 72.6587C230.212 72.6587 229.322 74.303 229.322 76.3314C229.322 78.3598 230.212 80.0042 231.309 80.0042Z" fill="#4F2D2A"/>
<path d="M427.784 115.16V165.18C427.784 168.718 430.554 171.57 433.99 171.57H482.812L492.711 186.357L502.61 171.57H511.92C515.357 171.57 518.126 168.718 518.126 165.18V115.16C518.126 111.622 515.357 108.77 511.92 108.77H433.99C430.554 108.77 427.784 111.622 427.784 115.16Z" fill="#71A1EA"/>
<path d="M492.139 92.7526V142.773C492.139 146.311 489.369 149.163 485.933 149.163H419.897L409.998 163.95L400.099 149.163H390.789C387.352 149.163 384.583 146.311 384.583 142.773V92.7526C384.583 89.2145 387.352 86.3623 390.789 86.3623H485.933C489.369 86.3623 492.139 89.2145 492.139 92.7526Z" fill="#CBB7F4"/>
<path d="M446.553 110.969C446.553 110.969 446.551 110.969 446.55 110.969C444.647 110.968 442.893 109.791 441.613 107.654C440.688 106.11 439.54 105.281 438.358 105.281C437.175 105.281 436.027 106.11 435.126 107.615C433.827 109.782 432.073 110.959 430.169 110.959C428.264 110.959 426.51 109.782 425.228 107.644C424.328 106.14 423.18 105.311 421.999 105.31C421.997 105.31 421.997 105.31 421.996 105.31C420.817 105.31 419.671 106.136 418.77 107.635C417.472 109.796 415.72 110.969 413.819 110.969C413.818 110.969 413.817 110.969 413.815 110.969C411.913 110.968 410.159 109.79 408.878 107.654C407.971 106.139 406.824 105.311 405.643 105.31C405.641 105.31 405.641 105.31 405.641 105.31C404.461 105.31 403.315 106.136 402.415 107.635C401.117 109.796 399.365 110.969 397.463 110.969C397.463 110.969 397.462 110.969 397.461 110.969C395.558 110.968 393.804 109.79 392.524 107.654C392.233 107.168 392.38 106.531 392.852 106.232C393.322 105.93 393.94 106.084 394.233 106.568C395.133 108.072 396.281 108.901 397.462 108.902C397.463 108.902 397.463 108.902 397.463 108.902C398.643 108.902 399.789 108.076 400.69 106.577C401.987 104.417 403.74 103.243 405.641 103.243C405.641 103.243 405.643 103.243 405.644 103.243C407.547 103.244 409.3 104.422 410.581 106.559C411.488 108.072 412.635 108.901 413.817 108.902C413.818 108.902 413.818 108.902 413.819 108.902C414.998 108.902 416.144 108.076 417.046 106.577C418.344 104.417 420.096 103.243 421.996 103.243C421.997 103.243 421.999 103.243 422 103.243C423.903 103.245 425.657 104.422 426.937 106.559C427.839 108.063 428.986 108.892 430.169 108.892C431.35 108.892 432.498 108.064 433.399 106.559C434.698 104.391 436.452 103.214 438.358 103.214C440.263 103.214 442.017 104.391 443.299 106.529C444.223 108.073 445.37 108.902 446.551 108.902C446.553 108.902 446.553 108.902 446.553 108.902C447.733 108.902 448.879 108.076 449.779 106.577C451.077 104.417 452.829 103.243 454.729 103.243C454.731 103.243 454.732 103.243 454.733 103.243C456.636 103.244 458.39 104.422 459.67 106.559C460.577 108.072 461.725 108.901 462.906 108.902C462.907 108.902 462.907 108.902 462.909 108.902C464.087 108.902 465.234 108.076 466.135 106.577C467.433 104.416 469.185 103.243 471.085 103.243C471.087 103.243 471.088 103.243 471.089 103.243C472.992 103.245 474.746 104.422 476.027 106.559C476.928 108.063 478.076 108.892 479.257 108.892C480.44 108.892 481.587 108.063 482.489 106.559C482.782 106.074 483.4 105.92 483.87 106.222C484.342 106.522 484.488 107.158 484.198 107.644C482.916 109.782 481.162 110.959 479.257 110.959C477.353 110.959 475.599 109.782 474.317 107.644C473.417 106.14 472.269 105.311 471.088 105.31C471.087 105.31 471.087 105.31 471.085 105.31C469.907 105.31 468.761 106.135 467.859 107.635C466.561 109.796 464.809 110.969 462.909 110.969C462.907 110.969 462.906 110.969 462.905 110.969C461.002 110.968 459.248 109.79 457.968 107.654C457.061 106.139 455.913 105.311 454.732 105.31C454.731 105.31 454.731 105.31 454.731 105.31C453.551 105.31 452.405 106.136 451.504 107.635C450.206 109.796 448.454 110.969 446.553 110.969ZM397.465 131.608C395.519 131.662 393.806 130.431 392.524 128.293C392.233 127.807 392.38 127.171 392.852 126.871C393.322 126.569 393.94 126.723 394.233 127.208C395.133 128.712 396.281 129.541 397.462 129.541C397.463 129.541 397.463 129.541 397.463 129.541C398.643 129.541 399.789 128.716 400.69 127.216C401.987 125.056 403.74 123.883 405.64 123.883C405.641 123.883 405.643 123.883 405.644 123.883C407.547 123.884 409.3 125.061 410.581 127.198C411.488 128.711 412.635 129.54 413.817 129.541C413.818 129.541 413.818 129.541 413.819 129.541C414.998 129.541 416.144 128.716 417.046 127.216C418.344 125.056 420.096 123.882 421.996 123.882C421.997 123.882 421.999 123.883 422 123.883C423.903 123.884 425.657 125.061 426.937 127.198C427.839 128.703 428.986 129.532 430.169 129.532C431.35 129.532 432.498 128.703 433.399 127.198C434.698 125.031 436.452 123.853 438.358 123.853C439.648 123.853 440.869 124.393 441.921 125.406C442.761 126.215 442.579 127.648 441.613 128.292L441.589 128.253C440.688 126.749 439.54 125.92 438.358 125.92C437.175 125.92 436.027 126.749 435.126 128.254C433.827 130.421 432.073 131.598 430.169 131.598C428.264 131.598 426.51 130.421 425.228 128.283C424.328 126.779 423.18 125.95 421.999 125.949C421.997 125.949 421.997 125.949 421.996 125.949C420.817 125.949 419.671 126.775 418.77 128.275C417.472 130.435 415.72 131.608 413.819 131.608C413.818 131.608 413.817 131.608 413.815 131.608C411.913 131.607 410.159 130.429 408.878 128.293C407.971 126.779 406.824 125.95 405.643 125.949C405.641 125.949 405.641 125.949 405.641 125.949C404.461 125.949 403.315 126.775 402.415 128.274C401.116 130.435 399.365 131.608 397.465 131.608Z" fill="white"/>
<path d="M503.776 186.07C504.062 185.187 504.389 184.414 504.648 184.096L505.003 184.218C505.024 184.631 504.835 185.453 504.542 186.358C504.249 187.262 503.929 188.014 503.664 188.354L503.309 188.232C503.294 187.797 503.476 186.998 503.776 186.07Z" fill="#E4ECF9"/>
<path d="M404.055 421.368C408.926 421.368 412.876 417.302 412.876 412.285C412.876 407.269 408.926 403.202 404.055 403.202C399.183 403.202 395.234 407.269 395.234 412.285C395.234 417.302 399.183 421.368 404.055 421.368Z" fill="#D1DCF8"/>
<path d="M347.124 457C351.996 457 355.945 452.933 355.945 447.917C355.945 442.9 351.996 438.833 347.124 438.833C342.253 438.833 338.303 442.9 338.303 447.917C338.303 452.933 342.253 457 347.124 457Z" fill="#D1DCF8"/>
<path d="M221.81 492.594C222.456 492.096 223.343 492.096 224.069 492.428L237.383 498.493V514.861L224.069 520.761C223.747 520.927 223.424 520.927 223.101 520.927C222.617 520.927 222.133 520.761 221.729 520.511C221.084 520.013 220.68 519.265 220.68 518.434V494.671C220.68 493.84 221.084 493.01 221.81 492.594Z" fill="#8D7EA3"/>
<path d="M236.899 498.41V493.84C236.899 491.514 238.674 489.686 240.934 489.686H276.357C278.616 489.686 280.391 491.514 280.391 493.84V519.099C280.391 521.425 278.616 523.253 276.357 523.253H240.934C238.674 523.253 236.899 521.425 236.899 519.099V514.778C236.899 514.778 236.899 498.41 236.899 498.41Z" fill="#7E6A9D"/>
</svg>
