<svg width="133" height="88" viewBox="0 0 133 88" fill="none" xmlns="http://www.w3.org/2000/svg">
<path d="M51.3459 71.1158V87.9995H68.3214V71.1158H51.3459Z" fill="#51C7F4"/>
<path d="M49.7477 71.1158H36.7144C37.5142 78.819 42.6156 85.2516 49.5887 87.9995H49.7477V71.1158Z" fill="#407DC8"/>
<path d="M68.3213 71.1158V87.9995H85.2967V71.1158H68.3213Z" fill="#4CADE5"/>
<path d="M85.2968 71.1158V87.9995H102.273V71.1158H85.2968Z" fill="#4793D6"/>
<path d="M102.273 71.1158V87.9995H119.248V71.1158H102.273Z" fill="#3F7BC7"/>
<path d="M119.248 87.9995H119.731C126.81 85.4868 131.954 78.9236 132.343 71.1158H119.248V87.9995Z" fill="#5A68BB"/>
<path d="M68.3214 54.2316H51.3459V71.1157H68.3214V54.2316" fill="#597BC7"/>
<path d="M85.2967 71.1157V54.2316H68.3213V71.1157H85.2967Z" fill="#8862B7"/>
<path d="M102.273 71.1157V54.2316H85.2968V71.1157H102.273Z" fill="#6964B8"/>
<path d="M119.248 71.1157V54.2316H102.273V71.1157H119.248Z" fill="#6646A6"/>
<path d="M119.248 71.1157H132.343C132.359 70.8001 132.368 70.4836 132.368 70.1646C132.368 63.4766 128.881 57.5994 123.617 54.2316H119.248V71.1157Z" fill="#8A63B8"/>
<path d="M66.8462 52.5198V38.9082C65.2924 38.296 63.5993 37.9592 61.8265 37.9592C56.6767 37.9592 52.1933 40.7971 49.8707 44.9861V52.5198H66.8462" fill="#8249A9"/>
<path d="M85.2967 54.2317V37.3472H72.0916C71.0753 38.5057 70.1602 39.7543 69.3608 41.08C69.0222 40.913 68.6755 40.7592 68.3213 40.6198V54.2317H85.2967Z" fill="#9439A2"/>
<path d="M102.273 37.3472H85.2968V54.2317H102.273V37.3472Z" fill="#8862B7"/>
<path d="M102.273 54.2317H119.248V52.1646C118.755 52.0044 118.254 51.8632 117.744 51.743C117.181 46.2597 114.901 41.2812 111.449 37.3472H102.273V54.2317Z" fill="#9439A2"/>
<path d="M123.617 54.2317C122.268 53.3679 120.802 52.6697 119.248 52.1646V54.2317H123.617" fill="#9C41A6"/>
<path d="M85.2967 29.2499C80.0936 30.5703 75.516 33.4449 72.0917 37.3474H85.2967V29.2499Z" fill="#8C1D70"/>
<path d="M102.273 37.3474V30.6322C99.0587 29.2262 95.5064 28.4455 91.7702 28.4455C89.5358 28.4455 87.3668 28.7246 85.2968 29.2499V37.3474H102.273" fill="#7F1957"/>
<path d="M111.449 37.3474C108.941 34.488 105.812 32.1807 102.273 30.6322V37.3474H111.449Z" fill="#961163"/>
<path d="M49.618 52.7299H32.5602V69.696H49.618V52.7299" fill="#407DC8"/>
<path d="M20.6582 60.1736H10.9524V69.8271H20.6582V60.1736" fill="#5A65B9"/>
<path d="M14.2359 36.3332H5.95691V44.5676H14.2359V36.3332" fill="#9239A1"/>
<path d="M14.2359 -0.000181046H8.0105V6.19189H14.2359V-0.000181046Z" fill="#6646A6"/>
<path d="M6.2254 22.8882H0V29.0803H6.2254V22.8882Z" fill="#8664B8"/>
<path d="M17.3487 13.8065H11.1233V19.9985H17.3487V13.8065Z" fill="#8664B8"/>
<path d="M50.4433 5.69548H44.2537V11.8525H50.4433V5.69548Z" fill="#6845A6"/>
<path d="M18.7626 32.0002H10.4836V40.2346H18.7626V32.0002Z" fill="#8664B8"/>
<path d="M33.3168 4.65645H25.0375V12.8909H33.3168V4.65645Z" fill="#8664B8"/>
<path d="M30.3358 42.5336H16.7295V56.0669H30.3358V42.5336Z" fill="#9239A1"/>
<path d="M68.1109 6.1921H59.8315V14.4265H68.1109V6.1921Z" fill="#7F1957"/>
<path d="M78.0925 20.7783H69.8132V29.0127H78.0925V20.7783Z" fill="#831B8B"/>
<path d="M29.0992 65.0008H17.8434V76.1958H29.0992V65.0008" fill="#5A7CC7"/>
<path d="M36.474 23.0687H24.0751V35.4009H36.474V23.0687Z" fill="#8664B8"/>
<path d="M42.6733 16.9024H30.2744V29.2346H42.6733V16.9024Z" fill="#6459B1"/>
<path d="M64.471 19.1404H48.3729V35.1519H64.471V19.1404Z" fill="#9439A2"/>
<path d="M47.3486 37.6066H34.8296V50.0583H47.3486V37.6066Z" fill="#8664B8"/>
</svg>
