<svg width="477" height="281" viewBox="0 0 477 281" fill="none" xmlns="http://www.w3.org/2000/svg">
<path opacity="0.55" d="M309.493 25.6143C257.026 25.6143 221.948 55.8786 185.815 55.8786C180.655 55.8786 178.443 55.2289 169.32 55.2289C138.923 55.2289 94.2997 63.869 94.2997 93.2427C94.2997 99.2495 96.1658 106.124 100.401 113.968C128.137 165.336 169.891 164.639 216.02 200.765C234.604 215.32 266.283 222.832 297.95 222.832C347.138 222.832 396.296 204.707 396.296 166.697C396.263 162.097 395.611 157.523 394.356 153.098C373.689 77.9641 372.946 25.6143 309.493 25.6143Z" fill="#EFF5FF"/>
<path d="M86.0439 237.954C86.0439 237.954 80.7036 232.032 80.7036 226.008C80.7036 219.636 87.9495 215.149 87.9495 211.045C87.9495 206.945 84.3198 201.954 84.3198 198.021C84.3198 193.999 90.0933 191.533 90.0933 185.476C90.0933 181.709 90.9435 178.637 92.2553 178.637C93.7162 178.637 96.2269 183.687 96.2269 188.859C96.2269 191.948 95.5088 194.571 95.5088 196.849C95.5088 202.127 102.488 204.764 102.488 214.114C102.488 221.304 98.1659 223.949 98.1659 235.884C98.1659 237.189 98.2395 237.954 98.2395 237.954H86.0439Z" fill="#DEE9FF"/>
<path d="M90.9133 237.974C90.0303 235.064 89.576 232.039 89.5649 228.996C89.5649 221.151 92.652 215.627 92.652 209.453C92.652 205.351 91.3547 204.387 91.3547 197.881C91.3547 192.512 92.4256 187.506 92.4256 182.418C92.429 181.157 92.3566 179.897 92.2088 178.645L92.3474 178.628C92.4958 179.886 92.5685 181.152 92.5651 182.418C92.5651 187.491 91.4946 192.503 91.4946 197.879C91.4946 204.37 92.7922 205.331 92.7922 209.454C92.7922 215.646 89.7054 221.17 89.7054 228.997C89.7163 232.026 90.1685 235.037 91.0475 237.935L90.9133 237.974Z" fill="#D0DEFC"/>
<path d="M91.7468 192.691L91.6519 192.588C93.4372 190.925 94.0558 188.102 94.0618 188.074L94.1982 188.103C94.1922 188.132 93.5643 190.998 91.7468 192.691ZM91.4391 195.649C89.7427 194.254 89.5616 191.706 89.56 191.68L89.6996 191.671C89.7012 191.696 89.8785 194.185 91.5275 195.54L91.4391 195.649ZM91.5182 199.793L91.419 199.694C92.7209 198.283 93.632 196.554 94.0613 194.679L94.1987 194.705C93.7633 196.607 92.839 198.362 91.5182 199.793V199.793ZM91.6781 202.435C88.4805 201.406 86.904 198.22 86.8887 198.188L87.0142 198.126C87.0295 198.157 88.5808 201.291 91.7206 202.301L91.6781 202.435ZM92.5077 206.508L92.4161 206.402C94.4878 204.582 95.029 201.518 95.0344 201.487L95.1718 201.511C95.1664 201.543 94.6166 204.656 92.5077 206.508ZM92.6992 210.614C91.1166 209.911 89.7543 208.789 88.7587 207.367L88.8754 207.29C89.8551 208.688 91.1946 209.792 92.7505 210.483L92.6992 210.614ZM91.7359 216.722L91.6628 216.603C96.2541 213.752 98.2686 210.543 98.2882 210.512L98.4071 210.585C98.3869 210.617 96.3577 213.853 91.7359 216.722ZM90.5446 221.148C88.5812 219.467 87.6359 217.6 87.6359 216.123C87.6345 216.027 87.6403 215.931 87.6535 215.836L87.791 215.859C87.781 215.94 87.7766 216.021 87.7778 216.102C87.7778 216.783 88.0235 218.806 90.6351 221.041L90.5446 221.148ZM89.9691 224.592L89.9451 224.454C92.9763 223.926 98.2615 221.061 98.3144 221.032L98.3809 221.156C98.3275 221.185 93.0227 224.06 89.9691 224.592ZM89.621 231.774C83.1489 230.96 82.5882 224.007 82.5833 223.937L82.7229 223.927C82.7278 223.996 83.2815 230.835 89.6385 231.634L89.621 231.774ZM90.37 235.626L90.3525 235.486C93.2872 235.121 96.0353 231.695 96.0626 231.66L96.1717 231.748C96.0957 231.842 93.3567 235.253 90.37 235.626Z" fill="#D0DEFC"/>
<path d="M127.577 237.954C127.577 237.954 124.067 234.061 124.067 230.102C124.067 225.913 128.83 222.964 128.83 220.266C128.83 217.571 126.444 214.29 126.444 211.705C126.444 209.061 130.239 207.44 130.239 203.458C130.239 200.982 130.798 198.963 131.66 198.963C132.682 198.963 134.271 202.413 134.271 205.682C134.271 207.713 133.799 209.437 133.799 210.934C133.799 214.404 138.386 216.137 138.386 222.283C138.386 227.009 135.545 228.748 135.545 236.593C135.545 237.451 135.593 237.954 135.593 237.954H127.577Z" fill="#DEE9FF"/>
<path d="M130.755 237.974C130.174 236.059 129.875 234.069 129.868 232.066C129.868 226.909 131.897 223.276 131.897 219.22C131.897 216.523 131.044 215.899 131.044 211.613C131.044 208.12 131.748 204.76 131.748 201.449C131.75 200.621 131.703 199.794 131.606 198.972L131.744 198.955C131.842 199.783 131.89 200.615 131.887 201.449C131.887 204.767 131.184 208.094 131.184 211.611C131.184 215.876 132.037 216.508 132.037 219.22C132.037 223.296 130.008 226.923 130.008 232.067C130.015 234.056 130.312 236.033 130.889 237.935L130.755 237.974Z" fill="#D0DEFC"/>
<path d="M131.342 208.219L131.247 208.116C132.023 207.288 132.567 206.269 132.824 205.161L132.961 205.191C132.696 206.326 132.138 207.371 131.342 208.219V208.219ZM131.108 210.164C130.384 209.474 129.94 208.538 129.864 207.538L130.004 207.53C130.084 208.489 130.508 209.387 131.197 210.056L131.108 210.164ZM131.193 212.887L131.093 212.788C131.946 211.864 132.542 210.731 132.824 209.503L132.961 209.53C132.674 210.785 132.064 211.942 131.193 212.887V212.887ZM131.273 214.629C129.915 214.112 128.79 213.115 128.111 211.825L128.237 211.763C128.898 213.02 129.993 213.991 131.315 214.495L131.273 214.629ZM131.841 217.301L131.75 217.196C132.628 216.32 133.225 215.2 133.464 213.979L133.601 214.004C133.356 215.255 132.743 216.404 131.841 217.301V217.301ZM131.943 220.005C130.898 219.541 129.999 218.8 129.342 217.861L129.459 217.784C130.1 218.699 130.976 219.422 131.994 219.874L131.943 220.005ZM131.331 224.019L131.258 223.899C132.969 222.888 134.45 221.526 135.605 219.903L135.724 219.976C134.558 221.619 133.061 222.996 131.331 224.019ZM130.52 226.925C128.783 225.439 128.598 224.112 128.598 223.616C128.597 223.547 128.602 223.479 128.612 223.411L128.749 223.434C128.743 223.486 128.74 223.538 128.741 223.59C128.741 224.032 128.9 225.354 130.611 226.818L130.52 226.925ZM130.161 229.195L130.137 229.056C132.126 228.71 135.596 226.829 135.631 226.81L135.698 226.933C135.663 226.952 132.172 228.844 130.161 229.195ZM129.926 233.916C125.652 233.378 125.281 228.788 125.278 228.742L125.418 228.732C125.421 228.777 125.784 233.254 129.943 233.776L129.926 233.916ZM130.424 236.448L130.406 236.308C132.326 236.069 134.126 233.825 134.144 233.802L134.253 233.89C134.178 233.984 132.4 236.201 130.424 236.448Z" fill="#D0DEFC"/>
<path d="M311.613 237.139C311.613 237.139 305.314 231.47 305.314 215.995C305.314 205.319 310.919 193.914 310.919 185.724C310.919 175.516 301.888 177.001 301.888 171.4C301.888 169.883 303.193 168.876 305.119 168.876C308.185 168.876 316.763 172.976 316.763 184.455C316.763 196.063 309.929 208.43 309.929 220.257C309.929 225.911 311.484 230.682 314.507 237.139H311.613Z" fill="#DEE9FF"/>
<path d="M316.039 237.139C316.039 237.139 311.438 233.078 311.438 224.591C311.438 212.226 321.285 200.251 321.285 185.576C321.285 182.32 320.802 180.378 320.802 174.503C320.802 168.616 321.658 154.144 327.456 154.144C329.048 154.144 329.587 155.556 329.587 157.965C329.587 162.992 327.244 172.36 327.244 182.306C327.244 183.925 327.294 184.28 327.294 185.4C327.294 201.459 316.036 210.799 316.036 227.246C316.036 234.503 318.763 237.139 318.763 237.139H316.039Z" fill="#DEE9FF"/>
<path d="M320.512 237.139C318.91 234.607 318.057 231.669 318.053 228.668C318.053 215.758 334.194 211.977 334.194 192.518C334.194 187.526 332.925 185.901 332.925 183.116C332.925 180.304 334.421 179.34 336.079 179.34C342.516 179.34 343.04 189.754 343.04 192.352C343.04 215.19 321.255 221.114 321.255 232.175C321.297 233.949 321.851 235.674 322.849 237.139H320.512Z" fill="#DEE9FF"/>
<path d="M321.423 237.167C320.269 234.522 319.502 232.624 319.502 230.658C319.502 221.236 338.079 211.354 338.079 192.547C338.064 188.922 337.35 185.334 335.977 181.982L336.107 181.929C337.487 185.299 338.205 188.905 338.22 192.55C338.22 211.406 319.65 221.298 319.65 230.668C319.65 232.616 320.409 234.495 321.55 237.111L321.423 237.167ZM317.271 237.192C315.782 235.941 313.583 231.502 313.583 224.839C313.583 219.546 315.906 213.65 318.362 207.415C328.297 182.19 322.144 180.119 325.845 159.784L325.982 159.809C324.732 166.677 324.667 172.223 324.604 177.588C324.282 204.923 313.723 211.228 313.723 224.839C313.723 231.982 316.123 236.007 317.361 237.085L317.271 237.192ZM312.744 237.173C310.4 232.914 307.735 227.397 307.735 218.512C307.735 205.195 313.362 196.774 313.362 185.678C313.362 178.31 310.161 175.09 305.868 171.874L305.952 171.761C310.245 174.978 313.501 178.233 313.501 185.676C313.501 196.814 307.874 205.212 307.874 218.513C307.874 227.348 310.527 232.855 312.866 237.105L312.744 237.173Z" fill="#D0DEFC"/>
<path d="M362.641 211.845C362.641 211.845 362.662 211.045 362.662 209.808C362.662 199.043 361.414 198.699 361.414 196.82C361.414 191.719 368.155 179.577 372.098 177.926C371.341 182.558 370.207 187.121 368.708 191.567C366.21 199.001 364.151 199.718 364.109 202.588C364.068 205.458 363.622 211.845 363.622 211.845H362.641Z" fill="#F7F9FC"/>
<path d="M362.908 212.453C362.41 208.865 362.134 205.25 362.082 201.628C362.082 189.212 367.865 192.7 369.065 188.239C369.957 184.921 375.515 186.087 376.974 184.383C377.564 183.694 378.681 183.489 379.802 183.489C380.619 183.499 381.433 183.583 382.234 183.74C382.289 183.749 382.339 183.778 382.375 183.821C382.41 183.864 382.43 183.919 382.428 183.975C382.429 184.026 382.413 184.076 382.384 184.117C382.354 184.159 382.312 184.19 382.264 184.206C375.82 186.494 380.97 189.68 374.06 190.571C370.582 191.019 370.581 194.158 369.778 197.476C368.975 200.794 364.603 202.498 363.622 204.202C363.391 204.725 363.29 205.296 363.327 205.866C363.327 208.426 364.425 212.453 364.425 212.453H362.908Z" fill="#DEE9FF"/>
<path d="M366.566 211.845C366.487 211.203 366.449 210.556 366.454 209.909C366.454 200.273 373.045 199.196 374.963 199.196C380.344 199.196 382.225 205.737 382.225 205.737C382.225 205.737 379.397 204.048 376.661 204.048C371.865 204.048 370.401 210.517 370.401 212.335C370.401 212.412 370.403 212.453 370.403 212.453L366.566 211.845Z" fill="#DEE9FF"/>
<path d="M368.241 211.081L368.102 211.069C368.782 203.37 371.991 201.828 374.543 201.828C377.233 201.828 380.173 203.55 382.149 205.315L382.057 205.421C380.101 203.674 377.195 201.968 374.546 201.968C372.015 201.968 368.91 203.517 368.241 211.081Z" fill="#D0DEFC"/>
<path d="M360.007 213.233C360.007 213.233 354.447 198.005 346.919 196.426C346.919 196.426 349.222 207.194 358.848 213.048L360.007 213.233Z" fill="#E6A4EF"/>
<path d="M358.291 215.119C358.303 215.123 358.315 215.125 358.327 215.125C358.477 215.125 359.835 211.63 359.835 206.859C359.835 203.073 359.496 201.652 357.912 197.971C356.682 195.114 356.606 191.807 355.238 189.376C354.756 188.461 354.516 187.438 354.541 186.403C354.549 185.608 354.649 184.817 354.84 184.045C354.84 184.015 354.827 183.986 354.806 183.964C354.784 183.942 354.755 183.93 354.725 183.93C354.629 183.93 351.478 186.679 351.478 188.9C351.478 190.324 352.494 190.07 352.494 192.507C352.494 194.629 351.653 197.333 351.653 199.573C351.653 204.942 358.365 204.803 358.365 207.851C358.365 210.328 356.657 214.441 356.657 214.5C356.657 214.525 356.665 214.549 356.68 214.568C356.695 214.588 356.715 214.602 356.739 214.609L358.291 215.119Z" fill="#DEE9FF"/>
<path d="M364.223 211.845C364.147 210.742 364.11 209.689 364.109 208.686C364.109 201.971 365.664 194.576 374.584 194.576C380.899 194.576 382.225 197.969 382.225 197.969C382.225 197.969 374.602 203.21 368.172 203.21C365.622 203.21 365.022 205.631 365.022 207.908C365.039 209.234 365.198 210.553 365.496 211.845H364.223Z" fill="#E6A4EF"/>
<path d="M361.213 211.845C361.213 211.845 361.035 207.79 360.053 205.279C359.163 203.001 355.191 195.266 355.191 187.758C355.191 179.445 360.053 171.29 360.053 171.29C360.053 171.29 364.245 178.692 364.245 186.301C364.245 190.931 361.734 201.61 361.734 205.382C361.84 207.559 362.144 209.723 362.641 211.845H361.213Z" fill="#D0DEFC"/>
<path d="M361.274 211.366C361.253 211.098 359.579 189.652 359.579 177.76C359.526 175.589 359.639 173.418 359.916 171.265L360.191 171.315C359.916 173.452 359.804 175.607 359.856 177.762C359.856 189.62 361.531 211.076 361.553 211.344L361.274 211.366Z" fill="#02125F"/>
<path d="M352.845 235.163C352.934 235.871 353.276 236.522 353.809 236.994C354.341 237.466 355.027 237.726 355.736 237.726H368.428C369.138 237.726 369.824 237.466 370.356 236.994C370.889 236.522 371.231 235.871 371.32 235.163L373.82 215.155H350.345L352.845 235.163Z" fill="#DEE9FF"/>
<path d="M373.942 213.999C373.94 213.223 373.632 212.479 373.086 211.931C372.54 211.383 371.799 211.075 371.027 211.075H353.137C352.365 211.075 351.625 211.383 351.079 211.931C350.532 212.479 350.225 213.223 350.223 213.999C350.223 214.122 350.231 214.246 350.246 214.369L350.345 215.156H373.82L373.918 214.369C373.934 214.246 373.942 214.122 373.942 213.999V213.999Z" fill="#DEE9FF"/>
<path d="M364.893 211.095C364.554 209.962 364.38 208.784 364.378 207.601C364.353 205.693 364.827 203.812 365.752 202.146C367.989 199.487 373.589 197.742 379.302 197.742C380.281 197.741 381.259 197.794 382.233 197.9L382.218 198.039C381.251 197.934 380.279 197.881 379.306 197.882C372.83 197.882 367.706 200.041 365.864 202.23C364.956 203.87 364.492 205.721 364.517 207.597C364.519 208.768 364.691 209.933 365.027 211.054L364.893 211.095Z" fill="#D0DEFC"/>
<path d="M357.625 211.239L346.863 196.467L346.975 196.384L357.737 211.156L357.625 211.239Z" fill="#D0DEFC"/>
<path d="M364.308 193.562L364.184 193.499L372.036 177.895L372.161 177.958L364.308 193.562Z" fill="#D0DEFC"/>
<path d="M358.533 211.384L358.406 211.325C358.728 210.497 358.886 209.614 358.871 208.725C358.855 206.914 358.263 205.155 357.181 203.706C354.933 200.565 355.784 196.848 354.583 193.554L354.569 193.516C353.912 191.716 353.4 190.312 353.4 188.672C353.458 187.026 353.862 185.41 354.585 183.932L354.712 183.989C353.994 185.447 353.591 187.041 353.529 188.667C353.529 190.259 354.032 191.636 354.7 193.468L354.714 193.506C355.143 194.842 355.41 196.225 355.507 197.626C356.334 205.163 359.018 203.746 359.018 208.733C359.033 209.64 358.868 210.541 358.533 211.384V211.384ZM363.605 211.086C363.596 211.027 362.659 205.278 362.659 203.334C362.659 200.64 363.906 196.501 366.721 194.825C368.958 193.493 371.148 187.906 374.011 187.607C376.796 187.315 376.937 184.316 381.639 183.86L381.652 184C376.998 184.452 376.876 187.449 374.025 187.746C371.247 188.037 369.057 193.597 366.791 194.946C364.014 196.6 362.798 200.685 362.798 203.337C362.798 205.268 363.733 211.004 363.743 211.063L363.605 211.086Z" fill="#D0DEFC"/>
<path d="M213.192 81.313H129.969V190.958H213.192V81.313Z" fill="#DEE9FF"/>
<path d="M210.51 84.1792H132.651V185.697H210.51V84.1792Z" fill="#F7F9FC"/>
<path d="M185.163 79.3779H157.998V85.6126H185.163V79.3779Z" fill="#002D57"/>
<path d="M169.771 111.204C167.276 111.204 164.837 111.948 162.762 113.341C160.688 114.735 159.071 116.715 158.116 119.032C157.161 121.349 156.911 123.899 157.398 126.358C157.885 128.818 159.086 131.078 160.851 132.851C162.615 134.624 164.863 135.832 167.31 136.321C169.757 136.811 172.294 136.56 174.599 135.6C176.905 134.64 178.875 133.015 180.261 130.929C181.647 128.844 182.387 126.393 182.387 123.885H169.771V111.204Z" fill="#DEE9FF"/>
<path d="M171.179 107.621V122.523H186.006C186.006 118.571 184.444 114.78 181.663 111.986C178.883 109.191 175.112 107.621 171.179 107.621Z" fill="#D0DEFC"/>
<path d="M154.635 140.722H184.907C184.999 140.722 185.087 140.758 185.152 140.824C185.217 140.889 185.253 140.977 185.253 141.07V141.234C185.253 141.326 185.217 141.414 185.152 141.48C185.087 141.545 184.999 141.582 184.907 141.582H154.636C154.544 141.582 154.456 141.545 154.391 141.48C154.326 141.414 154.289 141.326 154.289 141.233V141.07C154.289 140.977 154.326 140.889 154.391 140.824C154.456 140.758 154.544 140.722 154.635 140.722Z" fill="#DEE9FF"/>
<path d="M189.837 173.113H151.267C151.084 173.113 150.936 173.263 150.936 173.447V173.604C150.936 173.788 151.084 173.937 151.267 173.937H189.837C190.021 173.937 190.169 173.788 190.169 173.604V173.447C190.169 173.263 190.021 173.113 189.837 173.113Z" fill="#DEE9FF"/>
<path d="M161.084 160.429H150.936V171.609H161.084V160.429Z" fill="#AA9AD1"/>
<path d="M174.942 153.486H164.793V171.608H174.942V153.486Z" fill="#D0DEFC"/>
<path d="M188.607 148.676H178.459V171.608H188.607V148.676Z" fill="#E6A4EF"/>
<path d="M141.04 93.3525H144.684C145.364 93.3525 146.016 93.624 146.496 94.1071C146.977 94.5902 147.247 95.2454 147.247 95.9287V99.591C147.247 100.274 146.977 100.929 146.496 101.413C146.016 101.896 145.364 102.167 144.684 102.167H141.04C140.704 102.167 140.37 102.1 140.059 101.971C139.749 101.842 139.466 101.652 139.228 101.413C138.99 101.173 138.801 100.889 138.672 100.577C138.544 100.264 138.477 99.9293 138.477 99.591V95.9287C138.477 95.2455 138.747 94.5902 139.228 94.1071C139.709 93.624 140.361 93.3525 141.04 93.3525Z" fill="#AA9AD1"/>
<path d="M168.62 188.627H174.541C174.795 188.627 175.038 188.729 175.217 188.909C175.396 189.089 175.497 189.333 175.497 189.588V237.683H167.664V189.588C167.664 189.333 167.765 189.089 167.944 188.909C168.123 188.729 168.366 188.627 168.62 188.627V188.627ZM144.988 235.658C144.856 235.658 144.727 235.627 144.611 235.566C144.494 235.506 144.394 235.418 144.318 235.311C144.242 235.203 144.193 235.079 144.175 234.949C144.157 234.818 144.17 234.685 144.213 234.561L160.31 188.355C160.345 188.252 160.4 188.158 160.472 188.077C160.544 187.996 160.631 187.931 160.728 187.884C160.825 187.837 160.93 187.809 161.038 187.803C161.146 187.797 161.253 187.812 161.355 187.848C161.457 187.884 161.551 187.939 161.631 188.012C161.711 188.084 161.777 188.171 161.823 188.269C161.87 188.366 161.897 188.472 161.903 188.581C161.909 188.689 161.894 188.797 161.858 188.899L145.762 235.105C145.706 235.267 145.601 235.407 145.462 235.506C145.324 235.605 145.158 235.658 144.988 235.658V235.658ZM200.45 235.658C200.581 235.658 200.71 235.627 200.827 235.566C200.943 235.506 201.044 235.418 201.12 235.311C201.195 235.203 201.244 235.079 201.263 234.949C201.281 234.818 201.268 234.685 201.224 234.561L185.128 188.355C185.093 188.252 185.037 188.158 184.966 188.077C184.894 187.996 184.807 187.93 184.71 187.883C184.613 187.836 184.507 187.808 184.4 187.802C184.292 187.796 184.184 187.811 184.082 187.847C183.98 187.883 183.887 187.938 183.806 188.011C183.726 188.083 183.66 188.171 183.614 188.268C183.567 188.366 183.54 188.472 183.534 188.58C183.528 188.689 183.543 188.797 183.579 188.899L199.676 235.105C199.732 235.267 199.836 235.407 199.975 235.506C200.114 235.605 200.28 235.658 200.45 235.658Z" fill="#DEE9FF"/>
<path d="M210.51 185.838H132.512V84.0396H157.998V84.3203H132.791V185.557H210.51V185.838Z" fill="#02125F"/>
<path d="M110.628 120.277C108.947 119.898 107.236 119.667 105.515 119.585C93.2136 119.585 85.9005 151.258 85.7607 167.975L94.9624 167.138C95.5386 159.647 97.1901 152.278 99.8654 145.262L99.6262 158.003H123.704V145.623C123.704 145.623 128.556 155.569 134.044 155.569C139.72 155.569 153.052 141.934 153.052 141.934L148.651 133.491C148.641 133.471 148.626 133.454 148.607 133.442C148.588 133.431 148.566 133.425 148.544 133.425C148.483 133.425 138.313 142.524 135.999 142.524C134.27 142.524 126.471 124.768 123.704 123.026C121.924 121.963 119.964 121.24 117.923 120.892L110.628 120.277Z" fill="#E6A4EF"/>
<path d="M119.977 107.404C119.977 106.244 119.53 105.128 118.729 104.292C117.928 103.456 116.836 102.964 115.682 102.921C114.528 102.877 113.402 103.284 112.541 104.058C111.68 104.831 111.15 105.909 111.063 107.067C111.055 107.178 111.05 107.29 111.05 107.404C111.05 107.513 111.055 107.621 111.062 107.729L111.05 116.436L111.05 120.278L113.722 121.32C114.074 121.458 114.453 121.509 114.829 121.471C115.204 121.433 115.566 121.307 115.883 121.102L117.159 120.278V116.574C117.938 116.472 118.654 116.089 119.172 115.496C119.691 114.903 119.977 114.141 119.977 113.351V107.687L119.968 107.686C119.973 107.593 119.977 107.499 119.977 107.404Z" fill="#FCB2A9"/>
<path d="M119.977 108.135C118.38 108.135 118.667 106.736 117.387 106.736C117.008 106.736 116.455 106.784 116.455 108.577C116.455 109.65 115.345 109.144 115.345 109.761C115.316 110.152 115.243 110.539 115.127 110.914C115.107 110.986 115.064 111.05 115.004 111.096C114.945 111.141 114.871 111.166 114.796 111.165C114.354 111.165 114.338 110.21 113.281 110.21C112.054 110.21 112.054 113.968 112.054 113.968H111.05C110.537 110.865 110.229 107.731 110.13 104.587C110.13 102.822 110.322 101.404 110.882 101.019C111.357 100.654 111.933 100.447 112.531 100.424C113.746 100.424 114.59 101.443 115.792 101.443C117.332 101.443 119.045 99.7373 120.932 99.7373C122.099 99.7373 123.704 100.495 123.704 102.317C123.704 105.201 119.977 109.25 119.977 109.25V108.135Z" fill="#002D57"/>
<path d="M117.159 116.574H114.858L117.159 118.006V116.574Z" fill="#002D57"/>
<path d="M111.05 118.458L114.858 121.042L113.498 123.326L110.628 120.278L111.05 118.458Z" fill="#D64D6E"/>
<path d="M117.159 119.78L115.71 120.892L116.917 123.026L117.923 120.892L117.159 119.78Z" fill="#D64D6E"/>
<path d="M114.858 121.042L115.71 120.892L116.606 122.475L116.009 123.326L117.803 148.026L116.009 150.912L113.892 147.63L115.126 123.507L114.101 122.314L114.858 121.042Z" fill="#002D57"/>
<path d="M100.533 144.444L100.27 144.349C102.46 138.28 106.751 129.873 106.795 129.789L107.043 129.917C107 130.001 102.717 138.393 100.533 144.444Z" fill="#02125F"/>
<path d="M103.939 235.207L110.551 234.463L110.569 234.462C110.584 234.462 110.598 234.464 110.612 234.47C110.626 234.475 110.638 234.483 110.649 234.494C117.179 240.929 122.474 238.771 122.474 241.061C122.474 241.176 122.456 241.29 122.42 241.399L122.156 242.2L102.707 242.084C102.674 242.084 102.642 242.07 102.618 242.047C102.594 242.023 102.581 241.991 102.581 241.957C102.581 241.949 102.582 241.941 102.583 241.933L103.829 235.309C103.834 235.283 103.847 235.258 103.867 235.24C103.887 235.221 103.912 235.21 103.939 235.207V235.207Z" fill="#002D57"/>
<path d="M103.862 232.841L103.846 235.217L105.805 235.506C106.129 235.553 106.455 235.577 106.782 235.577C107.8 235.578 108.804 235.345 109.718 234.896L110.611 234.456L110.079 232.878L103.862 232.841Z" fill="#FCB2A9"/>
<path d="M116.868 230.733L123.438 229.994C123.438 229.994 127.771 234.411 134.001 235.332C134.262 235.366 134.503 235.494 134.679 235.691C134.855 235.889 134.954 236.143 134.959 236.409C134.959 236.52 134.941 236.631 134.906 236.737L134.65 237.515L115.743 237.402C115.727 237.402 115.712 237.398 115.698 237.392C115.683 237.385 115.671 237.375 115.661 237.363C115.651 237.351 115.644 237.336 115.64 237.321C115.636 237.306 115.636 237.29 115.638 237.275L116.868 230.733Z" fill="#002D57"/>
<path d="M116.884 228.426L116.868 230.733L118.771 231.014C119.086 231.06 119.403 231.083 119.72 231.083C120.708 231.084 121.684 230.858 122.571 230.422L123.438 229.994L122.922 228.462L116.884 228.426Z" fill="#FCB2A9"/>
<path d="M123.652 138.673C123.652 140.35 123.65 142.233 123.644 144.115L123.365 144.114C123.371 142.232 123.373 140.35 123.373 138.673C123.373 135.32 123.365 132.794 123.365 132.756L123.644 132.755C123.644 132.792 123.652 135.32 123.652 138.673Z" fill="#02125F"/>
<path d="M99.6263 158.003L99.8654 233.067H111.168L113.02 210.71V228.74L123.704 228.56V158.003H99.6263Z" fill="#002D57"/>
<path d="M112.875 209.9L112.596 209.883C113.66 192.713 115.406 163.717 115.424 163.427L115.703 163.443C115.685 163.734 113.939 192.73 112.875 209.9Z" fill="#D9DFF4"/>
<path d="M94.2186 167.206C94.7799 169.323 96.3858 167.957 96.5648 169.367L96.7186 170.578C96.7229 170.611 96.7251 170.645 96.7251 170.678C96.7256 170.859 96.6633 171.034 96.5488 171.174C96.4344 171.313 96.2751 171.408 96.0984 171.442C94.046 171.831 93.721 174.848 92.2955 174.848C92.1358 174.847 91.978 174.814 91.8322 174.748L89.9995 173.93C88.9623 172.701 88.3748 171.152 88.3346 169.541C88.3351 168.921 88.4313 168.305 88.62 167.715L94.2186 167.206ZM148.722 133.669L153.435 129.345H155.468L156.727 129.898C156.922 129.984 157.087 130.125 157.204 130.303C157.32 130.482 157.382 130.691 157.382 130.904V131.823C157.382 132.329 157.276 132.829 157.071 133.291L156.903 133.669L156.64 136.586C156.612 136.889 156.487 137.175 156.284 137.399C156.08 137.624 155.809 137.776 155.511 137.832L151.301 138.619L148.722 133.669Z" fill="#FCB2A9"/>
<path d="M165.922 116.162C165.922 116.204 165.909 116.245 165.884 116.278L154.569 131.479C154.554 131.499 154.535 131.516 154.513 131.529C154.492 131.542 154.467 131.551 154.442 131.554C154.417 131.558 154.392 131.557 154.367 131.55C154.342 131.544 154.319 131.533 154.299 131.518L153.938 131.246C153.918 131.231 153.901 131.212 153.888 131.19C153.875 131.168 153.866 131.144 153.863 131.118C153.859 131.093 153.86 131.068 153.867 131.043C153.873 131.018 153.884 130.995 153.899 130.975L165.213 115.774C165.228 115.754 165.247 115.737 165.269 115.723C165.291 115.71 165.315 115.702 165.34 115.698C165.365 115.695 165.391 115.696 165.416 115.702C165.44 115.709 165.463 115.72 165.484 115.735L165.845 116.006C165.869 116.025 165.888 116.048 165.902 116.075C165.915 116.102 165.922 116.132 165.922 116.162V116.162Z" fill="#002D57"/>
<path d="M153.909 131.79H153.77C153.818 131.133 153.931 130.482 154.106 129.847L154.242 129.88C154.071 130.505 153.96 131.144 153.909 131.79V131.79Z" fill="#F75876"/>
<path d="M305.382 146.657C302.447 148.527 297.007 151.609 297.007 157.637C297.007 157.905 297.018 158.18 297.04 158.46L309.626 161.092V145.693L305.382 146.657Z" fill="#002D57"/>
<path d="M313.096 148.128L311.396 142.811C311.797 142.303 312.036 141.686 312.082 141.039C312.084 140.631 311.941 140.237 311.679 139.925C311.417 139.614 311.053 139.407 310.653 139.34C310.466 139.344 310.284 139.4 310.127 139.501C310.129 139.456 310.134 139.412 310.134 139.366C310.134 138.814 310.026 138.268 309.816 137.759C309.606 137.249 309.298 136.786 308.91 136.396C308.522 136.007 308.062 135.697 307.555 135.486C307.048 135.275 306.505 135.166 305.956 135.167C302.41 135.167 301.778 138.667 301.778 139.366C301.777 139.785 301.84 140.203 301.963 140.603L301.963 140.607C302.013 140.766 302.073 140.922 302.141 141.074C303.214 143.784 305.35 147.384 306.299 147.384C306.424 147.384 306.547 147.349 306.654 147.284L307.872 146.542V151.027L313.096 148.128Z" fill="#FCB2A9"/>
<path d="M302.141 141.075C302.2 141.149 302.273 141.209 302.357 141.251C302.441 141.293 302.534 141.316 302.627 141.318C302.91 141.318 303.306 141.116 303.784 140.347C304.401 139.355 305.308 138.78 305.687 138.78C306.52 138.78 306.173 139.966 307.361 139.966C307.426 139.966 307.444 139.962 307.507 139.962C308.624 139.962 309.248 141.325 309.785 141.325C310.236 141.325 310.2 140.403 310.2 140.373C310.197 140.081 310.173 139.79 310.127 139.502C310.294 139.396 310.487 139.339 310.684 139.338C311.441 139.338 312.019 140.264 312.019 141.055C311.984 141.688 311.768 142.298 311.396 142.811C311.853 144.617 312.421 146.393 313.096 148.128C313.987 150.239 327.189 163.714 327.189 163.714H348.373C349.084 161.407 349.46 159.009 349.489 156.594C349.489 140.501 330.334 147.541 330.334 142.153C330.334 141.194 330.937 140.25 330.937 139.379C330.947 139.201 330.922 139.022 330.864 138.854C330.805 138.686 330.714 138.531 330.596 138.398C330.477 138.265 330.334 138.157 330.174 138.08C330.014 138.003 329.841 137.958 329.664 137.949C327.756 137.949 324.183 141.226 322.565 141.226C320.288 141.226 320.532 131.634 313.011 131.634C309.309 131.634 305.554 133.822 301.778 134.048C298.731 134.231 297.04 136.227 297.04 138.492C297.04 141.791 300.8 144.852 303.753 144.852C303.839 144.853 303.926 144.849 304.011 144.84C304.011 144.84 303.304 143.611 303.109 143.223C302.833 142.677 302.141 141.075 302.141 141.075Z" fill="#002D57"/>
<path d="M307.872 146.542L309.626 145.038L307.852 148.376L307.872 146.542Z" fill="#002D57"/>
<path d="M292.604 231.543L286.658 230.874C286.658 230.874 282.737 234.872 277.099 235.705C276.862 235.736 276.644 235.851 276.485 236.03C276.326 236.209 276.236 236.439 276.232 236.679C276.232 236.78 276.248 236.881 276.28 236.976L276.506 237.71H293.677L292.604 231.543Z" fill="#002D57"/>
<path d="M292.59 229.455L292.604 231.542L290.882 231.796C289.708 231.969 288.509 231.783 287.443 231.261L286.658 230.874L287.126 229.487L292.59 229.455Z" fill="#FCB2A9"/>
<path d="M323.992 179.796C324.732 183.17 325.155 186.606 325.256 190.059C325.271 191.143 325.178 192.226 324.979 193.291C323.992 198.055 307.504 203.512 306.616 204.802C305.727 206.092 305.629 233.679 305.629 233.679H293.683V229.511L283.612 229.61C283.612 229.61 283.711 194.879 285.389 193.291C287.068 191.704 296.249 186.345 296.249 186.345L313.329 179.337L323.992 179.796Z" fill="#002D57"/>
<path d="M305.919 143.742C304.825 143.742 304.008 142.278 304.008 141.249C304.008 140.566 304.348 139.946 305.026 139.946C305.393 139.999 305.739 140.152 306.027 140.387C306.315 140.623 306.534 140.932 306.66 141.283C306.834 141.643 306.926 142.038 306.933 142.438C306.933 143.75 305.962 143.742 305.919 143.742ZM305.027 140.227C304.515 140.227 304.287 140.723 304.287 141.251C304.287 142.355 305.174 143.461 305.918 143.461C306.2 143.461 306.654 143.264 306.654 142.437C306.647 142.078 306.563 141.725 306.407 141.402C306.3 141.102 306.116 140.835 305.874 140.628C305.631 140.422 305.339 140.283 305.027 140.227V140.227ZM304.064 145.257C303.408 145.257 302.056 142.976 302.056 142.102C302.056 141.933 302.117 141.722 302.34 141.722C302.729 141.722 303.329 142.517 303.717 143.191C304.04 143.703 304.254 144.278 304.344 144.879C304.344 145.045 304.285 145.257 304.064 145.257ZM302.346 142.003L302.339 142.003C302.327 142.028 302.322 142.055 302.324 142.082C302.324 142.926 303.676 144.977 304.055 144.977L304.062 144.977C304.074 144.953 304.079 144.926 304.076 144.899C303.987 144.34 303.782 143.806 303.474 143.331C302.965 142.444 302.478 142.003 302.346 142.003Z" fill="#02125F"/>
<path d="M304.318 142.237L303.41 142.988L303.588 143.205L304.496 142.454L304.318 142.237Z" fill="#02125F"/>
<path d="M309.536 138.078L306.257 140.897L306.438 141.11L309.717 138.291L309.536 138.078Z" fill="#02125F"/>
<path d="M308.549 148.709C309.353 148.709 310.794 148.359 312.434 146.347C312.434 146.347 318.957 147.049 323.597 155.781C327.211 162.582 329.507 168.78 329.507 171.94C329.545 172.28 329.513 172.624 329.414 172.951C329.314 173.278 329.149 173.581 328.928 173.842C327.151 175.429 323.597 177.116 323.597 177.116L323.992 179.796H318.463L315.008 181.78L313.231 175.33L295.361 175.727C295.361 175.727 297.077 149.774 307.872 148.61C308.09 148.682 308.319 148.716 308.549 148.709V148.709Z" fill="#AA9AD1"/>
<path d="M312.525 174.792L312.343 174.579L317.694 169.939C318.029 169.648 318.28 169.272 318.42 168.85C318.56 168.427 318.583 167.975 318.488 167.54L315.563 154.175L315.835 154.114L318.761 167.48C318.867 167.964 318.841 168.468 318.685 168.938C318.529 169.409 318.25 169.828 317.876 170.152L312.525 174.792Z" fill="#02125F"/>
<path d="M304.988 157.962L304.762 167.687L305.041 167.693L305.267 157.968L304.988 157.962Z" fill="#02125F"/>
<path d="M290.759 188.688H316.968C317.109 188.688 317.247 188.654 317.372 188.589C317.496 188.524 317.604 188.43 317.684 188.314C317.765 188.199 317.816 188.065 317.834 187.925C317.852 187.785 317.836 187.643 317.788 187.51L313.368 169.12C313.306 168.951 313.195 168.805 313.048 168.702C312.901 168.599 312.727 168.543 312.548 168.543H286.965C286.827 168.543 286.691 168.576 286.567 168.639C286.444 168.702 286.338 168.793 286.257 168.906C286.176 169.018 286.123 169.149 286.102 169.286C286.081 169.423 286.093 169.564 286.136 169.695L289.931 188.085C289.988 188.261 290.099 188.413 290.248 188.521C290.397 188.629 290.576 188.688 290.759 188.688V188.688Z" fill="#DEE9FF"/>
<path d="M319.321 179.459L319.185 179.214C320.944 178.22 323.203 177.065 323.225 177.054L323.352 177.304C323.329 177.315 321.075 178.468 319.321 179.459Z" fill="#02125F"/>
<path d="M293.833 228.97L293.554 228.964C294.173 198.007 292.476 199.763 302.371 189.818L302.568 190.016C292.859 199.775 294.456 197.823 293.833 228.97Z" fill="#D9DFF4"/>
<path d="M304.012 235.757L298.067 235.088C298.067 235.088 294.145 239.086 288.507 239.92C288.271 239.95 288.053 240.066 287.893 240.244C287.734 240.423 287.644 240.654 287.64 240.893C287.64 240.995 287.656 241.095 287.688 241.191L287.915 241.924H305.086L304.012 235.757Z" fill="#002D57"/>
<path d="M303.999 233.669L304.013 235.757L302.29 236.011C301.116 236.184 299.918 235.997 298.851 235.475L298.067 235.088L298.534 233.702L303.999 233.669Z" fill="#FCB2A9"/>
<path d="M312.454 146.347L312.434 146.347C312.434 146.347 310.634 148.697 308.552 148.697C308.323 148.698 308.094 148.668 307.872 148.61C307.606 148.624 307.342 148.668 307.086 148.741C307.3 148.951 307.557 149.111 307.839 149.21C308.12 149.31 308.42 149.346 308.717 149.318C309.649 149.353 310.569 149.099 311.352 148.591C312.135 148.083 312.744 147.344 313.096 146.477C312.886 146.413 312.671 146.37 312.454 146.347Z" fill="#002D57"/>
<path d="M247.405 199.205L243.172 237.663L244.838 237.848L249.071 199.39L247.405 199.205Z" fill="#02125F"/>
<path d="M308.291 199.205L304.057 237.663L305.724 237.848L309.957 199.39L308.291 199.205Z" fill="#02125F"/>
<path d="M325.133 198.455H305.015V200.139H325.133V198.455Z" fill="#02125F"/>
<path d="M264.346 198.455H244.228V200.139H264.346V198.455Z" fill="#02125F"/>
<path d="M321.723 199.179L320.064 199.415L325.401 237.408L327.06 237.173L321.723 199.179Z" fill="#02125F"/>
<path d="M261.203 199.21L259.536 199.383L263.512 238.04L265.179 237.867L261.203 199.21Z" fill="#02125F"/>
<path d="M230.489 229.701L223.447 228.816C223.447 228.816 218.787 233.788 212.12 234.808C211.824 234.85 211.552 234.998 211.354 235.224C211.157 235.451 211.047 235.741 211.044 236.042C211.044 236.165 211.062 236.287 211.098 236.405L211.367 237.291H231.786L230.489 229.701Z" fill="#002D57"/>
<path d="M230.489 227.077V229.7L228.445 230.006C227.049 230.215 225.622 229.971 224.373 229.308L223.447 228.816L224.012 227.077H230.489Z" fill="#F29B7C"/>
<path d="M262.494 183.791C262.541 184.801 262.569 185.752 262.569 186.649C262.569 204.51 243.155 200.961 243.081 203.249L242.155 231.979H231.478V228.311L221.883 228.04C221.883 228.04 222.559 200.737 222.829 196.934C223.1 193.13 228.235 189.055 231.343 188.784C234.452 188.512 246.479 183.214 246.479 183.214L262.494 183.791Z" fill="#002D57"/>
<path d="M266.722 172.042C266.722 166.221 263.075 150.947 250.989 150.947C250.828 150.947 250.741 150.952 250.741 150.952C248.81 152.096 247.422 152.444 246.447 152.444C244.935 152.444 244.419 151.608 244.419 151.608C240.71 149.9 239.735 143.719 239.735 137.692C239.783 133.277 240.183 128.873 240.932 124.522H232.437C231.767 126.688 231.09 131.854 231.09 137.96C231.09 143.341 231.616 149.453 233.135 154.883C236.379 166.474 237.254 172.179 237.254 172.179L251.297 172.233L254.588 186.338C255.689 185.588 256.718 184.734 257.66 183.79L262.494 183.791C262.453 183.577 262.435 183.36 262.442 183.143C262.481 181.986 262.674 180.84 263.018 179.735C267.058 175.096 266.722 173.17 266.722 172.042Z" fill="#D0DEFC"/>
<path d="M252.663 177.476C252.638 177.476 252.614 177.466 252.597 177.448C252.579 177.43 252.569 177.406 252.569 177.381C252.569 177.249 256.944 174.312 256.944 170.73C256.944 166.864 253.682 161.77 253.682 161.685C253.682 161.66 253.692 161.635 253.71 161.618C253.728 161.6 253.752 161.589 253.777 161.589C253.946 161.589 257.135 167.017 257.135 170.712C257.135 174.253 252.72 177.476 252.663 177.476ZM258.171 183.545C258.15 183.545 258.13 183.539 258.114 183.526C258.097 183.514 258.085 183.497 258.08 183.477C258.074 183.457 258.075 183.436 258.082 183.417C258.089 183.398 258.102 183.381 258.119 183.37C259.694 182.299 261.181 181.105 262.569 179.799C262.594 179.799 262.618 179.809 262.636 179.827C262.654 179.845 262.664 179.869 262.664 179.894C262.664 180.201 258.423 183.545 258.171 183.545Z" fill="#10181B"/>
<path d="M231.479 226.767H231.477C231.44 226.767 231.404 226.751 231.378 226.725C231.352 226.698 231.337 226.662 231.337 226.625V226.623L231.343 226.085C231.481 215.46 231.668 200.909 232.712 196.088C233.76 191.251 240.628 188.912 240.803 188.912C240.833 188.912 240.863 188.922 240.887 188.94C240.912 188.958 240.93 188.983 240.939 189.012C240.944 189.026 240.946 189.04 240.946 189.054C240.946 189.085 240.936 189.115 240.918 189.139C240.9 189.164 240.875 189.182 240.846 189.191C231.408 192.151 232.009 196.521 231.628 226.088L231.62 226.626C231.62 226.664 231.605 226.699 231.578 226.726C231.552 226.752 231.516 226.767 231.479 226.767V226.767Z" fill="#D7EDF4"/>
<path d="M251.574 171.383L255.804 189.918H230.127L226.04 172.01C226.011 171.886 226.011 171.756 226.039 171.631C226.067 171.506 226.123 171.389 226.202 171.289C226.282 171.189 226.383 171.108 226.498 171.053C226.612 170.997 226.738 170.968 226.866 170.969H251.057C251.177 170.969 251.294 171.01 251.388 171.085C251.482 171.16 251.547 171.265 251.574 171.383Z" fill="#DEE9FF"/>
<path d="M240.263 124.522C240.705 122.365 241.299 121.857 241.299 120.608V119.298C241.299 118.815 241.113 118.351 240.781 118.002V115.433C240.781 115.366 240.768 115.3 240.742 115.238C240.717 115.176 240.679 115.12 240.632 115.073C240.585 115.025 240.529 114.988 240.468 114.962C240.406 114.937 240.341 114.923 240.274 114.923H239.766C239.661 114.923 239.559 114.956 239.473 115.017C239.387 115.078 239.323 115.165 239.288 115.264L239.091 115.829C238.854 115.899 238.637 116.025 238.458 116.196C238.279 116.366 238.142 116.578 238.06 116.812L238.055 116.825L237.722 116.947C237.519 117.021 237.337 117.144 237.191 117.304C237.045 117.464 236.94 117.657 236.884 117.866L236.551 118.014C236.315 118.118 236.114 118.289 235.974 118.506C235.833 118.723 235.758 118.976 235.758 119.235V122.258L236.028 124.522L240.263 124.522ZM241.503 140.082C241.503 138.881 241.966 137.727 242.794 136.862C243.623 135.997 244.753 135.488 245.947 135.443C247.141 135.398 248.306 135.82 249.197 136.619C250.089 137.419 250.637 138.535 250.726 139.733C250.735 139.848 250.741 139.965 250.741 140.082C250.741 140.195 250.735 140.307 250.727 140.418L250.74 149.427L250.741 151.052C250.741 151.052 247.474 153.098 245.637 153.098C245.475 153.124 245.309 153.111 245.152 153.061C244.996 153.011 244.853 152.925 244.735 152.811C244.617 152.696 244.527 152.555 244.472 152.4C244.417 152.244 244.399 152.078 244.419 151.914V149.57C243.613 149.465 242.872 149.069 242.336 148.455C241.799 147.841 241.503 147.053 241.503 146.236V140.375L241.513 140.374C241.507 140.277 241.503 140.18 241.503 140.082Z" fill="#F29B7C"/>
<path d="M244.419 149.57H246.8L244.419 151.052V149.57Z" fill="#002D57"/>
<path d="M241.503 140.839C243.156 140.839 242.859 139.391 244.183 139.391C244.575 139.391 245.148 139.441 245.148 141.296C245.148 142.406 246.296 141.882 246.296 142.521C246.326 142.926 246.402 143.327 246.522 143.715C246.542 143.79 246.587 143.857 246.65 143.904C246.712 143.951 246.788 143.976 246.866 143.976C247.321 143.976 247.329 142.986 248.431 142.986C249.701 142.986 249.701 146.874 249.701 146.874H250.741C251.271 143.663 251.589 140.421 251.692 137.167C251.692 135.341 251.493 133.874 250.914 133.476C250.422 133.098 249.826 132.883 249.208 132.86C247.95 132.86 247.077 133.914 245.833 133.914C244.24 133.914 242.467 132.149 240.515 132.149C239.308 132.149 237.647 132.933 237.647 134.819C237.647 137.803 241.503 141.992 241.503 141.992V140.839ZM244.419 151.608C244.408 151.687 244.402 151.767 244.403 151.847C244.384 152.014 244.402 152.183 244.456 152.342C244.51 152.502 244.598 152.647 244.715 152.767C244.831 152.888 244.973 152.981 245.13 153.04C245.287 153.1 245.454 153.123 245.621 153.109C247.378 153.109 250.741 151.053 250.741 151.053V150.952C250.741 150.952 250.912 150.945 251.098 150.945C251.191 150.945 251.287 150.947 251.367 150.952C251.367 150.952 248.274 153.735 245.577 153.735C244.935 153.735 243.656 153.582 243.656 151.981C243.65 151.734 243.697 151.489 243.796 151.263C243.796 151.263 244.363 151.591 244.419 151.608ZM240.975 234.601L233.933 233.716C233.933 233.716 229.274 238.689 222.607 239.708C222.31 239.751 222.038 239.899 221.841 240.125C221.643 240.351 221.533 240.642 221.53 240.943C221.53 241.066 221.549 241.188 221.584 241.305L221.853 242.191H242.272L240.975 234.601Z" fill="#002D57"/>
<path d="M240.975 231.978V234.601L238.932 234.907C237.535 235.116 236.108 234.872 234.86 234.209L233.933 233.716L234.498 231.978H240.975Z" fill="#F29B7C"/>
<path d="M267.018 122.943H258.12C257.849 122.943 257.58 122.997 257.33 123.101C257.079 123.205 256.852 123.358 256.66 123.551C256.468 123.743 256.316 123.972 256.213 124.224C256.109 124.475 256.056 124.745 256.056 125.018V130.64C256.056 130.913 256.109 131.182 256.213 131.434C256.316 131.686 256.468 131.915 256.66 132.107C256.852 132.3 257.079 132.453 257.33 132.557C257.58 132.661 257.849 132.715 258.12 132.715H259.412L259.412 132.763C259.412 133.237 259.324 135.074 257.987 135.746C257.987 135.746 260.682 134.812 261.26 132.715H267.018C267.289 132.715 267.557 132.661 267.807 132.557C268.058 132.453 268.285 132.3 268.477 132.107C268.669 131.915 268.821 131.686 268.925 131.434C269.028 131.182 269.082 130.913 269.082 130.64V125.018C269.082 124.745 269.028 124.475 268.925 124.224C268.821 123.972 268.669 123.743 268.477 123.551C268.285 123.358 268.058 123.205 267.807 123.101C267.557 122.997 267.289 122.943 267.018 122.943Z" fill="#E6A4EF"/>
<path d="M258.862 129.122C259.473 129.122 259.968 128.625 259.968 128.011C259.968 127.397 259.473 126.9 258.862 126.9C258.252 126.9 257.757 127.397 257.757 128.011C257.757 128.625 258.252 129.122 258.862 129.122Z" fill="white"/>
<path d="M262.569 129.122C263.179 129.122 263.674 128.625 263.674 128.011C263.674 127.397 263.179 126.9 262.569 126.9C261.958 126.9 261.463 127.397 261.463 128.011C261.463 128.625 261.958 129.122 262.569 129.122Z" fill="white"/>
<path d="M266.275 129.122C266.886 129.122 267.381 128.625 267.381 128.011C267.381 127.397 266.886 126.9 266.275 126.9C265.665 126.9 265.17 127.397 265.17 128.011C265.17 128.625 265.665 129.122 266.275 129.122Z" fill="white"/>
<path d="M338.88 188.812H210.724V190.497H338.88V188.812Z" fill="#02125F"/>
<path d="M325.563 190.582H288.79V190.862H325.563V190.582Z" fill="#D9DFF4"/>
<path d="M263.516 190.582H226.743V190.862H263.516V190.582Z" fill="#D9DFF4"/>
<path d="M327.304 189.46L325.673 189.849L338.064 242.386L339.695 241.997L327.304 189.46Z" fill="#02125F"/>
<path d="M220.712 189.481L209.688 242.017L211.328 242.365L222.351 189.828L220.712 189.481Z" fill="#02125F"/>
</svg>
