<svg width="477" height="281" viewBox="0 0 477 281" fill="none" xmlns="http://www.w3.org/2000/svg">
<path opacity="0.3" d="M131.065 226.436C131.065 226.436 116.999 196.574 140.408 178.109C163.817 159.64 120.885 140.892 136.376 117.956C151.867 95.0213 204.535 113.61 203.207 71.1213C201.88 28.6324 246.139 17.125 260.744 29.9602C275.35 42.7954 277.359 105.356 319.286 98.6417C361.213 91.9232 400.604 180.574 366.967 226.316L131.065 226.436Z" fill="#99B9FF"/>
<path d="M378.328 230.795C378.328 234.137 375.619 236.85 372.273 236.85H126.055C122.713 236.85 120 234.141 120 230.795C120 227.454 122.709 224.741 126.055 224.741H372.278C375.619 224.745 378.328 227.454 378.328 230.795Z" fill="#F7F7F7"/>
<path d="M186.393 190.024L178.351 160.538H199.799V186.859H214.909V191.245H214.179L215.029 224.997H213.325V190.878H189.686L186.761 224.997H185.3L186.393 190.024Z" fill="#D3D3D3"/>
<path d="M231.046 180.367C230.418 179.92 229.838 179.402 229.573 179.251C229.462 179.189 229.112 179.11 229.015 179.079C228.723 178.99 228.258 178.902 228.055 178.671L227.191 177.724C226.78 177.26 226.244 177.105 225.78 177.516C225.275 177.959 225.426 178.592 225.926 179.039L226.519 179.712C226.917 180.07 227.116 180.575 227.338 181.066C227.789 182.062 228.803 182.81 229.674 183.336C230.223 183.664 231.051 183.434 232.135 183.062C232.666 182.88 233.441 182.438 232.777 182.19C232.219 181.982 230.542 182.433 229.798 180.889C229.763 180.814 229.683 180.61 229.759 180.539C229.984 180.327 230.48 180.805 230.812 180.955C231.277 181.168 231.648 181.097 231.768 180.924C231.887 180.747 231.493 180.685 231.046 180.367Z" fill="#FAB9AF"/>
<path d="M207.425 146.438C207.425 146.438 208.811 163.079 213.785 168.696C216.786 172.081 224.115 177.884 225.815 179.216C226.032 179.384 226.333 179.393 226.559 179.234C226.7 179.132 226.864 179.008 227.006 178.884C227.147 178.76 227.315 178.574 227.461 178.402C227.709 178.114 227.696 177.685 227.439 177.406C225.536 175.335 218.07 167.138 217.162 164.982C216.122 162.508 214.33 147.916 212.683 145.8C211.037 143.685 207.877 143.224 207.425 146.438Z" fill="#DCA5E3"/>
<path d="M213.706 173.931L209.466 144.122L198.02 142.556L192.067 173.714L213.706 173.931Z" fill="#FAB9AF"/>
<path d="M214.144 173.17L209.466 144.122L198.02 142.551L191.868 173.223C191.753 173.798 192.125 174.36 192.705 174.467C194.834 174.869 199.976 175.715 205.726 175.715C210.019 175.715 212.431 174.878 213.529 174.352C213.98 174.139 214.224 173.657 214.144 173.17Z" fill="#D3D3D3"/>
<path d="M201.596 144.361C201.596 146.455 201.216 148.526 200.503 150.491C199.105 154.337 197.007 161.614 198.255 168.022C200.047 177.25 202.358 180.981 199.366 183.132C196.374 185.283 190.638 181.694 190.474 180.499C190.31 179.304 191.589 164.605 193.041 158.237C194.493 151.868 198.565 142.715 198.565 142.715L200.291 142.901C201.03 142.985 201.596 143.613 201.596 144.361ZM206.363 143.697C206.363 143.697 208.346 147.986 207.655 154.151C206.965 160.312 205.358 179.083 210.966 181.915C212.741 182.814 216.799 178.839 216.799 177.365C216.799 175.892 215.445 170.957 214.162 166.469C212.878 161.981 209.789 144.171 209.789 144.171L206.363 143.697Z" fill="#DCA5E3"/>
<path d="M204.765 130.402C202.212 130.402 201.26 132.221 201.211 135.585C201.194 136.846 201.76 138.095 202.216 138.891C202.557 139.484 202.65 140.184 202.455 140.839L201.893 142.737C201.512 144.499 202.349 145.464 203.584 145.813C204.194 145.986 204.929 145.853 205.46 145.508C206.093 145.096 206.146 144.216 206.031 143.468L205.885 142.928C205.69 142.197 206.111 141.414 206.85 141.25C208.815 140.821 209.098 138.772 209.625 135.585C210.169 132.266 207.319 130.402 204.765 130.402Z" fill="#FAB9AF"/>
<path d="M210.709 128.928L209.244 129.375C208.704 129.539 208.133 129.543 207.594 129.384L204.668 128.534C202.898 128.534 199.972 129.534 200.339 132.093L200.667 133.898C200.795 134.62 201.402 135.16 202.132 135.222C202.198 135.47 202.428 135.647 202.685 135.647C203.004 135.647 203.261 135.39 203.261 135.076C203.261 134.261 203.831 133.566 204.628 133.385C205.602 133.168 206.646 133.115 207.735 133.407C209.767 133.952 211.909 132.695 212.112 130.597C212.126 130.464 212.13 130.331 212.13 130.194C212.135 129.349 211.435 128.729 210.709 128.928Z" fill="#0B4870"/>
<path d="M202.614 135.647C202.614 136.426 202.322 137.059 201.574 137.059C200.822 137.059 200.339 135.988 200.339 135.209C200.339 134.43 200.822 134.235 201.574 134.235C202.327 134.235 202.614 134.868 202.614 135.647Z" fill="#FAB9AF"/>
<path d="M202.304 139.073C202.304 139.073 204.212 141.697 206.584 141.339C206.584 141.339 206.093 141.573 205.974 141.958C205.974 141.958 203.721 141.79 202.304 139.073Z" fill="#E8948B"/>
<path d="M179.272 199.11L176.506 202.974C175.944 203.762 175.492 204.621 175.169 205.532L174.66 206.966C174.24 208.144 172.815 208.591 171.797 207.865C169.163 205.984 164.649 202.788 163.485 201.965C163.294 201.832 163.197 201.571 163.317 201.368C164.02 200.168 166.928 202.797 170.066 203.594C172.456 204.2 175.647 199.686 176.811 197.557C177.254 196.751 178.32 196.557 179.024 197.15C179.608 197.636 179.715 198.491 179.272 199.11Z" fill="#FAB9AF"/>
<path d="M216.246 178.892C215.702 178.618 207.531 169.085 202.353 168.27C197.179 167.451 196.635 170.722 190.098 178.348C183.561 185.974 173.753 201.23 173.753 201.23L176.749 203.408C176.749 203.408 190.642 186.518 194.997 182.433C199.357 178.348 201.127 177.392 202.486 181.207C203.849 185.022 207.115 191.559 213.653 187.744C220.194 183.933 216.246 178.892 216.246 178.892Z" fill="#0B4870"/>
<path d="M204.008 213.455L205.646 218.89C205.717 219.129 205.828 219.359 205.965 219.567L207.124 221.289C207.859 222.382 207.332 223.878 206.071 224.263C206.071 224.263 203.73 225.086 201.318 225.878C198.848 226.688 195.741 226.011 195.741 225.361C195.741 223.913 197.091 225.064 199.352 223.55C200.109 223.046 200.893 222.515 201.588 221.966C203.535 220.439 201.835 216.571 200.645 214.393C200.215 213.61 200.671 212.636 201.543 212.45L202.105 212.331C202.942 212.158 203.765 212.645 204.008 213.455Z" fill="#FAB9AF"/>
<path d="M199.631 176.441C199.631 176.441 191.461 175.897 193.369 184.886C195.276 193.875 200.994 216.752 200.994 216.752H206.168L204.805 184.611C204.805 184.616 200.72 176.441 199.631 176.441ZM205.717 219.089C205.717 219.089 203.672 220.134 202.468 220.151C202.468 220.151 202.84 221.962 199.981 223.134C197.122 224.312 195.657 223.577 195.657 225.285C195.657 226.989 199.313 227.724 201.751 226.989C204.19 226.259 207.354 224.064 208.089 223.577C208.815 223.09 205.717 219.089 205.717 219.089ZM175.466 204.563C175.466 204.563 173.217 203.457 172.421 202.412C172.421 202.412 171.08 203.917 168.189 202.182C165.299 200.447 164.985 198.69 163.494 199.801C162.002 200.912 163.746 204.585 165.972 206.241C168.198 207.896 172.182 209.237 173.085 209.56C173.987 209.883 175.466 204.563 175.466 204.563Z" fill="#0B4870"/>
<path d="M198.458 142.667C198.458 142.667 194.475 153.731 194.918 160.813C195.36 167.894 195.356 173.67 191.372 169.231C187.389 164.792 190.049 142.224 198.458 142.667Z" fill="#DCA5E3"/>
<path d="M214.294 154.798C213.661 155.577 212.944 156.289 212.727 156.626C212.635 156.767 212.506 157.214 212.462 157.338C212.325 157.71 212.174 158.312 211.86 158.555L210.559 159.604C209.921 160.1 209.678 160.782 210.174 161.419C210.709 162.109 211.541 161.963 212.165 161.353L213.086 160.636C213.586 160.144 214.259 159.928 214.909 159.68C216.242 159.175 217.295 157.914 218.052 156.82C218.525 156.134 218.286 155.041 217.893 153.598C217.698 152.89 217.184 151.85 216.808 152.695C216.494 153.404 216.95 155.621 214.874 156.462C214.772 156.502 214.502 156.59 214.418 156.489C214.161 156.179 214.821 155.572 215.047 155.152C215.361 154.563 215.295 154.072 215.082 153.908C214.861 153.731 214.746 154.245 214.294 154.798Z" fill="#FAB9AF"/>
<path d="M190.031 166.164C190.031 166.164 191.009 174.516 195.617 171.426C200.229 168.337 208.638 164.354 210.851 162.583C213.064 160.813 213.064 160.813 213.064 160.813L211.696 157.923L190.031 166.164Z" fill="#DCA5E3"/>
<path d="M326.045 189.581L334.086 160.096H312.643V186.417H297.533V190.803H298.263L297.409 224.555H299.117V190.435H322.756L325.682 224.555H327.142L326.045 189.581Z" fill="#D3D3D3"/>
<path d="M305.73 154.705C308.607 154.705 310.939 151.697 310.939 147.986C310.939 144.276 308.607 141.268 305.73 141.268C302.853 141.268 300.52 144.276 300.52 147.986C300.52 151.697 302.853 154.705 305.73 154.705Z" fill="#0B4870"/>
<path d="M306.978 148.681C307.062 144.964 310.071 141.835 313.785 141.622C317.077 141.432 319.923 143.454 320.99 146.336C321.362 147.345 322.353 148.004 323.429 147.987C323.876 147.978 324.336 148.022 324.805 148.115C327.527 148.673 329.643 150.974 329.926 153.736C330.183 156.228 329.019 158.467 327.142 159.742C326.341 160.286 325.889 161.189 325.757 162.145C325.142 166.58 321.096 169.833 316.476 169.328C312.528 168.895 309.368 165.646 309.031 161.689C308.823 159.259 309.66 157.033 311.125 155.378C308.633 154.201 306.911 151.642 306.978 148.681ZM305.729 139.064C305.729 139.064 302.799 140.91 303.154 143.392C303.154 143.392 301.587 142.286 301.233 138.466C300.989 135.82 305.729 139.064 305.729 139.064Z" fill="#0B4870"/>
<path d="M303.924 154.205C303.853 156.36 303.711 158.529 303.406 160.711C303.087 162.884 302.64 165.084 301.813 167.213C301.401 168.275 300.892 169.315 300.255 170.293C299.622 171.271 298.838 172.174 297.918 172.909C297.002 173.648 295.97 174.228 294.89 174.609C293.806 174.989 292.691 175.179 291.589 175.255C291.27 175.277 290.996 175.033 290.974 174.719C290.956 174.427 291.155 174.175 291.429 174.117H291.434C293.43 173.697 295.245 172.781 296.532 171.4C297.834 170.028 298.63 168.235 299.117 166.341C299.604 164.438 299.821 162.428 299.905 160.392C299.954 159.374 299.967 158.348 299.958 157.316C299.954 156.285 299.936 155.25 299.901 154.214C299.861 153.103 300.728 152.169 301.839 152.129C302.95 152.089 303.884 152.957 303.924 154.068C303.924 154.112 303.924 154.156 303.924 154.201V154.205Z" fill="#FAB9AF"/>
<path d="M302.45 167.08C301.277 163.548 298.918 156.064 299.122 153.616C299.25 152.05 300.56 150.85 302.131 150.85H312.333C314.024 150.85 315.409 152.191 315.458 153.882C315.542 156.838 314.183 163.561 313.417 167.08H302.45V167.08Z" fill="#99B9FF"/>
<path d="M314.581 171.559C314.055 170.076 313.895 168.492 314.117 166.934C314.63 163.318 315.533 156.506 315.449 153.616C315.405 152.072 314.139 150.846 312.594 150.846H311.08C310.505 152.182 309.284 153.214 307.385 153.214C305.49 153.214 304.269 152.182 303.694 150.846H302.273C303.817 154.152 303.26 158.511 300.604 161.056C301.1 162.8 301.512 164.557 301.821 165.978C302.242 167.903 302.056 169.913 301.299 171.736C299.993 174.865 298.962 179.884 299.268 181.871C310.001 184.912 317.418 179.53 317.418 179.53L314.581 171.559Z" fill="#99B9FF"/>
<path d="M305.729 151.554L310.359 151.067L308.894 146.004L305.902 146.371L305.729 151.554Z" fill="#FAB9AF"/>
<path d="M305.902 146.371L308.894 145.999L309.35 147.579C308.682 148.336 307.819 149.965 306.73 149.965C306.385 149.965 306.07 149.867 305.787 149.686L305.902 146.371Z" fill="#FA968C"/>
<path d="M305.796 148.823C306.814 148.823 307.912 148.314 309.425 146.99C310.293 146.229 310.939 144.906 310.939 144.012V139.063H303.322C303.322 139.063 302.751 141.692 303.304 144.299C303.72 146.251 304.999 148.823 305.796 148.823Z" fill="#FAB9AF"/>
<path d="M309.646 143.073C309.646 144.038 310.107 144.822 310.678 144.822C311.249 144.822 311.877 143.556 311.877 142.591C311.877 141.626 311.249 141.325 310.678 141.325C310.111 141.325 309.646 142.109 309.646 143.073Z" fill="#FAB9AF"/>
<path d="M311.877 139.661C311.877 138.116 310.625 136.864 309.08 136.864H306.509C305.774 136.864 305.061 136.673 304.433 136.315C303.525 135.802 302.379 135.97 301.76 136.811C301.091 137.718 300.799 138.935 302.499 140.059C303.344 140.617 304.574 139.997 305.398 140.267C305.446 140.267 305.495 140.258 305.548 140.258H307.814C308.602 140.258 309.204 140.9 309.226 141.688C309.239 142.188 309.646 142.586 310.151 142.586H310.253L310.616 141.422L311.882 143.126V139.661H311.877Z" fill="#0B4870"/>
<path d="M289.473 172.953C289.473 172.953 292.137 173.263 292.314 174.109C292.487 174.954 292.452 175.551 291.23 175.852C290.009 176.153 288.194 175.981 287.123 175.662C286.052 175.343 284.489 174.051 284.41 173.799C284.131 172.891 286.008 173.675 286.937 174.011C287.862 174.348 288.946 174.631 288.977 174.14C289.013 173.648 287.189 173.139 287.043 172.564C286.897 171.989 289.473 172.953 289.473 172.953ZM297.404 174.131C297.404 174.131 300.051 173.697 300.454 174.463C300.852 175.228 300.98 175.813 299.892 176.437C298.798 177.061 297.006 177.397 295.891 177.384C294.775 177.37 292.912 176.556 292.77 176.339C292.253 175.543 294.275 175.782 295.258 175.848C296.24 175.914 297.36 175.892 297.258 175.41C297.156 174.927 295.262 174.941 294.966 174.427C294.665 173.914 297.404 174.131 297.404 174.131Z" fill="#FAB9AF"/>
<path d="M303.888 138.975C304.145 140.104 303.769 140.724 307.473 142.489C311.178 144.255 312.351 143.499 313.51 145.402C313.51 145.402 313.006 142.255 310.957 141.175C308.912 140.095 305.362 139.387 304.22 136.886C304.22 136.886 303.716 138.201 303.888 138.975Z" fill="#0B4870"/>
<path d="M315.059 152.957C315.626 153.705 316.077 154.391 316.542 155.13C316.998 155.86 317.436 156.599 317.843 157.361C318.649 158.888 319.37 160.476 319.928 162.163C320.472 163.849 320.857 165.646 320.844 167.562C320.831 168.518 320.702 169.505 320.401 170.47C320.114 171.435 319.614 172.364 318.967 173.148C318.326 173.936 317.547 174.582 316.728 175.078C315.905 175.578 315.046 175.941 314.183 176.219C313.32 176.498 312.452 176.671 311.589 176.817C310.726 176.932 309.868 177.021 309.014 177.043C305.601 177.171 302.286 176.746 299.038 176.135C298.723 176.078 298.52 175.777 298.577 175.463C298.63 175.175 298.887 174.98 299.17 174.993H299.179C300.808 175.073 302.428 175.135 304.043 175.104C305.654 175.082 307.256 174.998 308.814 174.777C310.372 174.555 311.89 174.21 313.254 173.657C314.608 173.095 315.776 172.289 316.467 171.254C317.171 170.231 317.432 168.97 317.37 167.607C317.299 166.239 316.905 164.805 316.374 163.406C315.847 161.999 315.157 160.614 314.382 159.273C313.997 158.6 313.594 157.932 313.169 157.281C312.957 156.953 312.74 156.635 312.519 156.316C312.306 156.006 312.067 155.665 311.868 155.404L311.851 155.378C311.182 154.493 311.359 153.231 312.244 152.563C313.13 151.895 314.391 152.072 315.059 152.957Z" fill="#FAB9AF"/>
<path d="M304.601 139.188C304.601 139.188 304.459 142.994 301.131 144.826C301.131 144.826 302.596 141.95 302.499 140.064C302.401 138.183 304.822 137.887 304.601 139.188Z" fill="#0B4870"/>
<path d="M291.009 212.782L289.814 218.084C289.451 219.704 289.677 221.408 290.46 222.873C290.898 223.692 290.509 224.71 289.632 225.02C286.8 226.029 281.312 227.95 281.068 227.742C279.82 226.684 283.117 224.94 285.556 223.108C287.198 221.873 287.827 216.115 287.973 211.698L290.588 212.357C290.792 212.419 290.951 212.579 291.009 212.782Z" fill="#FA968C"/>
<path d="M306.708 179.043L317.609 179.525C317.609 179.525 320.516 188.488 315.188 189.214C309.859 189.94 294.355 188.244 293.868 190.665C293.386 193.086 290.96 214.406 290.96 214.406H287.326C287.326 214.406 287.57 200.841 287.326 193.812C287.083 186.784 286.114 183.881 289.022 182.668C291.929 181.468 306.708 179.043 306.708 179.043Z" fill="#0B4870"/>
<path d="M294.125 200.128C294.125 200.128 294.749 205.44 294.921 206.334C295.063 207.073 295.576 207.657 296.059 208.232C296.214 208.418 296.329 208.781 296.426 209.091C296.506 209.339 296.44 209.6 296.293 209.812C293.664 213.521 288.601 213.928 288.579 213.588C288.535 212.977 289.522 212.039 290.642 211.742C291.77 211.441 292.624 210.516 292.97 209.401C293.244 208.516 293.288 207.573 293.098 206.665L292.186 202.589L294.125 200.128Z" fill="#FA968C"/>
<path d="M297.064 211.282C297.32 211.109 297.413 210.777 297.285 210.498C297.179 210.268 296.9 209.644 296.687 209.175C296.594 208.971 296.329 208.94 296.183 209.109C294.536 211.025 292.315 212.264 289.938 211.959C289.057 212.26 288.278 213.265 288.314 213.747C288.322 213.862 289.336 214.15 290.571 213.827C296.05 212.397 297.064 211.282 297.064 211.282Z" fill="#0B4870"/>
<path d="M300.396 180.371L293.129 182.066L294.824 204.599L292.16 205.081C292.16 205.081 285.618 189.334 285.862 182.066C286.105 174.799 291.916 176.981 295.311 177.946C298.701 178.919 300.396 180.371 300.396 180.371ZM286.114 224.621C284.941 225.006 283.657 225.13 282.48 225.276C282.347 225.294 282.215 225.347 282.108 225.427C280.98 226.303 280.409 227.184 281.073 227.742C281.338 227.967 287.787 225.684 290.301 224.781C290.827 224.59 291.058 223.984 290.792 223.488L290.314 222.59C289 223.431 287.597 224.13 286.114 224.621Z" fill="#0B4870"/>
<path d="M282.994 171.887H223.288V174.082H282.994V171.887Z" fill="#0B4870"/>
<path d="M227.43 174.082H226.213V225.016H227.43V174.082Z" fill="#76838B"/>
<path d="M279.825 174.082H278.608V225.016H279.825V174.082Z" fill="#76838B"/>
<path d="M353.175 225.056C353.175 225.928 352.467 226.631 351.6 226.631H345.514C344.642 226.631 343.939 225.923 343.939 225.056V210.862C343.939 209.99 344.647 209.286 345.514 209.286H351.6C352.472 209.286 353.175 209.994 353.175 210.862V225.056Z" fill="#DCA5E3"/>
<path opacity="0.4" d="M349.285 192.945C349.285 192.945 344.306 203.067 351.644 204.793C358.982 206.52 359.195 198.88 358.442 195.734C357.69 192.587 369.335 184.124 359.73 176.64C350.126 169.156 342.642 189.081 349.285 192.945Z" fill="#99B9FF"/>
<path opacity="0.4" d="M340.013 198.438C340.013 198.438 339.778 205.099 344.151 204.253C348.524 203.408 346.789 199.239 345.62 197.725C344.452 196.211 348.683 188.833 341.695 187.121C334.71 185.412 335.498 197.969 340.013 198.438Z" fill="#99B9FF"/>
<path d="M340.756 192.162L346.165 209.286" stroke="#4D4D4D" stroke-miterlimit="10"/>
<path d="M343.912 195.645L342.766 198.522L340.159 197.083" stroke="#4D4D4D" stroke-miterlimit="10"/>
<path d="M355.149 182.474L350.511 209.286" stroke="#4D4D4D" stroke-miterlimit="10"/>
<path d="M357.871 186.528L354.03 188.953L351.564 185.625" stroke="#4D4D4D" stroke-miterlimit="10"/>
<path d="M356.822 192.148L352.976 194.578L350.511 191.25" stroke="#4D4D4D" stroke-miterlimit="10"/>
<path d="M150.468 225.056C150.468 225.928 149.76 226.631 148.892 226.631H142.807C141.935 226.631 141.231 225.923 141.231 225.056V210.862C141.231 209.99 141.939 209.286 142.807 209.286H148.892C149.764 209.286 150.468 209.994 150.468 210.862V225.056Z" fill="#DCA5E3"/>
<path opacity="0.4" d="M146.578 192.945C146.578 192.945 141.598 203.067 148.937 204.793C156.275 206.52 156.487 198.88 155.735 195.734C154.982 192.587 166.627 184.124 157.023 176.64C147.419 169.156 139.934 189.081 146.578 192.945Z" fill="#99B9FF"/>
<path opacity="0.4" d="M137.305 198.438C137.305 198.438 137.071 205.099 141.444 204.254C145.816 203.408 144.081 199.239 142.913 197.725C141.745 196.212 145.976 188.834 138.987 187.121C131.999 185.408 132.791 197.969 137.305 198.438Z" fill="#99B9FF"/>
<path d="M138.049 192.162L143.457 209.286" stroke="#4D4D4D" stroke-miterlimit="10"/>
<path d="M141.205 195.645L140.058 198.522L137.451 197.083" stroke="#4D4D4D" stroke-miterlimit="10"/>
<path d="M152.442 182.474L147.804 209.286" stroke="#4D4D4D" stroke-miterlimit="10"/>
<path d="M155.164 186.528L151.322 188.953L148.857 185.625" stroke="#4D4D4D" stroke-miterlimit="10"/>
<path d="M154.115 192.148L150.269 194.578L147.804 191.25" stroke="#4D4D4D" stroke-miterlimit="10"/>
<path d="M242.722 102.475H204.261C203.247 102.475 202.424 103.298 202.424 104.311V117.815C202.424 118.828 203.247 119.652 204.261 119.652H206.907V125.649L214.254 119.652H242.722C243.736 119.652 244.559 118.828 244.559 117.815V104.311C244.554 103.293 243.736 102.475 242.722 102.475ZM205.203 110.521H228.108V111.295H205.203V110.521ZM240.058 114.062H205.203V113.287H240.058V114.062ZM240.058 108.64H205.203V107.865H240.058V108.64Z" fill="#DCA5E3"/>
<path d="M267.038 109.622V123.126C267.038 124.139 267.861 124.963 268.875 124.963H297.342L304.689 130.96V124.963H307.336C308.35 124.963 309.173 124.139 309.173 123.126V109.622C309.173 108.609 308.35 107.786 307.336 107.786H268.875C267.861 107.786 267.038 108.604 267.038 109.622ZM306.393 116.607H283.489V115.832H306.393V116.607ZM271.539 118.598H306.393V119.373H271.539V118.598ZM271.539 113.176H306.393V113.951H271.539V113.176Z" fill="#99B9FF"/>
<path opacity="0.4" d="M137.759 165.453C138.358 162.333 137.286 159.504 135.366 159.136C133.445 158.767 131.403 160.999 130.804 164.119C130.206 167.24 131.277 170.069 133.198 170.437C135.118 170.805 137.16 168.574 137.759 165.453Z" fill="#DCA5E3"/>
<path opacity="0.4" d="M138.184 162.682C139.567 161.299 139.393 158.884 137.796 157.287C136.199 155.69 133.783 155.516 132.4 156.899C131.018 158.281 131.192 160.697 132.789 162.294C134.386 163.891 136.801 164.065 138.184 162.682Z" fill="#DCA5E3"/>
<path opacity="0.4" d="M366.572 165.45C367.17 162.329 366.099 159.5 364.178 159.132C362.258 158.763 360.216 160.995 359.617 164.115C359.019 167.236 360.09 170.065 362.011 170.433C363.931 170.802 365.973 168.57 366.572 165.45Z" fill="#DCA5E3"/>
<path opacity="0.4" d="M367.003 162.683C368.386 161.301 368.212 158.885 366.615 157.288C365.018 155.691 362.602 155.517 361.219 156.9C359.836 158.283 360.01 160.698 361.607 162.296C363.204 163.893 365.62 164.066 367.003 162.683Z" fill="#DCA5E3"/>
<path d="M188.279 249.774H139.593C138.615 249.774 137.823 248.982 137.823 248.004C137.823 247.026 138.615 246.233 139.593 246.233H188.279C189.257 246.233 190.049 247.026 190.049 248.004C190.049 248.982 189.257 249.774 188.279 249.774ZM270.158 249.774H221.473C220.495 249.774 219.703 248.982 219.703 248.004C219.703 247.026 220.495 246.233 221.473 246.233H270.158C271.136 246.233 271.929 247.026 271.929 248.004C271.929 248.982 271.136 249.774 270.158 249.774ZM356.464 249.774H307.779C306.801 249.774 306.008 248.982 306.008 248.004C306.008 247.026 306.801 246.233 307.779 246.233H356.464C357.442 246.233 358.234 247.026 358.234 248.004C358.234 248.982 357.442 249.774 356.464 249.774ZM230.768 259.511H182.082C181.104 259.511 180.312 258.719 180.312 257.741C180.312 256.763 181.104 255.97 182.082 255.97H230.768C231.746 255.97 232.538 256.763 232.538 257.741C232.538 258.719 231.746 259.511 230.768 259.511ZM315.303 259.511H266.618C265.639 259.511 264.847 258.719 264.847 257.741C264.847 256.763 265.639 255.97 266.618 255.97H315.303C316.281 255.97 317.073 256.763 317.073 257.741C317.073 258.719 316.281 259.511 315.303 259.511Z" fill="#D3D3D3"/>
</svg>
