<svg width="478" height="281" viewBox="0 0 478 281" fill="none" xmlns="http://www.w3.org/2000/svg">
<path d="M234.215 250.437C294.567 250.437 343.492 245.99 343.492 240.504C343.492 235.019 294.567 230.572 234.215 230.572C173.862 230.572 124.937 235.019 124.937 240.504C124.937 245.99 173.862 250.437 234.215 250.437Z" fill="#EDF3FF"/>
<path opacity="0.5" d="M276.374 207.613C251.51 209.352 226.841 193.547 202.65 199.557C187.792 203.248 174.643 214.948 159.401 213.521C146.847 212.338 136.104 200.881 135.735 188.273L132.64 170.625C128.542 146.066 138.008 120.379 154.613 101.822C185.456 67.3551 247.781 49.8094 291.122 65.7593C314.255 74.2697 334.128 93.6724 339.128 117.808C347.178 156.658 316.08 204.839 276.374 207.613Z" fill="#EDF3FF"/>
<path d="M155.513 129.565C175.665 118.804 192.346 123.576 206.805 93.595C215.12 76.3107 219.308 58.9277 235.974 49.4328C236.04 49.4009 239.145 47.8968 238.95 47.9914C239.015 47.9669 242.243 46.7485 242.04 46.8251C242.103 46.8073 245.421 45.8716 245.212 45.9305C245.275 45.9181 248.652 45.2527 248.439 45.2946C249.912 45.2478 257.002 43.3641 272.146 46.8217C301.667 55.1118 328.737 74.5889 339.162 103.247C341.479 109.572 342.287 114.583 342.678 117.892C342.761 118.724 342.846 119.449 342.883 120.074C342.91 120.7 342.927 121.222 342.933 121.639C342.946 122.473 342.918 122.89 342.849 122.895C342.78 122.9 342.673 122.492 342.529 121.676C342.457 121.267 342.375 120.757 342.284 120.144C342.172 119.534 342.042 118.823 341.893 118.01C341.259 114.777 340.232 109.903 337.76 103.783C324.146 69.8498 286.727 51.4687 267.447 48.3797C254.221 45.9321 245.734 48.3939 245.797 48.3816C245.733 48.3995 242.627 49.2754 242.825 49.2195C242.762 49.2433 239.751 50.3801 239.942 50.3077C239.88 50.3381 236.989 51.7382 237.174 51.6488C216.017 63.7477 215.124 91.3781 199.952 109.381C187.812 123.682 170.654 123.959 156.346 131.174C144.478 137.144 139.615 146.125 139.463 153.416C139.32 157.585 134.957 140.511 155.513 129.565ZM328.072 179.992C320.384 197.375 308.323 214.53 290.675 221.794C262.673 233.219 247.827 214.519 230.791 205.783C200.733 190.655 196.969 218.678 168.724 208.642C159.257 205.335 151.218 197.135 148.407 186.896C148.091 185.666 147.909 184.733 147.849 184.101C147.776 183.471 147.775 183.153 147.842 183.14C147.91 183.127 148.045 183.419 148.245 184.011C148.432 184.606 148.736 185.49 149.163 186.653C153.143 196.961 160.739 203.865 169.406 206.669C196.368 215.562 200.734 187.841 231.939 203.539C249.313 212.447 263.099 230.319 289.715 219.464C307.962 212.204 318.229 195.707 327.363 179.636C329.873 175.201 330.07 175.454 328.072 179.992Z" fill="#EDF3FF"/>
<path d="M341.195 113.351V123.704C341.195 124.472 340.57 125.097 339.802 125.097H326.807C326.039 125.097 325.415 124.472 325.415 123.704V113.351C325.415 112.583 326.039 111.958 326.807 111.958H339.802C340.57 111.958 341.195 112.583 341.195 113.351Z" fill="#EDF3FF"/>
<path d="M345.803 129.493H333.458C332.6 129.493 331.903 128.799 331.903 127.945V118.697C331.903 117.843 332.6 117.148 333.458 117.148H345.803C346.657 117.148 347.352 117.843 347.352 118.697V127.945C347.352 128.799 346.657 129.493 345.803 129.493ZM333.458 117.46C332.772 117.46 332.215 118.015 332.215 118.697V127.945C332.215 128.626 332.772 129.181 333.458 129.181H345.803C346.485 129.181 347.039 128.626 347.039 127.945V118.697C347.039 118.015 346.485 117.46 345.803 117.46H333.458Z" fill="#D0DEFC"/>
<path opacity="0.5" d="M285.959 203.25C282.907 210.192 276.348 215.161 269.185 217.638C245.636 225.798 173.572 217.26 124.616 137.617C114.444 121.072 106.149 102.087 108.401 82.7997C110.304 66.5115 120.118 51.3353 134.191 42.9225C141.942 38.2845 150.897 35.7599 159.916 35.436C167.712 35.1549 174.874 38.4399 182.386 38.4597C191.41 38.4847 200.327 37.6313 209.407 38.1912C272.025 42.0395 309.035 77.1091 316.789 114.757C318.902 125.005 318.606 136.522 312.255 144.831C306.465 152.399 296.461 156.236 291.737 164.513C285.195 175.975 291.268 191.171 285.959 203.25Z" fill="#EDF3FF"/>
<path d="M153.971 209.494L153.337 212.66H207.264L206.629 209.494H153.971Z" fill="#D0DEFC"/>
<path d="M247.057 209.494L246.423 212.66H300.349L299.715 209.494H247.057Z" fill="#D0DEFC"/>
<path d="M309.592 151.953V155.356C309.592 155.89 309.16 156.323 308.626 156.323H145.268C144.735 156.323 144.302 155.89 144.302 155.356V151.953C144.302 151.419 144.735 150.986 145.268 150.986H308.626C309.16 150.986 309.592 151.419 309.592 151.953Z" fill="#FFC5C5"/>
<path d="M144.302 154.606V155.356C144.302 155.89 144.735 156.323 145.268 156.323H308.626C309.16 156.323 309.593 155.89 309.593 155.356V154.606H144.302Z" fill="#FCAFAF"/>
<path d="M303.786 162.496H150.108C148.366 162.496 146.954 161.084 146.954 159.343V156.323H306.94V159.343C306.94 161.084 305.528 162.496 303.786 162.496Z" fill="#E1EBFF"/>
<path d="M306.94 156.323H146.954V158.843H306.94V156.323Z" fill="#D0DEFC"/>
<path d="M213.663 233.738C209.741 212.537 202.424 179.459 199.671 162.496H193.825C197.577 180.394 206.353 212.938 211.06 233.738H213.663ZM150.352 233.738C155.059 212.938 163.836 180.394 167.588 162.496H161.741C158.988 179.459 151.671 212.537 147.75 233.738H150.352Z" fill="#E1EBFF"/>
<path d="M306.081 233.738C301.963 212.657 294.187 179.332 291.249 162.308L285.403 162.367C289.354 180.315 298.589 213.062 303.486 233.738H306.081V233.738ZM242.774 233.738C247.288 212.819 255.613 180.477 259.167 162.63L253.321 162.689C250.752 179.59 243.887 212.423 240.164 233.738H242.774Z" fill="#E1EBFF"/>
<path d="M274.916 147.653L269.128 111.734C268.988 110.866 268.17 110.162 267.302 110.162H215.23C214.362 110.162 213.772 110.866 213.912 111.734L219.7 147.653H274.916V147.653Z" fill="#383838"/>
<path d="M273.534 146.051H220.568L215.308 113.424C215.269 113.176 215.438 112.979 215.686 112.979H267.756C268.004 112.979 268.235 113.176 268.274 113.424L273.534 146.051Z" fill="#6ED9FF"/>
<path d="M286.35 150.792H219.528C219.226 150.792 218.98 150.547 218.98 150.244V148.2C218.98 147.898 219.226 147.653 219.528 147.653H286.35C286.652 147.653 286.898 147.898 286.898 148.2V150.244C286.898 150.547 286.652 150.792 286.35 150.792Z" fill="#D0DEFC"/>
<g opacity="0.25">
<path opacity="0.25" d="M254.892 112.98L242.864 146.051H225.418L237.458 112.98H254.892Z" fill="white"/>
<path opacity="0.25" d="M263.388 112.98L251.349 146.051H246.186L258.225 112.98H263.388Z" fill="white"/>
</g>
<path d="M256.512 127.038C256.406 126.9 256.31 126.758 256.196 126.631C255.859 126.256 255.43 126.034 254.968 125.836C254.408 125.597 254.179 125.076 254.085 124.509C254.061 124.359 254.124 124.132 254.231 124.045C254.315 123.977 254.538 124.047 254.685 124.096C254.964 124.188 255.228 124.386 255.508 124.406C256.467 124.475 257.02 125.258 257.798 125.636C258.617 126.034 259.162 126.749 259.79 127.366C260.16 127.728 260.493 128.13 260.828 128.526C261.141 128.896 261.505 129.18 261.957 129.367C262.866 129.742 263.748 130.19 264.673 130.516C265.726 130.887 266.815 131.158 267.967 131.496C267.966 133.536 267.964 135.659 267.963 137.827C267.628 137.667 267.325 137.528 267.029 137.378C265.535 136.624 264.056 135.839 262.546 135.121C261.573 134.658 260.514 134.493 259.435 134.53C258.692 134.556 257.949 134.671 257.209 134.644C256.544 134.619 255.883 134.464 255.223 134.35C254.573 134.237 253.924 134.11 253.278 133.976C252.633 133.841 251.98 133.726 251.351 133.534C250.826 133.373 250.302 132.925 250.243 132.233C250.222 131.986 249.936 131.752 249.749 131.531C249.61 131.367 249.437 131.232 249.276 131.087C249.085 130.914 249.002 130.716 249.082 130.455C249.16 130.197 249.121 130 248.85 129.837C248.28 129.493 248.026 128.927 247.868 128.304C247.841 128.196 247.741 128.101 247.66 128.013C247.38 127.708 247.452 127.391 247.846 127.257C248.362 127.082 248.832 127.228 249.28 127.49C249.359 127.536 249.432 127.614 249.516 127.626C250.161 127.715 250.807 127.821 251.456 127.86C251.743 127.877 252.036 127.738 252.329 127.689C252.976 127.582 253.624 127.486 254.272 127.385C255.001 127.272 255.731 127.159 256.512 127.038Z" fill="#FFC5C5"/>
<path d="M334.359 103.544H320.824V104.966H334.359V103.544Z" fill="#F788A8"/>
<path d="M280.869 223.418C280.869 223.418 280.887 225.572 280.923 227.972C280.973 230.985 281.057 234.391 281.182 234.451C281.41 234.557 287.796 234.38 288.997 233.358C289.419 232.997 289.58 231.627 289.607 229.999C289.65 227.751 289.441 225.011 289.336 223.772C289.298 223.352 289.273 223.104 289.273 223.104L287.474 223.17L280.869 223.418Z" fill="#FFC5C5"/>
<path d="M280.869 223.418C280.869 223.418 280.887 225.572 280.923 227.972C283.857 226.642 287.467 227.73 289.607 229.999C289.65 227.75 289.441 225.011 289.336 223.772C288.783 223.593 288.14 223.383 287.474 223.17L280.869 223.418Z" fill="#FCAFAF"/>
<path d="M267.087 241.305C267.589 241.374 288.502 240.679 289.351 240.355C290.203 240.032 290.038 238.527 290.038 238.527L266.902 239.525C266.902 239.525 266.588 241.236 267.087 241.305Z" fill="#D0DEFC"/>
<path d="M266.903 239.527C267.258 239.854 290.037 238.527 290.037 238.527C291.738 236.096 290.273 232.203 289.778 231.279C289.697 231.126 289.643 231.056 289.631 231.081C288.617 233.332 282.121 234.552 281.969 233.849C281.819 233.146 281.159 230.516 280.347 230.798C279.535 231.081 272.028 235.914 269.542 236.899C268.372 237.362 267.642 237.899 267.233 238.37C266.77 238.903 266.716 239.353 266.903 239.527Z" fill="#383838"/>
<path d="M266.903 239.526C267.258 239.854 290.037 238.527 290.037 238.527C291.738 236.096 290.273 232.203 289.778 231.279C289.909 232.84 289.129 234.411 287.91 235.511C286.628 236.669 284.908 237.348 283.155 237.696C281.4 238.044 279.596 238.088 277.802 238.129C274.28 238.211 270.757 238.29 267.233 238.37C266.77 238.903 266.716 239.353 266.903 239.526Z" fill="#2B2B2B"/>
<path d="M296.374 170.963C296.374 170.963 301.541 171.097 308.271 170.758L280.561 162.762C277.436 180.669 280.341 227.002 280.341 227.002L283.194 226.84L283.571 226.818L289.746 226.472C289.746 226.472 293.326 177.697 296.374 170.963Z" fill="#2B2B2B"/>
<path d="M264.76 225.688C264.76 225.688 264.778 227.842 264.814 230.242C264.865 233.255 264.948 236.661 265.074 236.721C265.301 236.827 271.687 236.65 272.888 235.628C273.31 235.267 273.472 233.897 273.498 232.269C273.542 230.021 273.332 227.281 273.228 226.042C273.189 225.622 273.164 225.374 273.164 225.374L271.365 225.44L264.76 225.688Z" fill="#FFC5C5"/>
<path d="M264.76 225.688C264.76 225.688 264.778 227.842 264.814 230.242C267.748 228.912 271.358 230 273.498 232.269C273.542 230.02 273.332 227.281 273.228 226.042C272.674 225.863 272.032 225.653 271.365 225.44L264.76 225.688Z" fill="#FCAFAF"/>
<path d="M250.978 243.576C251.481 243.645 272.393 242.949 273.242 242.626C274.094 242.302 273.929 240.798 273.929 240.798L250.794 241.796C250.794 241.796 250.479 243.507 250.978 243.576Z" fill="#D0DEFC"/>
<path d="M250.794 241.797C251.149 242.124 273.928 240.797 273.928 240.797C275.629 238.366 274.165 234.473 273.67 233.549C273.589 233.396 273.534 233.326 273.522 233.351C272.508 235.602 266.013 236.822 265.86 236.119C265.71 235.416 265.05 232.786 264.238 233.068C263.426 233.351 255.919 238.184 253.433 239.17C252.264 239.632 251.533 240.169 251.124 240.64C250.662 241.173 250.607 241.624 250.794 241.797Z" fill="#383838"/>
<path d="M250.794 241.797C251.149 242.124 273.928 240.797 273.928 240.797C275.629 238.366 274.165 234.473 273.67 233.549C273.8 235.11 273.02 236.681 271.802 237.781C270.519 238.939 268.799 239.618 267.046 239.966C265.292 240.314 263.487 240.358 261.693 240.399C258.171 240.481 254.649 240.56 251.124 240.64C250.662 241.173 250.607 241.623 250.794 241.797Z" fill="#2B2B2B"/>
<path d="M293.611 159.892C286.09 172.466 275.748 209.149 272.911 219.521L273.276 219.62C276.088 209.403 286.526 172.5 293.907 160.095L293.611 159.892Z" fill="white"/>
<path d="M327.637 178.982C319.267 185.466 287.012 176.666 287.012 176.666C283.233 182.69 273.787 230.716 273.787 230.716L267.762 229.598L267.393 229.53L264.61 229.016C264.61 229.016 268.522 164.622 275.542 158.906C282.558 153.194 319.404 155.202 319.404 155.202C323.968 155.818 327.408 158.273 329.532 161.462C329.783 161.833 330.015 162.217 330.229 162.614C333.193 168.069 332.603 175.131 327.637 178.982Z" fill="#4F5CD3"/>
<path d="M329.532 161.462C327.489 159.812 324.982 158.716 322.209 158.336H322.198C320.69 158.251 285.209 156.391 278.219 162.082C271.973 167.166 268.241 216.908 267.393 229.53L267.762 229.598C268.614 217.195 272.393 167.339 278.433 162.424C285.29 156.842 321.509 158.72 322.173 158.758C325.307 159.184 328.09 160.559 330.229 162.614C330.015 162.217 329.783 161.833 329.532 161.462Z" fill="white"/>
<path d="M333.914 98.2529V103.863L322.088 104.539L322.281 98.9287C322.281 98.9287 320.716 99.6274 317.385 97.8897C314.054 96.152 314.702 91.4952 314.702 91.4952C314.702 91.4952 313.303 91.5435 313.158 90.6263C313.013 89.7092 314.365 88.4059 314.365 87.5371C314.365 86.6682 313.544 81.4069 315.668 79.7657C317.792 78.1245 332.852 82.1792 332.659 86.4269C332.466 90.6746 333.914 98.2529 333.914 98.2529Z" fill="#FFC5C5"/>
<path d="M327.965 77.9937C327.965 77.9937 331.264 74.613 334.405 75.2077C334.592 75.8937 335.552 80.6563 335.633 81.3812C335.889 83.6769 335.979 86.0094 336.101 88.3157C336.264 91.407 336.226 94.4744 335.844 97.5088C335.155 98.1509 334.5 98.6073 333.973 98.6883C331.804 99.022 325.045 99.7731 323.96 95.1835C322.875 90.594 323.351 89.5092 323.351 89.5092C323.351 89.5092 326.463 89.1754 325.962 86.5052C325.462 83.8349 322.875 86.1714 322.875 86.1714C322.875 86.1714 322.958 87.1727 321.874 86.7555C320.836 86.3564 320.881 76.3514 320.881 75.1375C320.881 73.9693 327.965 77.9937 327.965 77.9937Z" fill="#2E34A5"/>
<path d="M337.988 93.5523C337.746 94.3752 337.401 95.1678 336.99 95.9242C336.355 97.092 335.205 98.7438 333.62 98.9314C332.464 99.0645 331.363 98.3929 330.564 97.5518C329.856 96.8015 329.318 95.906 328.833 94.9984C328.531 94.4297 328.253 93.8427 327.986 93.2558V79.8595C323.932 80.7127 314.85 82.2919 311.801 80.5977C310.426 79.826 309.898 78.4696 309.833 77.018C309.782 75.8753 310.552 74.8922 311.634 74.5218C311.699 74.4994 311.76 74.4756 311.813 74.4502C312.938 73.9117 313.041 72.3022 313.967 71.4551C314.542 70.9287 315.359 70.7774 316.133 70.6987C317.113 70.6019 318.106 70.6019 319.062 70.372C319.381 70.2945 319.699 70.1884 319.999 70.0496C320.731 69.712 321.526 69.5253 322.332 69.5249C322.337 69.5249 322.342 69.5249 322.347 69.5249C324.507 69.5249 326.667 69.7367 328.803 70.2026C332.422 70.9892 335.423 73.5668 336.633 77.0641C337.631 79.9382 338.267 83.0906 338.472 85.3052C338.726 88.0582 338.781 90.8537 337.988 93.5523Z" fill="#2E34A5"/>
<path d="M316.845 88.2341C317.204 88.2341 317.494 87.9436 317.494 87.5853C317.494 87.227 317.204 86.9365 316.845 86.9365C316.487 86.9365 316.197 87.227 316.197 87.5853C316.197 87.9436 316.487 88.2341 316.845 88.2341Z" fill="#121C7C"/>
<path d="M318.26 95.0911C317.515 95.5558 316.687 95.3407 316.288 95.1122C316.174 95.0469 316.135 94.9017 316.2 94.7875C316.264 94.6729 316.41 94.6335 316.524 94.6979C316.569 94.7228 317.62 95.2991 318.412 94.3218C318.494 94.2194 318.645 94.2037 318.747 94.2866C318.849 94.3696 318.865 94.5196 318.782 94.6222C318.618 94.825 318.442 94.978 318.26 95.0911Z" fill="white"/>
<path d="M315.631 85.1914C316.295 84.6164 317.147 84.7001 317.576 84.8638C317.699 84.9105 317.76 85.048 317.714 85.1709C317.668 85.2941 317.53 85.3557 317.407 85.3099C317.359 85.2922 316.231 84.8865 315.601 85.9749C315.535 86.0889 315.389 86.1278 315.275 86.0618C315.161 85.9957 315.122 85.8501 315.188 85.7358C315.319 85.51 315.469 85.3314 315.631 85.1914Z" fill="#121C7C"/>
<path d="M321.554 103.598V104.615C321.554 104.89 321.778 105.124 322.079 105.157C325.587 105.54 329.667 105.45 334.076 105.096C334.734 105.096 334.734 101.925 334.076 101.925C329.779 101.976 325.697 102.282 322.016 103.064C321.744 103.121 321.554 103.343 321.554 103.598Z" fill="#D0DEFC"/>
<path d="M333.609 188.819L342.37 241.769H340.687L331.927 188.819H333.609Z" fill="#D0DEFC"/>
<path d="M329.712 184.442L330.26 187.501C330.39 188.227 331.087 188.819 331.814 188.819H333.716C334.449 188.819 334.935 188.227 334.805 187.501L334.257 184.442C334.126 183.709 333.428 183.118 332.696 183.118H330.793C330.067 183.118 329.581 183.709 329.712 184.442Z" fill="#D0DEFC"/>
<path d="M296.807 188.819L288.047 241.769H289.73L298.489 188.819H296.807Z" fill="#D0DEFC"/>
<path d="M300.704 184.442L300.156 187.501C300.026 188.227 299.329 188.819 298.603 188.819H296.7C295.967 188.819 295.482 188.227 295.612 187.501L296.159 184.442C296.29 183.709 296.988 183.118 297.721 183.118H299.623C300.35 183.118 300.835 183.709 300.704 184.442Z" fill="#D0DEFC"/>
<path d="M285.168 179.451C285.618 181.589 287.418 183.176 289.574 183.537C298.108 184.971 325.734 189.015 340.284 184.047C357.63 178.125 356.12 146.181 353.088 134.752C350.056 123.322 340.693 123.044 340.284 123.05C322.518 123.322 324.857 145.767 322.246 159.263C319.628 172.759 297.32 171.243 289.337 173.861C285.34 175.17 284.753 177.473 285.168 179.451Z" fill="#D0DEFC"/>
<path d="M293.611 159.892C286.09 172.466 275.748 209.149 272.91 219.521L273.276 219.62C276.088 209.403 286.525 172.5 293.906 160.095L293.611 159.892Z" fill="white"/>
<path d="M327.637 178.982C319.267 185.466 287.012 176.666 287.012 176.666C283.233 182.69 273.787 230.716 273.787 230.716L267.762 229.598L267.393 229.53L264.609 229.016C264.609 229.016 268.521 164.622 275.542 158.906C282.558 153.194 319.403 155.202 319.403 155.202C323.968 155.818 327.408 158.273 329.532 161.462C329.782 161.833 330.015 162.217 330.229 162.614C333.193 168.069 332.603 175.131 327.637 178.982Z" fill="#383838"/>
<path d="M334.359 103.544C335.684 103.472 337.015 103.393 338.346 103.266C339.986 103.363 341.002 103.424 341.008 103.424C346.769 103.581 351.016 113.528 350.768 119.288L349.207 154.697C349.11 154.963 348.959 155.078 348.959 155.133C349.068 158.951 310.664 160.004 310.555 156.192L310.513 151.157L310.186 145.712L309.702 147.17C308.807 149.839 306.314 151.563 303.609 151.563C303.089 151.563 302.568 151.496 302.042 151.363L263.529 137.265L266.324 130.01L299.398 137.459L307.433 113.347C308.371 110.545 313.877 106.582 317.635 105.977C318.675 105.571 319.746 105.233 320.823 104.966" fill="#AA9AD1"/>
<path d="M321.554 103.598V104.615C321.554 104.89 321.778 105.124 322.079 105.157C325.587 105.54 329.667 105.45 334.076 105.096C334.734 105.096 334.734 101.925 334.076 101.925C329.779 101.976 325.697 102.282 322.016 103.064C321.744 103.121 321.554 103.343 321.554 103.598Z" fill="#D0DEFC"/>
<path d="M329.532 161.462C327.489 159.812 324.982 158.716 322.209 158.336H322.198C320.69 158.251 285.209 156.391 278.219 162.082C271.973 167.166 268.241 216.908 267.393 229.53L267.762 229.598C268.614 217.195 272.393 167.339 278.433 162.424C285.29 156.842 321.509 158.72 322.173 158.758C325.307 159.184 328.09 160.559 330.229 162.614C330.015 162.217 329.783 161.833 329.532 161.462Z" fill="#1F2123"/>
<path d="M327.965 77.9937C327.965 77.9937 331.264 74.613 334.405 75.2077C334.592 75.8937 335.552 80.6563 335.632 81.3812C335.889 83.6769 335.979 86.0094 336.101 88.3157C336.264 91.407 336.225 94.4744 335.844 97.5088C335.155 98.1509 334.5 98.6073 333.973 98.6883C331.804 99.022 325.044 99.7731 323.96 95.1835C322.875 90.594 323.351 89.5092 323.351 89.5092C323.351 89.5092 326.463 89.1754 325.962 86.5052C325.462 83.8349 322.875 86.1714 322.875 86.1714C322.875 86.1714 322.884 86.4738 321.799 86.0566C320.762 85.6575 320.881 76.3514 320.881 75.1375C320.881 73.9693 327.965 77.9937 327.965 77.9937Z" fill="#1F2123"/>
<path d="M337.988 93.5523C337.746 94.3752 337.401 95.1678 336.99 95.9242C336.355 97.092 335.205 98.7438 333.62 98.9314C332.464 99.0645 331.363 98.3929 330.564 97.5518C329.856 96.8015 329.318 95.906 328.833 94.9984C328.531 94.4297 328.253 93.8427 327.986 93.2558V79.8595C323.932 80.7127 314.85 82.2919 311.801 80.5977C310.426 79.826 309.898 78.4696 309.833 77.018C309.782 75.8753 310.552 74.8922 311.634 74.5218C311.699 74.4994 311.76 74.4756 311.813 74.4502C312.938 73.9117 313.041 72.3022 313.967 71.4551C314.542 70.9287 315.359 70.7774 316.133 70.6987C317.113 70.6019 318.106 70.6019 319.062 70.372C319.381 70.2945 319.699 70.1884 319.999 70.0496C320.731 69.712 321.526 69.5253 322.332 69.5249C322.337 69.5249 322.342 69.5249 322.347 69.5249C324.507 69.5249 326.667 69.7367 328.803 70.2026C332.422 70.9892 335.423 73.5668 336.633 77.0641C337.631 79.9382 338.267 83.0906 338.472 85.3052C338.726 88.0582 338.781 90.8537 337.988 93.5523Z" fill="#1F2123"/>
<path d="M333.609 188.819L342.369 241.769H340.687L331.927 188.819H333.609Z" fill="#D0DEFC"/>
<path d="M329.712 184.442L330.259 187.501C330.389 188.227 331.087 188.819 331.813 188.819H333.716C334.449 188.819 334.934 188.227 334.804 187.501L334.257 184.442C334.125 183.709 333.428 183.118 332.695 183.118H330.792C330.066 183.118 329.581 183.709 329.712 184.442Z" fill="#D0DEFC"/>
<path d="M296.807 188.819L288.046 241.769H289.729L298.489 188.819H296.807Z" fill="#D0DEFC"/>
<path d="M300.704 184.442L300.156 187.501C300.026 188.227 299.329 188.819 298.603 188.819H296.7C295.967 188.819 295.481 188.227 295.611 187.501L296.159 184.442C296.29 183.709 296.988 183.118 297.72 183.118H299.623C300.349 183.118 300.835 183.709 300.704 184.442Z" fill="#D0DEFC"/>
<path d="M285.168 179.451C285.618 181.589 287.418 183.176 289.574 183.537C298.107 184.971 325.734 189.015 340.284 184.047C357.63 178.125 356.12 146.181 353.088 134.752C350.055 123.322 340.693 123.044 340.284 123.05C322.518 123.322 324.857 145.767 322.246 159.263C319.628 172.759 297.32 171.243 289.337 173.861C285.34 175.17 284.753 177.473 285.168 179.451Z" fill="#D0DEFC"/>
<path d="M264.768 138.802C265.263 139.03 265.838 138.797 266.046 138.302C267.086 135.753 269.297 130.519 268.536 129.779C268.418 129.657 268.213 129.55 267.963 129.449C267.189 129.136 265.952 128.882 265.307 128.576C265.01 128.43 264.665 128.764 264.56 129.081C263.933 130.879 262.885 134.696 262.346 136.71C262.243 137.08 262.191 137.315 262.214 137.367C262.317 137.632 263.778 138.345 264.768 138.802Z" fill="#E1EBFF"/>
<path d="M264.768 138.802C265.263 139.03 265.838 138.797 266.046 138.302C267.086 135.753 269.297 130.519 268.536 129.779C268.418 129.657 268.213 129.55 267.963 129.449C267.061 132.292 266.556 132.797 264.524 134.989C263.893 135.676 263.191 136.326 262.346 136.71C262.243 137.08 262.191 137.315 262.214 137.367C262.317 137.632 263.778 138.345 264.768 138.802Z" fill="#D0DEFC"/>
<path d="M314.654 128.458L309.883 145.628L310.484 145.795L315.255 128.625L314.654 128.458Z" fill="#E6A4EF"/>
<path d="M144.248 222.848C143.046 221.272 141.736 219.752 140.354 218.33C136.151 214.008 131.157 210.453 126.327 207.015L126.552 206.699C131.396 210.147 136.405 213.712 140.632 218.06C142.024 219.492 143.345 221.024 144.556 222.613L144.248 222.848Z" fill="#3FC4BD"/>
<path d="M140.842 218.558C138.261 217.991 135.156 217.427 133.199 215.672C131.373 214.038 130.269 211.672 128.239 210.293C127.609 209.865 126.89 209.532 126.411 208.943C125.931 208.355 125.804 207.383 126.395 206.904C132.54 211.193 139.008 215.228 140.842 218.558Z" fill="#3FC4BD"/>
<path d="M148.565 226.234C147.177 221.88 145.561 218.24 143.623 215.106C141.33 211.396 138.581 208.397 135.452 206.19L135.675 205.873C138.847 208.11 141.632 211.148 143.953 214.902C145.908 218.063 147.537 221.732 148.934 226.116L148.565 226.234Z" fill="#E6A4EF"/>
<path d="M139.605 208.418C138.682 209.701 136.832 209.319 135.258 209.185C133.65 209.047 132.116 207.763 130.734 206.969C131.734 206.406 132.82 206.44 133.82 205.877C132.649 205.461 131.334 205.462 130.164 205.883C129.095 204.591 128.027 203.299 126.957 202.008C127.899 201.898 128.84 201.789 129.78 201.679C128.526 201.732 127.33 201.046 126.478 200.122C125.62 199.193 125.06 198.047 124.506 196.924C124.237 196.381 122.712 194.166 123.698 193.989C124.084 193.919 125.086 194.661 125.454 194.835C126.05 195.119 126.652 195.388 127.256 195.653C128.303 196.11 129.358 196.553 130.4 197.023C130.62 197.121 130.839 197.221 131.057 197.323C133.782 198.594 136.499 200.245 138.307 202.586C138.323 202.606 138.339 202.628 138.356 202.65C138.829 203.273 139.239 203.944 139.568 204.67C139.812 205.209 139.998 205.808 140.06 206.402C140.135 207.123 140.025 207.835 139.605 208.418Z" fill="#3FC4BD"/>
<path d="M138.249 202.586C136.563 202.523 134.874 202.459 133.188 202.395C131.493 200.704 130.041 198.789 128.664 196.819C128.733 196.824 128.803 196.832 128.872 196.838C129.365 196.886 129.854 196.949 130.343 197.023C130.562 197.121 130.781 197.221 130.999 197.323C133.724 198.594 136.442 200.245 138.249 202.586ZM140.002 206.402C138.113 205.631 135.88 204.587 134.397 203.476C135.72 203.315 137.026 203.055 138.298 202.65C138.772 203.273 139.181 203.944 139.51 204.67C139.754 205.209 139.94 205.808 140.002 206.402Z" fill="#AA9AD1"/>
<path d="M148.952 223.096C148.937 222.99 147.395 212.383 146.132 200.972C144.457 185.861 144.029 176.5 144.861 173.151L144.865 173.135C144.889 173.037 144.915 172.945 144.942 172.856L145.314 172.968C145.288 173.054 145.262 173.144 145.238 173.241L145.234 173.256C144.429 176.527 144.873 186.095 146.518 200.929C147.78 212.333 149.321 222.934 149.336 223.04L148.952 223.096Z" fill="#E6A4EF"/>
<path d="M147.919 193.271C147.388 195.83 146.856 198.391 146.325 200.95C145.061 189.546 144.055 177.199 145.049 173.197L145.05 173.194L145.222 172.86C144.816 175.128 144.992 177.497 145.728 179.68C146.54 182.087 148.018 184.279 148.443 186.784C148.807 188.936 148.363 191.134 147.919 193.271Z" fill="#E6A4EF"/>
<path d="M161.786 204.635C163.51 203.577 165.497 203.054 167.394 202.351C169.29 201.648 171.195 200.689 172.369 199.042C171.837 201.329 170.387 203.305 168.71 204.949C167.034 206.592 165.112 207.962 163.343 209.505C161.018 211.533 158.956 213.862 157.221 216.412C154.967 219.724 153.265 223.411 152.207 227.276C152.421 226.496 152.244 225.424 152.342 224.6C152.451 223.686 152.624 222.779 152.858 221.888C153.333 220.082 154.056 218.336 155.01 216.73C155.645 215.663 156.519 214.746 156.811 213.513C157.2 211.862 157.271 210.317 158.054 208.761C158.897 207.084 160.182 205.62 161.786 204.635ZM177.963 165.417C177.96 165.443 177.957 165.467 177.954 165.492C176.978 165.571 176.005 165.696 175.04 165.868C175.986 165.951 176.929 166.062 177.868 166.196C177.678 167.646 177.391 169.083 177.031 170.501C173.428 171.608 170.113 173.657 167.529 176.404C170.323 174.647 173.357 173.278 176.52 172.336C176.495 172.422 176.468 172.508 176.442 172.593C175.785 174.727 174.984 176.807 174.105 178.859C170.728 179.187 167.427 180.33 164.591 182.197C167.222 181.55 170.453 180.834 173.35 180.575C172.561 182.334 171.728 184.075 170.896 185.811C170.602 186.424 170.308 187.039 170.011 187.651L169.995 187.653C166.082 188.319 162.339 189.963 159.199 192.392C162.521 191.466 165.687 190.026 169.032 189.189C169.117 189.169 169.202 189.147 169.287 189.128C167.945 191.828 166.501 194.476 164.715 196.891C162.542 197.301 160.368 197.713 158.196 198.124C159.925 198.418 161.668 198.505 163.417 198.456C160.111 201.808 152.936 205.385 152.864 205.418L152.863 205.42C150.184 203.047 148.932 199.597 148.616 196.027C150.619 193.85 152.621 191.672 154.623 189.495C152.903 189.854 150.658 191.539 148.551 193.291C148.724 189.26 150.2 185.348 152.289 181.888C152.341 181.802 152.394 181.715 152.447 181.629C154.645 181.965 156.841 182.304 159.038 182.642C157.238 181.666 155.378 180.805 153.469 180.063C154.408 178.699 155.432 177.397 156.508 176.135C157.491 177.434 158.473 178.731 159.455 180.029C158.784 178.271 158.241 176.463 157.831 174.625C158.646 173.72 159.48 172.833 160.321 171.956C161.276 170.959 162.241 169.973 163.23 169.011C163.936 170.73 164.642 172.451 165.348 174.17C165.079 172.033 164.81 169.898 164.541 167.761C165.014 167.32 165.493 166.886 165.979 166.46C167.377 165.233 168.831 164.069 170.361 163.015C170.78 163.695 171.199 164.374 171.617 165.053C171.539 164.147 171.461 163.241 171.382 162.335C171.495 162.261 171.607 162.19 171.721 162.119C173.104 161.25 175.167 159.75 176.927 160.289C178.857 160.88 178.121 163.943 177.963 165.417Z" fill="#3FC4BD"/>
<path d="M151.349 224.745C150.349 218.347 150.989 211.115 153.25 203.25C155.075 196.902 157.96 190.112 161.825 183.07C168.059 171.713 175.038 163 177.028 160.601C177.085 160.533 177.118 160.492 177.128 160.48L177.253 160.577L177.452 160.692C177.441 160.711 177.441 160.711 177.327 160.848C172.329 166.874 147.605 198.271 151.732 224.685L151.349 224.745Z" fill="#E6A4EF"/>
<path d="M153.02 205.534L152.862 205.418L152.676 205.371C156.953 188.54 166.815 173.886 177.128 160.479L177.253 160.576L177.452 160.692C177.132 161.241 159.029 181.944 153.052 205.466L153.043 205.503L153.02 205.534Z" fill="#EDF3FF"/>
<path d="M121.388 177.453C121.393 177.473 121.399 177.491 121.404 177.511C122.183 177.457 122.964 177.441 123.745 177.461C123.009 177.64 122.28 177.839 121.555 178.056C121.877 179.176 122.273 180.275 122.726 181.35C125.697 181.795 128.553 183.016 130.915 184.875C128.504 183.822 125.951 183.103 123.346 182.735C123.376 182.8 123.407 182.865 123.438 182.929C124.209 184.532 125.087 186.077 126.023 187.59C128.724 187.448 131.461 187.958 133.918 189.093C131.767 188.895 129.136 188.713 126.821 188.853C127.652 190.146 128.516 191.42 129.377 192.689C129.681 193.138 129.986 193.587 130.293 194.034H130.306C133.469 194.095 136.614 194.946 139.377 196.489C136.649 196.153 133.983 195.394 131.247 195.131C131.178 195.125 131.108 195.117 131.039 195.112C132.417 197.082 133.869 198.998 135.563 200.689C137.324 200.755 139.087 200.822 140.848 200.888C139.519 201.325 138.156 201.6 136.772 201.769C139.775 204.019 145.854 205.987 145.915 206.005L145.916 206.006C147.747 203.818 148.324 200.95 148.15 198.099C146.313 196.62 144.477 195.141 142.64 193.662C144.039 193.742 146.008 194.803 147.876 195.935C147.262 192.778 145.635 189.87 143.578 187.39C143.526 187.328 143.475 187.266 143.422 187.205C141.73 187.73 140.039 188.258 138.348 188.784C139.65 187.802 141.015 186.903 142.431 186.091C141.529 185.128 140.568 184.223 139.57 183.356C138.949 184.496 138.329 185.635 137.709 186.775C138.029 185.309 138.242 183.82 138.348 182.323C137.598 181.706 136.836 181.106 136.069 180.514C135.198 179.842 134.32 179.179 133.427 178.538C133.074 179.977 132.722 181.417 132.369 182.855C132.328 181.14 132.287 179.425 132.245 177.709C131.82 177.417 131.391 177.132 130.957 176.853C129.71 176.053 128.426 175.307 127.095 174.658C126.845 175.243 126.596 175.829 126.346 176.413C126.301 175.69 126.255 174.966 126.209 174.243C126.111 174.198 126.015 174.155 125.917 174.113C124.723 173.592 122.92 172.655 121.596 173.288C120.145 173.983 121.088 176.31 121.388 177.453Z" fill="#3FC4BD"/>
<path d="M149.442 221.058L149.054 221.056C149.176 199.313 124.173 176.352 121.321 173.806C121.213 173.709 121.213 173.709 121.2 173.693L121.351 173.571L121.488 173.434C121.497 173.443 121.528 173.471 121.58 173.516C123.434 175.172 129.97 181.213 136.233 189.428C140.116 194.523 143.197 199.535 145.39 204.324C148.108 210.261 149.471 215.891 149.442 221.058Z" fill="#E6A4EF"/>
<path d="M145.779 206.143L145.752 206.116L145.736 206.08C139.024 190.123 124.222 176.396 121.323 173.806C121.213 173.708 121.213 173.708 121.2 173.692L121.351 173.571L121.488 173.434C121.497 173.443 121.529 173.471 121.581 173.517C124.491 176.116 139.349 189.895 146.094 205.929L145.917 206.004L145.779 206.143Z" fill="#EDF3FF"/>
<path d="M161.111 222.412V236.203C161.111 240.277 157.808 243.58 153.732 243.58H144.012C139.937 243.58 136.634 240.277 136.634 236.203V222.412H161.111Z" fill="#FFC5C5"/>
<path d="M161.271 222.412H136.475C135.914 222.412 135.458 221.956 135.458 221.395V221.09C135.458 220.529 135.914 220.073 136.475 220.073H161.271C161.833 220.073 162.288 220.529 162.288 221.09V221.395C162.288 221.956 161.833 222.412 161.271 222.412Z" fill="#FFC5C5"/>
<path d="M161.111 222.412V236.203C161.111 240.277 157.808 243.58 153.732 243.58H149.755C150.151 243.081 150.542 242.58 150.917 242.069C152.493 239.925 153.845 237.422 153.718 234.763C153.582 231.897 151.665 229.299 149.174 227.872C146.684 226.443 143.7 226.069 140.839 226.301C139.42 226.416 138.019 226.672 136.634 226.998V222.412H161.111V222.412Z" fill="#FCAFAF"/>
<path d="M225.343 88.9967C229.203 88.9967 232.333 85.8671 232.333 82.0066C232.333 78.1461 229.203 75.0166 225.343 75.0166C221.482 75.0166 218.353 78.1461 218.353 82.0066C218.353 85.8671 221.482 88.9967 225.343 88.9967Z" fill="#3FC4BD"/>
<path d="M223.238 82.0064C223.238 82.5735 222.779 83.0333 222.211 83.0333C221.644 83.0333 221.185 82.5735 221.185 82.0064C221.185 81.4393 221.644 80.9795 222.211 80.9795C222.779 80.9795 223.238 81.4393 223.238 82.0064ZM226.369 82.0064C226.369 82.5735 225.91 83.0333 225.343 83.0333C224.775 83.0333 224.316 82.5735 224.316 82.0064C224.316 81.4393 224.775 80.9795 225.343 80.9795C225.91 80.9795 226.369 81.4393 226.369 82.0064ZM229.501 82.0064C229.501 82.5736 229.041 83.0333 228.474 83.0333C227.906 83.0333 227.447 82.5736 227.447 82.0064C227.447 81.4393 227.906 80.9795 228.474 80.9795C229.041 80.9795 229.501 81.4393 229.501 82.0064Z" fill="white"/>
<path d="M206.813 88.9967C210.674 88.9967 213.803 85.8671 213.803 82.0066C213.803 78.1461 210.674 75.0166 206.813 75.0166C202.953 75.0166 199.823 78.1461 199.823 82.0066C199.823 85.8671 202.953 88.9967 206.813 88.9967Z" fill="#FE6B4D"/>
<path d="M208.828 85.6352C208.532 85.6319 208.275 85.5739 208.022 85.4899C207.662 85.3702 207.324 85.2024 206.999 85.0085C206.425 84.6657 205.904 84.2527 205.419 83.7932C204.911 83.3117 204.453 82.7876 204.06 82.2074C203.815 81.845 203.599 81.4664 203.434 81.0602C203.341 80.831 203.266 80.5965 203.224 80.3524C203.186 80.1357 203.174 79.9186 203.219 79.7012C203.257 79.5169 203.338 79.3559 203.474 79.2223C203.687 79.0117 203.902 78.802 204.109 78.5858C204.391 78.2924 204.861 78.3239 205.127 78.5863C205.458 78.9136 205.786 79.2443 206.115 79.5735C206.273 79.7315 206.346 79.9231 206.319 80.1439C206.285 80.4189 206.136 80.6084 205.871 80.7018C205.652 80.7788 205.505 80.9288 205.433 81.1492C205.397 81.2595 205.4 81.3706 205.429 81.4829C205.505 81.7817 205.656 82.042 205.843 82.283C206.125 82.6463 206.459 82.9514 206.857 83.1836C206.997 83.2649 207.143 83.332 207.3 83.3728C207.625 83.4573 208.003 83.2709 208.115 82.9335C208.204 82.667 208.401 82.5233 208.677 82.4922C208.896 82.4676 209.084 82.5409 209.239 82.6958C209.573 83.0289 209.907 83.3622 210.24 83.6963C210.395 83.8516 210.454 84.0412 210.431 84.2572C210.413 84.4375 210.337 84.5908 210.208 84.7188C209.996 84.9288 209.784 85.1392 209.575 85.3519C209.437 85.4924 209.269 85.5729 209.079 85.6109C208.987 85.6293 208.894 85.6332 208.828 85.6352Z" fill="#EBF3FD"/>
<path d="M187.599 88.9293C191.46 88.9293 194.589 85.7997 194.589 81.9392C194.589 78.0788 191.46 74.9492 187.599 74.9492C183.739 74.9492 180.609 78.0788 180.609 81.9392C180.609 85.7997 183.739 88.9293 187.599 88.9293Z" fill="#99B9FF"/>
<path d="M187.734 77.427C187.742 77.427 187.749 77.427 187.757 77.427C188.066 77.4663 188.339 77.5871 188.565 77.8039C188.848 78.0759 189 78.4096 189.001 78.8035C189.004 79.7588 189.005 80.7142 189.001 81.6696C188.999 82.3397 188.509 82.9134 187.85 83.0292C187.083 83.1641 186.355 82.6535 186.223 81.8878C186.208 81.8005 186.204 81.7122 186.204 81.6237C186.204 80.6985 186.201 79.7732 186.205 78.848C186.206 78.2941 186.451 77.8749 186.929 77.5946C187.093 77.4982 187.274 77.4475 187.462 77.4266C187.474 77.4266 187.485 77.4265 187.496 77.4265C187.504 77.4265 187.511 77.4265 187.519 77.4266C187.526 77.4266 187.534 77.4267 187.541 77.4269C187.583 77.4269 187.625 77.4269 187.667 77.4269C187.674 77.4267 187.682 77.4265 187.689 77.4263C187.704 77.4266 187.719 77.4268 187.734 77.427Z" fill="white"/>
<path d="M190.695 81.5932C190.694 81.6006 190.694 81.608 190.694 81.6154C190.694 81.6536 190.694 81.6917 190.694 81.7298C190.694 81.7448 190.694 81.7599 190.694 81.7748C190.695 81.7861 190.695 81.7974 190.695 81.8086C190.693 81.8237 190.691 81.8388 190.695 81.8538C190.625 83.1591 189.677 84.3424 188.33 84.6655C188.198 84.697 188.065 84.7214 187.93 84.7339C187.919 84.7349 187.908 84.7378 187.896 84.7383C187.875 84.7392 187.868 84.7495 187.869 84.7707C187.871 84.797 187.869 84.8233 187.869 84.8498C187.869 85.1846 187.869 85.5194 187.869 85.8542C187.869 85.8674 187.871 85.8807 187.869 85.8937C187.867 85.9175 187.88 85.9226 187.9 85.9219C187.915 85.9213 187.93 85.9218 187.945 85.9218C188.112 85.9218 188.28 85.9211 188.447 85.922C188.577 85.9227 188.678 85.999 188.711 86.1189C188.753 86.2751 188.644 86.4342 188.483 86.4495C188.462 86.4514 188.442 86.4522 188.421 86.4522C187.877 86.4524 187.333 86.4524 186.789 86.4523C186.746 86.4523 186.703 86.4513 186.661 86.4361C186.546 86.3939 186.478 86.282 186.49 86.1549C186.502 86.0384 186.594 85.9429 186.712 85.9258C186.735 85.9226 186.757 85.922 186.78 85.922C186.949 85.9217 187.119 85.9217 187.288 85.9218C187.346 85.9219 187.339 85.9222 187.339 85.8691C187.339 85.5116 187.339 85.1542 187.339 84.7969C187.339 84.7407 187.339 84.7399 187.282 84.7343C187.005 84.7073 186.738 84.6411 186.479 84.5407C185.51 84.1652 184.782 83.3088 184.57 82.2937C184.526 82.0832 184.502 81.8706 184.503 81.6556C184.504 81.4994 184.624 81.3843 184.777 81.3884C184.92 81.3923 185.032 81.5053 185.033 81.6505C185.035 81.8297 185.05 82.0073 185.09 82.1822C185.269 82.9716 185.718 83.557 186.431 83.9366C186.819 84.143 187.237 84.2339 187.676 84.2207C188.667 84.1907 189.486 83.6131 189.892 82.819C190.079 82.4544 190.171 82.0672 190.174 81.6578C190.174 81.5294 190.253 81.4275 190.373 81.3957C190.484 81.3663 190.605 81.4152 190.666 81.5146C190.68 81.5389 190.692 81.5644 190.695 81.5932Z" fill="white"/>
<path d="M285.194 64.916H305.445C307.696 64.916 309.414 66.7578 309.262 69.0088L309.077 71.7373C308.925 73.9883 306.959 75.8301 304.708 75.8301H284.456L280.2 78.2554L280.824 69.0088C280.976 66.7578 282.943 64.916 285.194 64.916Z" fill="white"/>
<path opacity="0.15" d="M285.194 64.916H305.445C307.696 64.916 309.414 66.7578 309.262 69.0088L309.077 71.7373C308.925 73.9883 306.959 75.8301 304.708 75.8301H284.456L280.2 78.2554L280.824 69.0088C280.976 66.7578 282.943 64.916 285.194 64.916Z" fill="#007CFF"/>
<path d="M304.417 68.8237H285.648V69.5056H304.417V68.8237Z" fill="#5AC8FA"/>
<path d="M292.901 71.2402H285.485V71.9221H292.901V71.2402Z" fill="#5AC8FA"/>
<path d="M299.457 71.2402H294.72V71.9221H299.457V71.2402Z" fill="#5AC8FA"/>
<path d="M257.397 102.366H145.855C144.537 102.366 143.468 101.297 143.468 99.9786V32.9506C143.468 31.6322 144.537 30.5635 145.855 30.5635H257.397C258.715 30.5635 259.784 31.6322 259.784 32.9506V99.9786C259.784 101.297 258.715 102.366 257.397 102.366Z" fill="#E1EBFF"/>
<path d="M259.784 42.2925V32.9506C259.784 31.6322 258.715 30.5635 257.397 30.5635H145.855C144.537 30.5635 143.468 31.6322 143.468 32.9506V42.2925H259.784Z" fill="#99B9FF"/>
<path d="M239.294 36.4283C239.294 37.7645 238.214 38.8511 236.872 38.8511C235.541 38.8511 234.461 37.7645 234.461 36.4283C234.461 35.0921 235.541 34.0054 236.872 34.0054C238.214 34.0054 239.294 35.0921 239.294 36.4283ZM247.094 36.4283C247.094 37.7645 246.007 38.8511 244.671 38.8511C243.341 38.8511 242.254 37.7645 242.254 36.4283C242.254 35.0921 243.341 34.0054 244.671 34.0054C246.007 34.0054 247.094 35.0921 247.094 36.4283ZM254.893 36.4283C254.893 37.7645 253.806 38.8511 252.47 38.8511C251.134 38.8511 250.054 37.7645 250.054 36.4283C250.054 35.0921 251.134 34.0054 252.47 34.0054C253.806 34.0054 254.893 35.0921 254.893 36.4283Z" fill="white"/>
<path d="M246.904 82.1041C243.271 80.3589 238.849 79.7803 234.559 79.7803C231.152 79.7803 227.833 80.1481 225.058 80.5893C221.053 81.2325 217.413 83.2333 214.733 86.2282V97.1165H250.063V85.1045C248.213 83.0814 246.904 82.1041 246.904 82.1041Z" fill="#99B9FF"/>
<path d="M236.623 76.8544C236.623 76.8544 236.715 77.7709 236.803 79.0404C237.003 81.8218 236.754 83.224 236.704 84.054C236.544 86.675 228.181 88.2576 227.717 80.1682C228.315 73.9922 228.157 75.0538 228.157 75.0538C228.157 75.0538 223.177 69.1423 224.557 64.7896C225.938 60.4369 238.159 55.0272 240.52 58.1966L240.49 58.425C240.563 58.6176 245.832 76.8548 236.623 76.8544Z" fill="#FBC6B8"/>
<path d="M240.522 64.1894C240.585 64.1834 240.646 64.1552 240.689 64.1063C240.775 64.0083 240.759 63.8645 240.653 63.7849C240.564 63.7179 240.466 63.6617 240.362 63.6179C239.914 63.4285 239.39 63.482 238.996 63.7569C238.91 63.8173 238.832 63.8873 238.763 63.9652C238.677 64.0632 238.693 64.207 238.8 64.2866C238.905 64.3661 239.061 64.3513 239.147 64.2532C239.19 64.2038 239.24 64.1595 239.294 64.1215C239.543 63.9479 239.874 63.9141 240.157 64.0337C240.223 64.0613 240.284 64.0969 240.341 64.1394C240.394 64.1792 240.459 64.1954 240.522 64.1894ZM232.265 65.3851C232.324 65.364 232.374 65.3221 232.402 65.2645C232.43 65.2057 232.465 65.1506 232.506 65.1008C232.696 64.8722 233.005 64.7588 233.313 64.8045C233.384 64.8153 233.454 64.8343 233.521 64.8614C233.645 64.9122 233.792 64.8598 233.847 64.744C233.901 64.6285 233.844 64.4937 233.719 64.4431C233.614 64.4003 233.504 64.3703 233.391 64.3535C232.904 64.2812 232.415 64.4607 232.115 64.8223C232.049 64.9011 231.994 64.9877 231.95 65.0798C231.895 65.1951 231.951 65.3301 232.076 65.3811C232.138 65.4067 232.206 65.4064 232.265 65.3851ZM237.051 70.3816C237.311 70.3955 237.598 70.3783 237.869 70.2948C237.959 70.2673 238.083 70.1991 238.167 70.0313C238.591 69.1828 237.575 66.1186 237.563 66.0905C237.514 65.9717 237.37 65.9104 237.244 65.9533C237.118 65.9962 237.055 66.1268 237.103 66.2455C237.343 66.8599 238.043 69.5954 237.697 69.8635C237.081 70.0521 236.298 69.7823 236.291 69.7796C236.161 69.7346 236.021 69.7939 235.975 69.9118C235.93 70.0299 235.997 70.1622 236.125 70.2072C236.151 70.2162 236.554 70.3552 237.051 70.3816Z" fill="#383838"/>
<path d="M238.527 72.479C238.509 73.4782 237.772 74.3164 236.775 74.4001C235.778 74.4838 234.889 73.782 234.677 72.8021L238.527 72.479Z" fill="#FAAD9B"/>
<path d="M233.138 66.8227C233.203 67.1295 233.436 67.3526 233.659 67.3162C233.886 67.279 234.011 66.9974 233.945 66.6907C233.878 66.3795 233.646 66.1608 233.419 66.198C233.197 66.2343 233.071 66.5116 233.138 66.8227Z" fill="#383838"/>
<path d="M239.552 65.9566C239.55 66.2677 239.731 66.5276 239.958 66.5325C240.19 66.5375 240.374 66.2855 240.376 65.9745C240.378 65.6589 240.196 65.4035 239.964 65.3985C239.737 65.3936 239.553 65.6411 239.552 65.9566Z" fill="#383838"/>
<path d="M236.803 79.0408C233.57 77.7967 232.904 75.2788 232.904 75.2788C234.449 76.3768 236.623 76.8547 236.623 76.8547C236.623 76.8547 236.715 77.7712 236.803 79.0408Z" fill="#FAAD9B"/>
<path d="M228.77 75.4993C228.9 75.5907 220.938 70.0739 221.851 63.2688C221.851 63.2688 222.225 60.7921 223.683 60.3868C223.683 60.3868 221.592 57.5126 225.746 55.4699C229.9 53.4272 238.707 51.7711 241.333 54.9689C244.254 58.5255 242.809 60.578 235.623 61.2233C233.833 61.5308 230.486 60.748 230.486 60.748C230.486 60.748 231.216 62.998 230.474 63.9104C229.733 64.8227 228.6 64.9599 228.56 66.177C228.521 67.3941 228.527 68.8837 228.527 68.8837C228.527 68.8837 227.356 65.3133 225.812 66.0523C224.268 66.7913 223.341 69.3953 226.817 70.558C226.817 70.558 227.072 74.3118 228.77 75.4993Z" fill="#591D1D"/>
<path d="M227.412 55.6802C229.025 54.5736 231.409 54.4071 233.043 55.4864C232.96 54.9297 233.196 54.363 233.564 53.9161C233.933 53.4691 234.425 53.1246 234.921 52.8004C236.236 51.9418 237.662 51.171 239.239 50.8729C240.816 50.5748 242.576 50.8097 243.798 51.7791C245.052 52.7744 245.564 54.428 245.323 55.9403C245.082 57.4526 244.166 58.822 242.992 59.8977C242.141 60.6766 241.092 61.3432 239.902 61.4616C237.951 61.6557 236.109 60.3555 234.153 60.4973C231.942 60.6574 230.143 62.617 227.932 62.4644C226.517 62.3667 224.615 61.4161 224.896 59.9177C225.2 58.2954 225.948 56.6843 227.412 55.6802Z" fill="#591D1D"/>
<path d="M166.35 59.4868C164.915 69.0063 161.117 78.152 155.438 85.923V87.3527H164.807C165.786 86.8635 166.739 86.3221 167.658 85.7271C172.38 82.6702 176.211 78.2524 178.567 73.1445L166.35 59.4868Z" fill="#061437"/>
<path d="M192.294 77.6927C189.471 74.233 187.888 69.7597 187.918 65.2913H184.735V63.9653L172.657 68.4374C172.629 71.9129 173.287 75.5283 175.367 78.3161C176.804 80.2434 178.875 81.6806 181.169 82.4053C183.467 83.1219 185.971 83.126 188.285 82.463C188.804 82.3146 189.314 82.1336 189.813 81.9359C189.22 80.4534 188.73 78.9339 188.343 77.3855C189.277 78.5386 190.22 79.704 191.373 80.6387C191.534 80.7705 191.699 80.8982 191.872 81.0217C192.012 80.9555 192.153 80.8907 192.294 80.8245V77.6927V77.6927Z" fill="#061437"/>
<path d="M165.747 61.4506C165.752 61.4303 165.756 61.4098 165.761 61.3894C166.213 60.0248 166.734 58.4617 167.373 56.9931C168.782 53.7571 173.167 49.5293 180.317 51.0429C187.468 52.5565 187.886 59.916 188.042 66.7535C188.066 67.7741 188.179 68.7046 188.342 69.566H164.306C165.211 66.9248 165.471 64.2551 165.747 61.4506Z" fill="#061437"/>
<path d="M170.886 65.4483C170.922 65.9235 170.896 72.0414 170.413 79.186L177.376 79.6093L177.887 72.9762C177.887 72.9762 181.895 73.4369 183.001 69.2444C184.106 65.0517 184.198 56.4821 183.922 55.745C183.646 55.0078 176.412 51.276 172.819 54.7775C169.225 58.2791 169.409 62.1031 169.271 62.8863C169.138 63.6412 168.883 65.6731 170.886 65.4483Z" fill="#FFC5C5"/>
<path d="M181.48 61.855C181.528 61.8601 181.579 61.8465 181.621 61.813C181.703 61.746 181.716 61.6249 181.649 61.5425C181.592 61.4732 181.527 61.4113 181.456 61.3587C181.147 61.1314 180.738 61.0923 180.391 61.2562C180.315 61.2922 180.243 61.3375 180.178 61.3907C180.095 61.4578 180.083 61.5789 180.15 61.6613C180.217 61.7435 180.338 61.7562 180.421 61.689C180.462 61.6552 180.507 61.6266 180.556 61.6039C180.775 61.5004 181.033 61.5252 181.228 61.6687C181.273 61.7019 181.314 61.741 181.35 61.785C181.384 61.8263 181.431 61.85 181.48 61.855ZM174.965 61.6453C175.014 61.6411 175.062 61.6182 175.096 61.5777C175.131 61.5363 175.17 61.4995 175.213 61.4683C175.408 61.3251 175.666 61.3009 175.885 61.405C175.936 61.4293 175.984 61.46 176.027 61.4964C176.108 61.5646 176.23 61.5542 176.298 61.4727C176.366 61.3912 176.356 61.27 176.274 61.2018C176.206 61.1443 176.13 61.096 176.05 61.0578C175.703 60.8931 175.296 60.9313 174.986 61.1578C174.918 61.2072 174.856 61.265 174.802 61.3298C174.733 61.411 174.743 61.5323 174.825 61.6007C174.865 61.6351 174.916 61.6496 174.965 61.6453ZM177.812 66.6187C178.014 66.6396 178.239 66.6354 178.455 66.575C178.526 66.5551 178.627 66.5024 178.702 66.3647C179.081 65.6684 178.465 63.0636 178.458 63.0396C178.427 62.9383 178.318 62.8818 178.217 62.9133C178.116 62.9448 178.059 63.052 178.091 63.1532C178.242 63.6768 178.63 65.9949 178.345 66.2073C177.854 66.3436 177.26 66.0896 177.254 66.087C177.156 66.0448 177.044 66.0895 177.001 66.1867C176.959 66.2841 177.004 66.3973 177.101 66.4397C177.12 66.4481 177.427 66.5789 177.812 66.6187Z" fill="#383838"/>
<path d="M179.412 68.3292C179.236 69.1517 178.538 69.7337 177.762 69.6537C176.987 69.5736 176.422 68.8611 176.418 68.02L179.412 68.3292Z" fill="#FCAFAF"/>
<path d="M175.332 63.4952C175.347 63.7563 175.501 63.963 175.678 63.9529C175.858 63.9425 175.988 63.7195 175.973 63.4583C175.958 63.1934 175.804 62.9905 175.623 63.0009C175.447 63.011 175.317 63.2303 175.332 63.4952Z" fill="#383838"/>
<path d="M180.649 63.781C180.622 64.0412 180.742 64.2699 180.918 64.2881C181.097 64.3066 181.261 64.1072 181.288 63.847C181.315 63.5831 181.195 63.3581 181.016 63.3395C180.84 63.3214 180.676 63.5171 180.649 63.781Z" fill="#383838"/>
<path d="M177.928 59.1728C176.844 59.7911 175.608 60.076 174.396 60.3747C173.185 60.6734 171.953 61.0048 170.916 61.6982C169.878 62.3916 169.052 63.5196 169.04 64.7674C168.385 62.8008 168.803 60.5887 169.803 58.7731C170.803 56.9575 171.721 54.7687 173.352 53.4899C174.542 52.5575 176.46 52.4095 177.947 52.1402C179.3 51.8951 181.242 52.268 181.937 53.605C180.968 54.3112 181.048 55.1858 180.585 56.2187C180.034 57.4507 179.097 58.4982 177.928 59.1728Z" fill="#061437"/>
<path d="M184.996 63.7948C184.87 62.4672 184.269 61.189 183.324 60.2439C182.762 59.6866 182.073 59.2278 181.68 58.534C181.434 58.1024 181.319 57.6052 181.117 57.1464C180.915 56.6876 180.582 56.245 180.101 56.1084L181.292 53.4281C182.139 53.379 183.876 54.7208 184.526 55.2671C185.171 55.8134 185.302 56.7476 185.357 57.5889C185.477 59.6648 185.357 61.7518 184.996 63.7948Z" fill="#061437"/>
<path d="M173.931 70.9185C173.931 70.9185 174.192 74.5546 177.587 74.7534L177.889 72.9768C177.889 72.9768 175.053 72.9013 173.931 70.9185Z" fill="#FCAFAF"/>
<path d="M191.272 97.1171L191.175 87.4963C190.821 86.804 190.473 86.1784 190.144 85.6655C188.119 82.5168 183.924 80.8603 181.185 80.0858C180.047 79.7577 179.165 79.5884 178.79 79.5217C178.662 79.496 178.595 79.4858 178.595 79.4858C178.595 79.4858 168.38 78.4449 166.872 78.3729C166.759 78.3679 166.698 78.3679 166.687 78.3729C166.585 78.4243 166.477 78.4601 166.364 78.4756C166.144 78.5012 165.898 78.5423 165.641 78.5986C164.113 78.9012 162.057 79.5834 160.4 80.1782C159.518 80.4962 158.687 80.932 157.938 81.4808C158.455 84.6232 159.573 92.7935 160.104 97.1171H191.272V97.1171Z" fill="#E6A4EF"/>
<path d="M166.621 79.5423C166.621 82.0296 169.867 88.1157 173.903 88.1157C177.642 88.1157 180.749 82.3168 181.185 80.086C180.047 79.7577 179.165 79.5885 178.79 79.5218C178.662 79.4962 178.596 79.4859 178.596 79.4859C178.596 79.4859 168.38 78.4449 166.872 78.373C166.708 78.7474 166.621 79.1372 166.621 79.5423Z" fill="#FFC5C5"/>
<path d="M166.676 79.5384C166.676 82.0257 169.922 88.113 173.958 88.113C175.255 88.113 176.471 87.4156 177.527 86.4155C176.656 87.072 175.702 87.4873 174.702 87.4873C170.666 87.4873 167.425 81.4001 167.425 78.9128C167.425 78.7435 167.44 78.5743 167.471 78.4102C167.235 78.3897 167.05 78.3743 166.927 78.3691C166.763 78.7435 166.676 79.1333 166.676 79.5384Z" fill="#FCAFAF"/>
<path d="M186.707 95.1917C186.644 95.1917 186.583 95.1612 186.546 95.1048C186.18 94.5513 185.753 93.9995 185.277 93.4652C185.206 93.3853 185.213 93.263 185.293 93.192C185.372 93.1211 185.495 93.128 185.566 93.2079C186.054 93.7559 186.492 94.3224 186.869 94.8914C186.927 94.9806 186.903 95.1005 186.814 95.1595C186.781 95.1812 186.744 95.1917 186.707 95.1917Z" fill="#FFAE1F"/>
<path d="M192.294 89.4251L191.244 87.7197L190.786 97.117H192.294V89.4251Z" fill="#E6A4EF"/>
<path d="M155.438 97.1171H160.099C159.413 91.3492 158.702 86.0043 157.939 81.5371C157.83 81.5931 156.876 82.4265 155.438 83.7445V97.1171Z" fill="#E6A4EF"/>
<path d="M254.185 48.124H273.988C276.189 48.124 278.112 49.925 278.261 52.1261L278.441 54.7942C278.59 56.9954 276.91 58.7963 274.709 58.7963H254.906L251.064 61.1679L250.453 52.1261C250.305 49.925 251.984 48.124 254.185 48.124Z" fill="#5AC8FA"/>
<path d="M273.544 51.9453H255.19V52.6122H273.544V51.9453Z" fill="white"/>
<path d="M268.977 54.3086H255.35V54.9755H268.977V54.3086Z" fill="white"/>
<path d="M184.127 118.883C183.891 118.724 183.705 118.552 183.544 118.415C183.381 118.278 183.261 118.144 183.167 118.036C182.98 117.818 182.912 117.682 182.955 117.624C183 117.567 183.154 117.591 183.41 117.697C183.539 117.749 183.691 117.827 183.88 117.907C184.068 117.986 184.273 118.1 184.523 118.201C184.646 118.255 184.774 118.313 184.913 118.373C185.05 118.434 185.2 118.487 185.353 118.55C185.431 118.582 185.509 118.614 185.59 118.646C185.672 118.678 185.757 118.704 185.843 118.736C186.016 118.793 186.193 118.865 186.385 118.92C187.139 119.163 188.041 119.385 189.089 119.512C189.973 119.648 190.874 119.687 191.771 119.651C191.997 119.649 192.22 119.63 192.444 119.609C192.67 119.592 192.894 119.574 193.118 119.539C193.339 119.506 193.565 119.487 193.787 119.442L193.915 119.42L193.918 119.417L193.914 119.287C193.914 119.061 193.887 118.838 193.874 118.612C193.863 118.387 193.836 118.163 193.809 117.94C193.784 117.716 193.758 117.492 193.714 117.273C193.57 116.386 193.351 115.511 193.04 114.673C192.708 113.67 192.309 112.83 191.919 112.139C191.827 111.963 191.722 111.805 191.631 111.646C191.583 111.567 191.539 111.489 191.492 111.417C191.444 111.344 191.397 111.271 191.352 111.203C191.259 111.065 191.175 110.929 191.089 110.806C191.002 110.684 190.919 110.568 190.842 110.458C190.693 110.233 190.541 110.056 190.426 109.886C190.31 109.717 190.204 109.585 190.129 109.468C189.973 109.237 189.918 109.09 189.968 109.034C190.014 108.98 190.159 109.021 190.411 109.161C190.536 109.231 190.689 109.322 190.856 109.456C191.023 109.588 191.228 109.734 191.431 109.934C191.534 110.033 191.644 110.137 191.76 110.249C191.874 110.363 191.985 110.492 192.105 110.624C192.166 110.69 192.228 110.76 192.289 110.829C192.35 110.902 192.408 110.979 192.47 111.057C192.589 111.214 192.724 111.372 192.845 111.551C193.347 112.253 193.859 113.138 194.284 114.218C194.624 115.139 194.863 116.093 195.02 117.058C195.067 117.299 195.096 117.541 195.122 117.783C195.153 118.025 195.182 118.267 195.195 118.511C195.207 118.732 195.231 118.954 195.234 119.175C195.452 119.135 195.676 119.114 195.896 119.08C196.136 119.043 196.38 119.025 196.623 119.005C196.866 118.983 197.11 118.962 197.356 118.96C198.331 118.921 199.315 118.965 200.288 119.114C201.43 119.315 202.397 119.637 203.186 119.989C203.385 120.07 203.567 120.171 203.745 120.256C203.832 120.302 203.919 120.344 204.003 120.389C204.083 120.435 204.164 120.482 204.241 120.528C204.395 120.619 204.543 120.702 204.678 120.791C204.808 120.883 204.935 120.969 205.051 121.052C205.286 121.21 205.472 121.382 205.633 121.518C205.796 121.656 205.917 121.788 206.012 121.897C206.198 122.115 206.266 122.253 206.222 122.309C206.177 122.366 206.024 122.341 205.768 122.235C205.639 122.183 205.487 122.105 205.299 122.026C205.11 121.947 204.904 121.833 204.654 121.733C204.533 121.679 204.403 121.621 204.265 121.559C204.127 121.5 203.978 121.446 203.825 121.382C203.747 121.35 203.668 121.32 203.588 121.286C203.507 121.256 203.421 121.228 203.334 121.198C203.161 121.141 202.986 121.067 202.795 121.013C202.039 120.769 201.137 120.547 200.09 120.423C199.204 120.286 198.305 120.247 197.407 120.282C197.182 120.285 196.957 120.304 196.733 120.324C196.509 120.342 196.283 120.359 196.06 120.393C195.838 120.428 195.614 120.446 195.391 120.49L195.262 120.516L195.263 120.647C195.265 120.873 195.291 121.097 195.304 121.321C195.314 121.547 195.341 121.77 195.368 121.994C195.394 122.216 195.42 122.441 195.463 122.661C195.607 123.547 195.827 124.421 196.137 125.26C196.471 126.263 196.869 127.102 197.258 127.794C197.35 127.971 197.456 128.128 197.548 128.287C197.595 128.365 197.639 128.444 197.685 128.517C197.733 128.59 197.781 128.661 197.826 128.73C197.919 128.867 198.002 129.005 198.088 129.128C198.175 129.249 198.258 129.366 198.336 129.474C198.485 129.699 198.637 129.878 198.752 130.046C198.868 130.215 198.974 130.35 199.051 130.466C199.205 130.697 199.259 130.843 199.211 130.899C199.165 130.953 199.019 130.912 198.767 130.772C198.642 130.702 198.489 130.61 198.321 130.478C198.154 130.346 197.951 130.198 197.747 129.999C197.644 129.9 197.534 129.795 197.418 129.684C197.303 129.571 197.192 129.442 197.072 129.31C197.012 129.242 196.952 129.174 196.889 129.103C196.827 129.032 196.769 128.955 196.707 128.877C196.588 128.72 196.453 128.561 196.332 128.382C195.83 127.68 195.32 126.796 194.894 125.715C194.554 124.794 194.315 123.839 194.157 122.876C194.111 122.635 194.082 122.392 194.056 122.15C194.025 121.907 193.996 121.665 193.983 121.422C193.971 121.201 193.948 120.98 193.943 120.758C193.724 120.798 193.503 120.82 193.282 120.852C193.042 120.889 192.797 120.909 192.555 120.929C192.311 120.95 192.068 120.97 191.824 120.974C190.846 121.012 189.862 120.969 188.891 120.82C187.749 120.62 186.78 120.297 185.993 119.944C185.794 119.862 185.611 119.762 185.433 119.676C185.345 119.631 185.258 119.59 185.176 119.545C185.095 119.497 185.014 119.45 184.936 119.406C184.783 119.314 184.634 119.231 184.502 119.142C184.369 119.051 184.245 118.964 184.127 118.883Z" fill="#D0DEFC"/>
<path d="M190.031 118.282C189.848 118.133 189.879 117.76 190.198 117.214L191.201 115.985C191.671 115.564 192.031 115.459 192.218 115.611C192.405 115.764 192.37 116.134 192.055 116.682L191.052 117.912C190.577 118.33 190.222 118.438 190.031 118.282ZM187.662 117.653C187.48 117.504 187.608 117.011 188.124 116.225L189.628 114.382C190.294 113.719 190.752 113.495 190.939 113.648C191.125 113.8 190.993 114.29 190.482 115.079L188.978 116.922C188.306 117.582 187.853 117.809 187.662 117.653ZM185.314 117C185.131 116.851 185.37 116.222 186.11 115.161L188.182 112.622C189.073 111.685 189.641 111.326 189.828 111.478C190.014 111.631 189.771 112.256 189.037 113.319L186.964 115.859C186.069 116.792 185.505 117.156 185.314 117Z" fill="#D0DEFC"/>
<path d="M199.18 121.678C199.363 121.827 199.332 122.2 199.013 122.746L198.01 123.975C197.54 124.396 197.18 124.501 196.993 124.349C196.806 124.196 196.841 123.826 197.155 123.278L198.158 122.048C198.633 121.63 198.989 121.522 199.18 121.678ZM201.549 122.307C201.731 122.456 201.603 122.948 201.087 123.735L199.583 125.578C198.916 126.241 198.459 126.465 198.272 126.312C198.085 126.16 198.218 125.67 198.729 124.881L200.233 123.038C200.904 122.378 201.357 122.15 201.549 122.307ZM203.897 122.96C204.079 123.109 203.841 123.738 203.101 124.799L201.028 127.338C200.138 128.275 199.57 128.634 199.383 128.482C199.196 128.329 199.439 127.704 200.174 126.641L202.246 124.101C203.142 123.168 203.706 122.804 203.897 122.96Z" fill="#D0DEFC"/>
<path d="M175.93 137.704L175.903 129.329H180.494L180.521 137.711C183.163 138.662 185.048 141.183 185.048 144.155C185.048 147.925 181.987 150.986 178.21 150.986C174.432 150.986 171.371 147.925 171.371 144.155C171.371 141.167 173.272 138.638 175.93 137.704Z" fill="#D0DEFC"/>
<path d="M172.173 144.155C172.173 147.474 174.879 150.181 178.206 150.181C180.735 150.181 182.91 148.61 183.796 146.403C184.086 145.71 184.239 144.953 184.239 144.155C184.239 142.907 183.852 141.723 183.176 140.74H173.244C172.857 141.296 172.567 141.924 172.39 142.593C172.245 143.092 172.173 143.616 172.173 144.155Z" fill="#FE6B4D"/>
<path d="M175.905 130.316L175.903 129.329H180.494L180.496 130.316H175.905Z" fill="#D0DEFC"/>
<path d="M175.708 129.329H180.711C181.202 129.329 181.6 128.93 181.6 128.439C181.6 127.948 181.202 127.55 180.711 127.55H175.708C175.217 127.55 174.819 127.948 174.819 128.439C174.819 128.93 175.217 129.329 175.708 129.329Z" fill="#D0DEFC"/>
<path d="M172.173 144.155C172.173 147.474 174.879 150.181 178.206 150.181C180.735 150.181 182.91 148.61 183.796 146.403C183.691 146.419 183.579 146.435 183.466 146.443C180.477 146.757 177.344 146.258 174.799 144.671C173.896 144.115 173.083 143.407 172.39 142.593C172.245 143.092 172.173 143.616 172.173 144.155Z" fill="#F4573D"/>
<path d="M178.321 131.574H179.709V131.235H178.321V131.574Z" fill="#D0DEFC"/>
<path d="M179.054 132.29H179.708V131.95H179.054V132.29Z" fill="#D0DEFC"/>
<path d="M178.321 132.949H179.709V132.61H178.321V132.949Z" fill="#D0DEFC"/>
<path d="M179.054 133.663H179.708V133.324H179.054V133.663Z" fill="#D0DEFC"/>
<path d="M178.321 134.323H179.709V133.984H178.321V134.323Z" fill="#D0DEFC"/>
<path d="M179.054 135.037H179.708V134.698H179.054V135.037Z" fill="#D0DEFC"/>
<path d="M178.321 135.696H179.709V135.357H178.321V135.696Z" fill="#D0DEFC"/>
<path d="M179.054 136.412H179.708V136.073H179.054V136.412Z" fill="#D0DEFC"/>
<path d="M159.268 137.704L159.24 129.329H163.832L163.859 137.711C166.501 138.662 168.386 141.183 168.386 144.155C168.386 147.925 165.325 150.986 161.547 150.986C157.77 150.986 154.709 147.925 154.709 144.155C154.709 141.167 156.61 138.638 159.268 137.704Z" fill="#D0DEFC"/>
<path d="M155.51 144.155C155.51 147.474 158.217 150.181 161.544 150.181C164.073 150.181 166.248 148.61 167.134 146.403C167.424 145.71 167.577 144.953 167.577 144.155C167.577 142.907 167.19 141.723 166.514 140.74H156.582C156.195 141.296 155.905 141.924 155.728 142.593C155.583 143.092 155.51 143.616 155.51 144.155Z" fill="#99B9FF"/>
<path d="M159.243 130.316L159.241 129.329H163.832L163.834 130.316H159.243Z" fill="#D0DEFC"/>
<path d="M159.046 129.329H164.049C164.54 129.329 164.938 128.93 164.938 128.439C164.938 127.948 164.54 127.55 164.049 127.55H159.046C158.555 127.55 158.157 127.948 158.157 128.439C158.157 128.93 158.555 129.329 159.046 129.329Z" fill="#D0DEFC"/>
<path d="M155.51 144.155C155.51 147.474 158.217 150.181 161.544 150.181C164.073 150.181 166.248 148.61 167.134 146.403C167.029 146.419 166.916 146.435 166.804 146.443C163.815 146.757 160.682 146.258 158.136 144.671C157.234 144.115 156.421 143.407 155.728 142.593C155.583 143.092 155.51 143.616 155.51 144.155Z" fill="#1939D1"/>
<path d="M161.658 131.574H163.047V131.235H161.658V131.574Z" fill="#D0DEFC"/>
<path d="M162.393 132.29H163.047V131.95H162.393V132.29Z" fill="#D0DEFC"/>
<path d="M161.658 132.949H163.047V132.61H161.658V132.949Z" fill="#D0DEFC"/>
<path d="M162.393 133.663H163.047V133.324H162.393V133.663Z" fill="#D0DEFC"/>
<path d="M161.658 134.323H163.047V133.984H161.658V134.323Z" fill="#D0DEFC"/>
<path d="M162.393 135.037H163.047V134.698H162.393V135.037Z" fill="#D0DEFC"/>
<path d="M161.658 135.696H163.047V135.357H161.658V135.696Z" fill="#D0DEFC"/>
<path d="M162.393 136.412H163.047V136.073H162.393V136.412Z" fill="#D0DEFC"/>
<path d="M137.155 116.933H119.267C118.558 116.933 117.983 116.358 117.983 115.649V102.995C117.983 102.285 118.558 101.71 119.267 101.71H137.155C137.864 101.71 138.439 102.285 138.439 102.995V115.649C138.439 116.358 137.864 116.933 137.155 116.933Z" fill="#E1EBFF"/>
<path d="M143.919 122.007H127.159C126.26 122.007 125.529 121.276 125.529 120.377V109.375C125.529 108.479 126.26 107.751 127.159 107.751H143.919C144.818 107.751 145.549 108.479 145.549 109.375V120.377C145.549 121.276 144.818 122.007 143.919 122.007ZM127.159 108.063C126.432 108.063 125.842 108.652 125.842 109.375V120.377C125.842 121.104 126.432 121.695 127.159 121.695H143.919C144.646 121.695 145.237 121.104 145.237 120.377V109.375C145.237 108.652 144.646 108.063 143.919 108.063H127.159Z" fill="#D0DEFC"/>
</svg>
