<svg width="477" height="284" viewBox="0 0 477 284" fill="none" xmlns="http://www.w3.org/2000/svg">
<path d="M355.368 100.041C331.686 114.175 310.453 139.491 340.794 183.967C353.233 202.122 343.433 224.737 323.959 240.316C301.595 258.282 266.417 267.014 237.583 248.796C233.814 246.409 230.359 244.211 227.092 242.2C221.69 238.871 216.853 235.981 212.392 233.594H212.33C205.536 229.682 198.085 227.042 190.343 225.805C182.868 224.737 174.952 225.365 164.839 227.815C163.959 228.003 163.017 228.255 162.075 228.506C160.441 228.883 158.745 229.385 156.986 229.888C155.604 230.265 154.222 230.642 152.84 230.893C150.234 231.43 147.585 231.725 144.925 231.773C141.982 231.902 139.033 231.712 136.13 231.207C109.558 226.998 90.7749 199.86 120.174 166.252C120.36 166.059 120.529 165.848 120.677 165.624C141.91 140.497 109.495 129.315 116.782 98.2821C124.697 64.7995 159.75 52.3615 188.584 60.3396C198.177 62.8956 206.942 67.8954 214.026 74.8508C216.406 77.3258 218.99 79.5953 221.753 81.635C239.907 95.267 253.539 88.1684 269.181 77.6149H269.244C278.918 71.0814 289.283 63.292 301.972 58.2665C308.321 55.6813 315.005 54.0105 321.823 53.304C362.907 49.2206 379.114 85.907 355.368 100.041Z" fill="#D0DEFC"/>
<path d="M263.841 52.9897C263.835 57.2027 262.733 61.3416 260.643 64.9996C258.553 68.6576 255.547 71.7088 251.921 73.8534C248.295 75.9979 244.173 77.162 239.96 77.2312C235.748 77.3004 231.59 76.2723 227.895 74.248C224.201 72.2236 221.096 69.2727 218.887 65.6853C216.678 62.0979 215.441 57.9975 215.296 53.787C215.152 49.5765 216.106 45.4009 218.064 41.6707C220.022 37.9404 222.917 34.7838 226.464 32.5111C231.869 29.0534 238.421 27.8725 244.693 29.2256C250.965 30.5788 256.448 34.3565 259.946 39.735C262.49 43.6877 263.842 48.2892 263.841 52.9897V52.9897Z" fill="#D0DEFC"/>
<path style="mix-blend-mode:overlay" d="M355.368 100.041C331.686 114.175 310.453 139.491 340.794 183.967C353.233 202.122 343.433 224.737 323.959 240.316C313.594 227.312 312.023 207.587 298.831 197.222C291.482 191.443 282.373 189.872 272.887 189.935C266.309 190.058 259.744 190.561 253.225 191.443C240.536 192.825 227.783 193.599 214.968 193.767C204.226 193.893 193.296 193.704 182.931 190.94C172.502 188.113 162.577 182.585 156.295 173.791C152.526 168.451 150.202 161.729 151.709 155.322C153.217 148.851 158.494 143.763 164.462 140.811C170.429 137.921 177.088 136.79 183.622 135.659C198.824 133.147 214.026 130.571 229.228 128.058C231.929 127.619 234.631 127.179 237.332 126.739C249.33 124.729 261.517 122.656 272.573 117.63C283.692 112.605 293.806 104.25 298.203 92.8799C302.475 81.8237 301.344 69.8253 301.972 58.2665C308.321 55.6813 315.005 54.0105 321.823 53.304C362.907 49.2206 379.114 85.907 355.368 100.041Z" fill="url(#paint0_linear_18_19)"/>
<path style="mix-blend-mode:overlay" d="M272.887 189.936C272.951 191.99 272.888 194.045 272.699 196.092C271.882 205.515 268.364 214.937 261.58 221.408C257.61 224.989 253.009 227.801 248.011 229.7C236.704 234.174 224.399 235.52 212.392 233.594H212.33C205.536 229.682 198.085 227.042 190.343 225.805C187.691 224.278 185.17 222.534 182.805 220.591C164.964 206.017 155.855 181.769 135.565 170.901C130.872 168.458 125.861 166.682 120.677 165.625C141.91 140.497 109.495 129.315 116.782 98.2825C124.697 64.7999 159.75 52.3618 188.584 60.3399C187.998 64.3324 187.746 68.3667 187.83 72.4011C189.338 96.5863 207.492 116.626 229.165 128.059H229.228C231.776 129.454 234.398 130.712 237.08 131.828C244.367 134.906 252.094 137.356 257.873 142.696C264.846 149.166 267.736 158.84 269.809 168.137C271.58 175.278 272.612 182.583 272.887 189.936V189.936Z" fill="url(#paint1_linear_18_19)"/>
<path style="mix-blend-mode:overlay" d="M230.547 50.7913C231.427 44.5093 228.788 38.5414 226.464 32.5111C231.869 29.0534 238.421 27.8725 244.693 29.2256C250.965 30.5788 256.448 34.3565 259.946 39.735C259.758 39.7979 259.632 39.9866 259.444 40.1119C257.385 42.0796 255.791 44.4828 254.78 47.1458C253.77 49.8087 253.367 52.664 253.602 55.5026C254.094 60.0295 255.907 64.3115 258.816 67.8154C256.562 70.7739 253.654 73.17 250.318 74.8158C246.983 76.4615 243.312 77.312 239.593 77.3007C233.113 77.296 226.9 74.7206 222.318 70.1396C224.391 63.4179 229.542 57.7011 230.547 50.7913Z" fill="url(#paint2_linear_18_19)"/>
<path style="mix-blend-mode:overlay" d="M278.792 94.1992C278.801 97.676 277.701 101.065 275.651 103.873C272.699 107.328 267.799 108.333 263.339 108.899C256.955 109.885 250.448 109.736 244.116 108.459C237.751 107.125 232.083 103.533 228.16 98.3454C226.395 95.7676 224.999 92.9553 224.014 89.9904C223.012 87.2787 222.255 84.4824 221.753 81.6354C239.907 95.2674 253.539 88.1687 269.181 77.6152H269.244C269.872 78.0549 270.5 78.5572 271.128 78.997C273.228 80.3661 275.094 82.0627 276.656 84.0225C278.43 87.1022 279.178 90.6663 278.792 94.1992V94.1992Z" fill="url(#paint3_linear_18_19)"/>
<path d="M340.794 92.5032C330.995 97.34 324.399 101.675 321.195 105.381C317.426 109.464 314.096 115.495 311.144 123.347L280.3 242.138L227.092 242.201C202.278 226.81 190.343 221.659 164.839 227.815L190.531 123.975C194.552 111.914 198.51 104.25 202.404 100.921C205.985 97.0888 213.272 94.0108 224.202 91.6865L340.794 92.5032Z" fill="white"/>
<path d="M210.053 110.428L226.08 110.428L242.106 110.429L239.875 119.503L207.822 119.504L210.053 110.428ZM204.203 134.225L232.332 134.225L260.461 134.226L258.429 142.494L202.17 142.494L204.203 134.225ZM200.271 150.217L238.573 150.217L276.875 150.218L274.842 158.485L198.238 158.486L200.271 150.217ZM196.304 166.354L229.665 166.354L263.026 166.355L260.993 174.622L194.271 174.624L196.304 166.354ZM191.979 183.945L230.281 183.945L268.583 183.946L266.55 192.213L189.946 192.214L191.979 183.945Z" fill="#4577C5"/>
<path d="M217.935 228.406C219.986 225.102 222.974 222.483 226.519 220.882L226.512 220.885C229.439 219.471 231.414 218.591 232.437 218.245L232.323 218.292C233.212 217.862 238.948 215.794 249.53 212.085L249.506 212.094C252.049 211.129 253.465 210.563 253.752 210.396L253.753 210.396C253.652 210.447 253.563 210.517 253.491 210.603C253.418 210.689 253.363 210.789 253.33 210.897C253.297 211.004 253.286 211.117 253.298 211.229C253.309 211.341 253.343 211.45 253.398 211.548L253.362 211.432C253.379 211.503 253.404 211.571 253.436 211.635C253.321 211.405 253.3 211.138 253.378 210.892C253.455 210.647 253.626 210.441 253.853 210.318H253.853C253.98 210.255 254.101 210.18 254.214 210.092L254.214 210.092C254.09 210.209 254.013 210.368 253.999 210.538C253.984 210.708 254.033 210.877 254.136 211.013V211.013C254.172 211.094 254.224 211.166 254.289 211.226C254.353 211.286 254.43 211.332 254.513 211.362C254.046 211.298 253.574 211.29 253.106 211.34L253.121 211.339C250.56 211.588 248.03 212.093 245.57 212.847L245.563 212.849C240.436 214.267 237.434 216.353 236.557 219.106L236.586 218.99C236.167 221.195 237.279 222.549 239.923 223.052C240.228 223.11 240.553 223.158 240.898 223.196L240.886 223.194C244.51 223.547 253.185 219.99 266.911 212.524C267.026 212.46 267.152 212.42 267.282 212.405C267.413 212.39 267.545 212.401 267.671 212.438C267.797 212.474 267.914 212.535 268.017 212.618C268.119 212.7 268.204 212.801 268.267 212.917C268.329 213.032 268.369 213.159 268.382 213.289C268.395 213.42 268.383 213.552 268.345 213.677C268.307 213.803 268.245 213.92 268.161 214.021C268.078 214.123 267.975 214.206 267.859 214.268V214.268C253.777 221.927 244.722 225.561 240.694 225.17L240.682 225.168C240.287 225.125 239.91 225.07 239.552 225.001L239.553 225.002C235.609 224.251 233.97 222.124 234.637 218.619C234.644 218.58 234.654 218.541 234.666 218.503V218.503C235.761 215.068 239.217 212.546 245.034 210.937L245.026 210.939C247.619 210.146 250.284 209.617 252.983 209.36L252.999 209.359C253.691 209.288 254.389 209.322 255.072 209.458C255.241 209.499 255.401 209.575 255.54 209.68C255.68 209.786 255.796 209.918 255.882 210.07V210.071C256.022 210.312 256.066 210.597 256.008 210.87C255.949 211.143 255.79 211.385 255.564 211.547C255.329 211.75 255.071 211.924 254.795 212.065L255.211 210.748C255.244 210.813 255.269 210.881 255.287 210.951L255.25 210.836C255.304 210.952 255.333 211.078 255.337 211.206C255.34 211.334 255.318 211.462 255.271 211.581C255.224 211.7 255.154 211.809 255.064 211.9C254.974 211.991 254.867 212.064 254.748 212.113H254.749C254.368 212.333 252.855 212.946 250.21 213.949L250.186 213.958C239.674 217.642 234.008 219.682 233.187 220.079C233.15 220.096 233.112 220.112 233.073 220.125V220.125C232.128 220.445 230.229 221.294 227.375 222.672L227.369 222.675C224.175 224.113 221.48 226.468 219.628 229.441C219.561 229.553 219.471 229.65 219.366 229.727C219.261 229.804 219.141 229.86 219.014 229.89C218.888 229.921 218.756 229.927 218.627 229.907C218.498 229.886 218.374 229.841 218.263 229.773C218.151 229.705 218.055 229.615 217.978 229.51C217.901 229.404 217.846 229.285 217.816 229.158C217.785 229.031 217.78 228.899 217.801 228.77C217.821 228.641 217.867 228.518 217.935 228.406Z" fill="#E6A4EF"/>
<path d="M297.739 253.956C299.334 252.311 301.315 251.089 303.501 250.402C308.775 248.398 314.206 246.837 319.739 245.735C322.604 245.076 325.521 244.669 328.457 244.518C332.975 244.478 341.556 238.302 346.058 234.83C347.827 233.424 348.967 232.468 348.967 232.468C348.967 232.468 335.257 225.922 321.698 228.531C310.442 230.715 301.369 246.789 298.622 252.182C298.031 253.298 297.739 253.956 297.739 253.956Z" fill="#A5B7C5"/>
<path d="M297.07 254.503C297.139 254.59 297.226 254.663 297.324 254.717C297.423 254.771 297.531 254.805 297.642 254.816C297.754 254.828 297.866 254.818 297.974 254.785C298.081 254.753 298.181 254.7 298.268 254.629L298.283 254.608L298.301 254.606C299.974 253.159 301.727 251.773 303.501 250.402C304.306 249.783 305.111 249.164 305.937 248.559C308.561 246.636 311.252 244.794 314.015 243.088C316.769 241.358 319.633 239.811 322.59 238.457C323.414 238.107 324.22 237.76 325.047 237.429C327.228 236.551 329.5 235.922 331.821 235.552C331.892 235.54 331.956 235.501 331.999 235.442C332.042 235.384 332.06 235.311 332.05 235.239C332.041 235.167 332.003 235.102 331.946 235.057C331.889 235.013 331.817 234.992 331.745 235C329.925 235.228 328.13 235.627 326.385 236.191C324.975 236.639 323.61 237.154 322.25 237.704C319.217 238.974 316.276 240.453 313.447 242.13C310.582 243.76 307.829 245.537 305.126 247.417C302.921 248.956 300.756 250.525 298.622 252.182C298.146 252.556 297.671 252.93 297.195 253.304C297.02 253.447 296.908 253.653 296.885 253.878C296.861 254.102 296.928 254.327 297.07 254.503V254.503Z" fill="white"/>
<path style="mix-blend-mode:overlay" d="M297.07 254.503C297.139 254.59 297.226 254.663 297.324 254.717C297.423 254.771 297.531 254.805 297.642 254.816C297.754 254.828 297.866 254.817 297.974 254.785C298.081 254.753 298.181 254.7 298.268 254.629L298.283 254.608L298.301 254.606C299.974 253.159 301.727 251.773 303.501 250.402C308.775 248.398 314.206 246.837 319.739 245.735C320.011 245.334 320.283 244.933 320.534 244.517C321.823 242.023 323.333 239.651 325.047 237.428C325.401 237.04 325.782 236.678 326.188 236.345C326.255 236.299 326.319 236.236 326.385 236.191C329.19 234.306 332.486 233.285 335.865 233.252C339.344 232.805 342.877 233.353 346.058 234.83C347.826 233.424 348.967 232.468 348.967 232.468C348.967 232.468 335.257 225.922 321.698 228.531C310.442 230.715 301.369 246.789 298.622 252.182C298.146 252.556 297.671 252.93 297.195 253.304C297.02 253.447 296.908 253.653 296.885 253.877C296.861 254.102 296.928 254.327 297.07 254.503V254.503Z" fill="url(#paint4_linear_18_19)"/>
<path d="M297.659 253.747C296.727 251.659 295.289 249.837 293.475 248.446C289.218 244.764 284.662 241.444 279.854 238.518C277.394 236.921 274.8 235.542 272.1 234.397C267.879 232.814 261.95 224.091 258.919 219.298C257.743 217.375 257.001 216.089 257.001 216.089C257.001 216.089 272.087 214.644 283.902 221.727C293.703 227.622 296.708 245.789 297.439 251.782C297.611 253.031 297.659 253.747 297.659 253.747Z" fill="#A5B7C5"/>
<path d="M298.1 254.488C298.004 254.547 297.898 254.585 297.787 254.602C297.677 254.619 297.564 254.614 297.456 254.586C297.347 254.559 297.245 254.511 297.155 254.444C297.066 254.377 296.99 254.293 296.934 254.197L296.926 254.172L296.91 254.164C295.838 252.236 294.668 250.337 293.475 248.446C292.932 247.59 292.389 246.735 291.822 245.886C290.021 243.186 288.13 240.54 286.123 237.996C284.135 235.432 281.979 233.003 279.671 230.723C279.018 230.113 278.382 229.512 277.72 228.919C275.977 227.351 274.063 225.984 272.014 224.844C271.951 224.808 271.905 224.749 271.885 224.68C271.865 224.61 271.873 224.536 271.906 224.472C271.94 224.408 271.997 224.36 272.066 224.337C272.135 224.315 272.21 224.32 272.275 224.352C273.902 225.188 275.447 226.176 276.89 227.301C278.058 228.204 279.161 229.153 280.247 230.134C282.655 232.361 284.906 234.753 286.983 237.292C289.11 239.799 291.083 242.407 292.973 245.093C294.513 247.289 296.005 249.5 297.439 251.782C297.756 252.296 298.074 252.809 298.391 253.322C298.507 253.516 298.541 253.747 298.486 253.966C298.432 254.184 298.293 254.372 298.1 254.488V254.488Z" fill="white"/>
<path style="mix-blend-mode:overlay" d="M298.099 254.488C298.004 254.546 297.898 254.585 297.787 254.602C297.677 254.619 297.564 254.613 297.455 254.586C297.347 254.559 297.245 254.511 297.155 254.444C297.066 254.377 296.99 254.293 296.933 254.196L296.926 254.172L296.91 254.164C295.838 252.236 294.668 250.337 293.475 248.446C289.218 244.764 284.662 241.444 279.854 238.518C279.736 238.05 279.618 237.581 279.525 237.105C279.171 234.328 278.567 231.588 277.72 228.919C277.521 228.434 277.288 227.964 277.022 227.513C276.975 227.448 276.937 227.367 276.89 227.301C274.905 224.576 272.166 222.491 269.011 221.305C265.904 219.697 262.405 219.001 258.919 219.298C257.743 217.375 257.001 216.089 257.001 216.089C257.001 216.089 272.087 214.644 283.902 221.727C293.703 227.622 296.708 245.789 297.439 251.782C297.756 252.295 298.074 252.809 298.391 253.322C298.507 253.516 298.541 253.747 298.486 253.965C298.431 254.184 298.292 254.372 298.099 254.488Z" fill="url(#paint5_linear_18_19)"/>
<path d="M315.367 201.5C316.694 204.854 316.791 208.569 315.64 211.988C318.229 208.875 321.237 206.136 324.578 203.85C320.488 195.493 311.377 195.663 310.539 189.611C310.071 186.235 321.902 182.122 325.968 190.997C327.441 194.81 327.457 199.033 326.013 202.859C328.64 201.074 331.487 199.334 334.491 197.524C332.548 189.617 324.727 188.068 325.136 182.738C325.364 179.764 336.245 178.449 338.07 186.793C338.613 190.162 337.931 193.614 336.148 196.524C338.305 195.228 340.546 193.859 342.841 192.411C345.704 185.192 341.456 178.804 345.452 175.049C347.846 172.8 357.672 179.811 352.96 187.952C350.815 191.196 347.557 193.544 343.801 194.553C341.56 195.961 339.368 197.299 337.26 198.567C339.323 198.039 341.488 198.06 343.539 198.629C351.721 201.081 349.585 211.831 346.602 211.834C341.263 211.837 340.308 203.939 332.596 201.393C329.543 203.217 326.589 205.203 323.749 207.344C326.461 206.542 331.493 205.606 335.868 207.858C344.546 212.327 339.895 223.957 336.544 223.335C330.414 222.196 331.148 212.752 322.445 208.39C318.813 211.244 315.9 214.908 313.939 219.091C315.981 217.748 320.775 215.129 325.781 216.228C334.822 218.212 333.388 230.002 330.165 230.246C324.262 230.695 322.642 221.834 313.569 219.972C312.866 221.694 312.33 223.479 311.969 225.304C311.331 228.49 310.474 231.629 309.404 234.697C311.938 232.935 315.02 232.139 318.091 232.455C325.705 233.672 325.078 243.546 322.409 243.904C317.678 244.54 315.875 237.72 308.843 236.27C307.313 240.389 305.437 244.371 303.236 248.173C304.773 247.43 306.493 247.152 308.186 247.371C314.063 248.31 313.579 255.932 311.52 256.209C308.049 256.675 306.614 251.95 301.822 250.518C300.513 252.587 299.593 253.791 299.477 253.939C299.302 254.167 299.048 254.321 298.765 254.372C298.482 254.423 298.19 254.367 297.947 254.215C297.912 254.193 297.88 254.17 297.848 254.145C297.727 254.052 297.626 253.936 297.551 253.803C297.475 253.671 297.426 253.524 297.407 253.373C297.388 253.222 297.399 253.068 297.439 252.921C297.479 252.774 297.548 252.636 297.642 252.516C299.186 250.397 300.59 248.18 301.843 245.877C298.472 241.088 292.889 242.289 291.694 238.704C291.036 236.732 297.669 232.946 301.096 237.812C302.38 239.876 302.868 242.338 302.469 244.736C304.851 240.282 306.78 235.6 308.226 230.761C303.869 224.404 296.546 226.015 294.986 221.338C294.135 218.784 302.728 213.879 307.168 220.182C308.593 222.386 309.262 224.994 309.075 227.611C309.295 226.706 309.504 225.788 309.689 224.85C310.428 220.979 311.945 217.298 314.149 214.03C310.34 205.818 301.542 205.992 300.738 200.186C300.294 196.985 311.512 193.086 315.367 201.5Z" fill="#E6A4EF"/>
<g opacity="0.1">
<path opacity="0.1" d="M165.772 80.0784L163.548 84.6882L162.292 87.3506C161.81 88.376 161.59 89.5046 161.651 90.6357C161.712 91.7669 162.051 92.8654 162.639 93.8335C163.332 94.9845 164.352 95.9032 165.568 96.4724L175.041 100.956C176.534 101.665 178.228 101.828 179.828 101.416C180.778 101.143 181.659 100.671 182.414 100.032C183.168 99.3933 183.778 98.6012 184.203 97.7087L187.614 90.4463L193.097 90.8079L193.107 90.809L193.104 90.8153C192.324 92.6882 191.513 94.3468 190.783 95.8069C188.919 99.6111 187.637 102.241 189.233 104.043C189.167 104.295 189.19 104.561 189.301 104.797C189.411 105.032 189.601 105.221 189.836 105.331L191.558 106.148C191.763 106.24 191.989 106.273 192.211 106.243C192.396 106.216 192.572 106.144 192.722 106.033C192.872 105.922 192.993 105.776 193.073 105.607C193.2 105.331 193.214 105.017 193.112 104.731C193.011 104.445 192.801 104.21 192.529 104.077L190.825 103.273C190.621 103.179 190.394 103.146 190.172 103.178C189.996 103.203 189.829 103.269 189.685 103.371C188.695 101.998 189.646 99.8983 191.486 96.1444C192.227 94.6516 193.062 92.9428 193.864 91.0042C193.887 90.9383 193.893 90.8678 193.882 90.799V90.799C194.036 90.7482 194.175 90.6594 194.286 90.5409C194.397 90.4224 194.477 90.2779 194.518 90.1207C194.559 89.9634 194.559 89.7985 194.52 89.6409C194.48 89.4833 194.402 89.3381 194.292 89.2186L186.897 81.3533L181.627 75.7082C181.457 75.5222 181.226 75.4035 180.976 75.3738L176.498 75.084L165.92 74.3421L162.48 74.1178C162.285 74.1036 162.09 74.149 161.922 74.248C161.753 74.347 161.618 74.4949 161.536 74.6722C161.453 74.8494 161.426 75.0477 161.459 75.2405C161.491 75.4334 161.581 75.6119 161.718 75.7523L165.772 80.0784ZM225.082 221.784L223.825 216.319L222.443 210.54C221.417 205.842 219.498 201.385 216.79 197.411L214.34 193.767L186.448 151.741C186.637 151.49 186.699 151.302 186.825 151.113L186.888 150.736L186.951 150.422L186.888 150.045L186.762 149.668C186.687 149.414 186.558 149.179 186.386 148.977L186.071 148.601C185.879 148.355 185.669 148.124 185.443 147.91C184.438 147.03 183.747 146.59 183.37 146.59C183.307 146.653 183.307 146.779 183.37 146.967V147.093L176.649 136.979L169.989 126.865L168.859 125.232L167.037 122.468L163.079 116.437C156.232 106.198 138.643 117.882 145.49 128.121L149.573 134.341L151.018 136.476H150.956C149.31 136.614 147.719 137.13 146.307 137.984C145.836 138.203 145.458 138.581 145.239 139.052C145.093 139.433 145.071 139.851 145.176 140.246H144.925L142.977 140.308C142.6 140.371 142.412 140.371 142.349 140.434C141.853 140.524 141.406 140.792 141.093 141.188C140.605 141.79 140.242 142.484 140.027 143.228C139.811 143.973 139.746 144.753 139.836 145.523C140.051 146.369 140.51 147.133 141.156 147.721C141.03 150.045 141.407 151.49 142.161 152.118C142.706 152.589 143.35 152.933 144.046 153.123C144.297 153.186 144.736 153.312 145.176 153.438C145.159 153.929 145.075 154.415 144.925 154.882C144.611 155.008 144.297 155.008 143.983 155.134C140.088 156.202 138.015 157.207 137.638 158.149H137.575V158.212C137.541 158.246 137.519 158.29 137.512 158.337V158.463C136.288 161.911 135.671 165.546 135.69 169.205V170.964C135.753 175.047 136.13 182.02 137.009 191.945L137.952 192.134C137.562 194.225 137.414 196.354 137.512 198.479C137.974 204.074 138.792 209.634 139.962 215.126L136.13 231.207C139.033 231.712 141.981 231.902 144.925 231.773C147.341 226.307 149.316 220.656 150.83 214.875C151.208 213.363 151.501 211.833 151.709 210.289C152.337 211.985 153.029 213.681 153.657 215.377L152.84 230.893C154.222 230.642 155.604 230.265 156.986 229.888C158.745 229.386 160.441 228.883 162.075 228.506C163.164 223.454 163.898 218.333 164.273 213.178C164.591 208.067 164.104 202.937 162.828 197.976C162.28 195.742 161.609 193.54 160.818 191.38C160.944 191.317 161.069 191.317 161.195 191.255C160.169 186.57 159.414 181.829 158.934 177.057C158.871 176.178 158.808 175.424 158.808 174.733C158.776 174.252 158.776 173.769 158.808 173.288C160.502 174.657 162.599 175.429 164.776 175.487C166.224 175.476 167.648 175.109 168.922 174.419C170.679 173.365 172.249 172.028 173.57 170.462L187.893 192.071L199.2 209.032C201.868 213.028 205.204 216.535 209.063 219.398L211.199 220.905L214.026 222.915L222.883 229.323C223.215 229.571 223.613 229.715 224.026 229.737C224.44 229.76 224.851 229.659 225.208 229.449C225.528 229.263 225.795 228.998 225.982 228.679C226.169 228.36 226.27 227.997 226.275 227.627C226.275 227.375 226.338 227.187 226.338 226.936L225.082 221.784ZM151.144 153.5C152.275 151.993 152.777 148.538 152.526 145.648C153.044 145.571 153.538 145.378 153.971 145.083C154.306 144.732 154.582 144.329 154.787 143.889C154.929 143.502 155.034 143.102 155.101 142.696L156.295 144.454L155.541 147.784L154.285 153.438C153.657 153.5 152.966 153.563 152.275 153.626C151.791 153.639 151.309 153.681 150.83 153.752C150.949 153.688 151.055 153.603 151.144 153.5ZM167.288 166.755L159.311 159.782C160.573 157.436 161.302 154.841 161.446 152.181L169.612 164.494L167.288 166.755Z" fill="black"/>
</g>
<path d="M288.176 118.871L285.862 122.144L274.701 137.98L274.699 132.768L268.971 135.663L280.043 119.954L282.446 116.554L288.176 118.871Z" fill="#4577C5"/>
<path d="M299.365 135.663L295.119 132.768L292.419 137.98L289.373 122.144L288.734 118.871L295.679 116.554L296.319 119.928L299.365 135.663Z" fill="#4577C5"/>
<path d="M305.228 109.331C304.541 111.611 303.397 113.729 301.866 115.553C300.335 117.378 298.449 118.873 296.323 119.945C295.838 120.221 295.333 120.458 294.81 120.653C293.072 121.42 291.228 121.921 289.34 122.139C288.762 122.197 288.18 122.221 287.599 122.21C287.03 122.222 286.461 122.198 285.895 122.139C283.79 121.905 281.777 121.151 280.036 119.945C278.995 119.166 278.128 118.178 277.491 117.044C276.761 115.818 276.336 114.434 276.253 113.01C276.152 111.774 276.258 110.531 276.569 109.331C277.63 105.706 279.874 102.542 282.943 100.343C286.165 97.8221 290.126 96.4297 294.216 96.3802C295.862 96.3117 297.504 96.5915 299.034 97.2012C300.565 97.8109 301.949 98.7369 303.097 99.9186C303.983 100.85 304.66 101.959 305.082 103.173C305.738 105.166 305.789 107.309 305.228 109.331V109.331Z" fill="#E6A4EF"/>
<path d="M300.433 109.314C299.621 111.793 298.053 113.956 295.95 115.5C293.847 117.044 291.313 117.89 288.704 117.921C283.444 117.921 280.168 114.068 281.385 109.314C282.197 106.834 283.765 104.671 285.868 103.128C287.971 101.584 290.505 100.737 293.114 100.707C298.374 100.707 301.65 104.56 300.433 109.314Z" fill="white"/>
<path d="M292.752 104.925L293.029 107.603C293.041 107.689 293.086 107.767 293.154 107.82C293.222 107.874 293.307 107.899 293.394 107.891H296.509C296.955 107.891 297.009 108.407 296.587 108.644L293.643 110.299C293.556 110.342 293.483 110.408 293.432 110.49C293.381 110.573 293.355 110.668 293.356 110.765L293.633 113.442C293.629 113.538 293.601 113.63 293.551 113.711C293.501 113.793 293.432 113.86 293.349 113.907C293.266 113.953 293.172 113.978 293.077 113.978C292.982 113.978 292.888 113.954 292.805 113.908L290.708 112.253C290.627 112.201 290.533 112.173 290.437 112.173C290.341 112.173 290.247 112.201 290.167 112.253L287.222 113.908C286.8 114.145 286.396 113.826 286.632 113.442L288.281 110.765C288.334 110.695 288.358 110.609 288.349 110.522C288.34 110.436 288.299 110.356 288.233 110.299L286.136 108.644C285.836 108.407 286.154 107.891 286.6 107.891H289.716C289.818 107.889 289.918 107.861 290.008 107.811C290.097 107.761 290.172 107.69 290.228 107.603L291.876 104.925C292.112 104.542 292.713 104.542 292.752 104.925Z" fill="#E6A4EF"/>
<path style="mix-blend-mode:overlay" opacity="0.5" d="M295.719 107.632C295.13 108.464 294.704 109.401 294.463 110.392C294.076 112.515 295.677 114.213 296.013 116.265C296.135 117.823 295.71 119.375 294.81 120.653C293.072 121.42 291.228 121.921 289.34 122.139C288.762 122.197 288.181 122.221 287.599 122.21C287.03 122.222 286.461 122.198 285.895 122.139C283.79 121.905 281.777 121.151 280.036 119.945C278.995 119.166 278.128 118.178 277.491 117.044C279.808 116.638 282.055 115.899 284.16 114.85C287.161 113.223 289.699 110.038 289.021 107.491C288.366 105.155 285.47 104.235 283.924 102.324C283.463 101.739 283.13 101.064 282.943 100.343C286.165 97.8221 290.126 96.4297 294.216 96.3802C295.862 96.3117 297.504 96.5915 299.034 97.2012C300.565 97.8109 301.949 98.7369 303.097 99.9186L302.519 100.343C299.891 102.409 297.597 104.867 295.719 107.632V107.632Z" fill="url(#paint6_linear_18_19)"/>
<path d="M189.127 78.9457L187.671 81.9561L184.26 89.2185C183.835 90.111 183.225 90.9031 182.47 91.5421C181.716 92.1811 180.835 92.6526 179.884 92.9252C178.284 93.3376 176.59 93.1749 175.098 92.4654L165.625 87.9822C164.409 87.4129 163.389 86.4941 162.696 85.3429C162.108 84.3749 161.769 83.2764 161.708 82.1453C161.647 81.0142 161.867 79.8857 162.348 78.8603L163.605 76.1976L165.829 71.5879L167.111 68.8508L167.106 68.8161L167.246 68.5479L177.255 73.3104L182.471 75.8039L189.127 78.9457Z" fill="#1F4B6F"/>
<path d="M193.934 82.3135C193.825 82.3644 193.704 82.3816 193.586 82.3627L193.154 82.3173L187.671 81.9561L178.997 81.3712L175.091 81.1068C174.841 81.0772 174.61 80.9586 174.44 80.7728L172.891 79.11L168.172 74.0971L165.829 71.5879L161.774 67.262C161.638 67.1217 161.548 66.9432 161.515 66.7502C161.483 66.5573 161.51 66.3591 161.592 66.1818C161.675 66.0045 161.81 65.8566 161.979 65.7576C162.147 65.6586 162.342 65.6133 162.537 65.6276L165.977 65.8516L176.554 66.5935L181.033 66.8836C181.283 66.9133 181.514 67.0318 181.683 67.2177L186.954 72.8629L194.349 80.7284C194.46 80.8483 194.538 80.9942 194.578 81.1525C194.617 81.3108 194.616 81.4766 194.575 81.6345C194.534 81.7924 194.453 81.9373 194.341 82.056C194.229 82.1746 194.089 82.2632 193.934 82.3135V82.3135Z" fill="#E6A4EF"/>
<path d="M193.939 82.3087C193.949 82.3776 193.943 82.448 193.921 82.514C193.119 84.4524 192.284 86.1611 191.543 87.6541C189.703 91.4081 188.752 93.5078 189.741 94.8809C189.894 95.1049 190.085 95.2998 190.306 95.4563C190.347 95.4857 190.382 95.5231 190.408 95.5663C190.434 95.6095 190.451 95.6576 190.459 95.7077C190.466 95.7577 190.462 95.8087 190.449 95.8574C190.436 95.9062 190.413 95.9518 190.382 95.9914C190.352 96.0343 190.313 96.0708 190.269 96.0985C190.225 96.1262 190.175 96.1447 190.124 96.1527C190.024 96.162 189.924 96.1312 189.846 96.0672C189.642 95.9175 189.455 95.745 189.29 95.553C187.694 93.7508 188.976 91.1208 190.84 87.3167C191.57 85.8565 192.381 84.1978 193.161 82.325C193.172 82.2923 193.196 82.242 193.207 82.2092C193.25 82.1147 193.329 82.041 193.425 82.004C193.522 81.967 193.63 81.9696 193.725 82.0114C193.782 82.0405 193.83 82.0827 193.868 82.1344C193.905 82.1861 193.929 82.2458 193.939 82.3087Z" fill="#1F4B6F"/>
<path d="M193.13 97.1161C193.05 97.285 192.929 97.4314 192.779 97.5425C192.629 97.6535 192.453 97.7256 192.268 97.7525C192.046 97.7823 191.82 97.7494 191.615 97.6576L189.893 96.8403C189.658 96.7307 189.468 96.5416 189.358 96.3062C189.247 96.0708 189.224 95.8041 189.29 95.5529C189.297 95.4741 189.318 95.3972 189.352 95.3258C189.442 95.1468 189.576 94.9936 189.741 94.8808C189.886 94.7789 190.053 94.7126 190.228 94.6872C190.451 94.6552 190.677 94.6881 190.881 94.782L192.586 95.5863C192.858 95.7199 193.068 95.9547 193.169 96.2405C193.271 96.5264 193.257 96.8406 193.13 97.1161V97.1161Z" fill="#E6A4EF"/>
<path style="mix-blend-mode:overlay" opacity="0.5" d="M186.954 72.8629C185.312 73.5964 183.798 74.5894 182.471 75.8039C180.785 77.2729 179.576 79.2113 178.997 81.3712C178.95 81.4772 178.919 81.5892 178.903 81.7041C178.146 85.3963 179.676 89.1916 179.884 92.9251C178.284 93.3376 176.59 93.1749 175.098 92.4653L165.625 87.9822C164.409 87.4129 163.389 86.494 162.696 85.3429C162.826 85.2538 162.925 85.2041 163.054 85.1148C165.404 83.4526 167.074 80.9979 167.758 78.2023C168.094 76.8612 168.234 75.4783 168.172 74.0971C168.125 72.638 167.885 71.1916 167.458 69.7958C167.378 69.4687 167.262 69.1517 167.111 68.8508L167.106 68.816C166.782 67.8089 166.405 66.8194 165.977 65.8516L176.554 66.5934L181.033 66.8836C181.283 66.9132 181.514 67.0318 181.683 67.2176L186.954 72.8629Z" fill="url(#paint7_linear_18_19)"/>
<path d="M154.353 144.973L158.922 124.338L161.588 124.885C161.735 128.37 161.829 131.754 161.87 135.038C162.001 143.885 161.048 149.508 159.009 151.908C158.1 153.049 156.844 153.864 155.43 154.228C153.884 154.604 152.283 154.694 150.704 154.494C147.488 154.104 144.315 153.407 141.231 152.415C140.152 152.094 139.13 151.608 138.201 150.974C137.927 150.785 137.715 150.519 137.592 150.21L137.572 149.824C137.793 148.851 139.94 147.786 144.015 146.628C147.371 145.615 150.848 145.058 154.353 144.973" fill="#E6A4EF"/>
<path d="M145.521 119.652L149.629 125.839L199.25 200.573C201.915 204.569 205.267 208.061 209.149 210.89L211.234 212.439L214.076 214.423L222.926 220.862C223.302 221.124 223.749 221.265 224.207 221.264C224.665 221.264 225.112 221.124 225.488 220.862C225.864 220.599 226.15 220.228 226.308 219.798C226.466 219.368 226.489 218.9 226.373 218.457L223.872 207.8L222.5 202.026C221.455 197.332 219.533 192.877 216.834 188.897L168.943 116.769L167.105 114.001L163.105 107.977C156.294 97.7196 138.711 109.394 145.521 119.652Z" fill="#1F4B6F"/>
<path d="M223.906 207.842C221.901 208.205 219.992 208.974 218.295 210.1C216.598 211.227 215.149 212.688 214.037 214.395L222.917 220.8C223.278 221.078 223.718 221.236 224.173 221.252C224.629 221.268 225.079 221.141 225.459 220.889C225.839 220.637 226.13 220.272 226.292 219.845C226.455 219.419 226.479 218.953 226.363 218.512L223.906 207.842Z" fill="#E6A4EF"/>
<path d="M167.105 114.001C163.493 114.402 160.037 115.69 157.043 117.749C153.873 119.71 151.307 122.51 149.629 125.839L152.44 130.073C154.115 126.786 156.673 124.032 159.827 122.119C162.295 120.402 165.079 119.191 168.018 118.556C168.723 118.557 169.32 118.396 170.024 118.397L168.943 116.769L167.105 114.001Z" fill="white"/>
<path style="mix-blend-mode:overlay" d="M145.521 119.652L149.629 125.839L199.25 200.573C201.915 204.569 205.267 208.061 209.149 210.89L211.234 212.439C211.68 210.135 211.775 207.778 211.518 205.447C210.637 198.643 207.097 192.429 202.961 187.082C191.443 172.208 174.442 161.445 166.452 144.463C165.082 141.847 164.223 138.994 163.92 136.057C163.84 132.943 164.323 129.841 165.346 126.899C165.966 124.038 166.861 121.244 168.018 118.556C168.29 117.906 168.698 117.283 168.943 116.769L167.105 114.001L163.105 107.977C156.294 97.7196 138.711 109.394 145.521 119.652Z" fill="url(#paint8_linear_18_19)"/>
<path d="M151.706 245.914L155.436 247.089C159.582 231.601 163.728 216.113 164.354 204.684C164.979 193.255 162.084 185.886 159.188 178.516L147.697 180.23C147.299 183.813 147.487 187.438 148.255 190.961C149.722 196.383 151.547 201.703 153.716 206.885L151.706 245.914Z" fill="#1F4B6F"/>
<path d="M130.925 244.645L134.378 246.481C141.28 232.009 148.181 217.537 150.881 206.413C153.58 195.291 152.078 187.516 150.575 179.742L138.964 179.332C137.919 182.782 137.443 186.38 137.555 189.984C138.009 195.584 138.832 201.147 140.02 206.637L130.925 244.645Z" fill="#1F4B6F"/>
<path d="M137.069 183.473L138.124 183.648C142.093 184.453 146.132 184.862 150.182 184.869C153.959 184.66 157.692 183.951 161.283 182.758C160.047 177.321 159.23 171.797 158.838 166.234C158.743 162.023 159.195 157.816 160.184 153.721C155.847 150.102 152.322 148.12 149.61 147.774C145.534 147.491 141.448 148.144 137.662 149.682C136.354 153.221 135.695 156.967 135.718 160.74C135.595 164.295 136.046 171.872 137.069 183.473" fill="#E6A4EF"/>
<path d="M157.991 150.063L167.32 158.288L182.382 143.462L184.321 145.372C179.272 154.261 174.222 163.149 168.949 165.953C167.68 166.64 166.261 167.002 164.818 167.006C163.07 166.964 161.363 166.461 159.871 165.549C158.378 164.637 157.152 163.348 156.317 161.811C154.454 158.149 156.222 154.106 157.991 150.063Z" fill="#E6A4EF"/>
<path d="M143.175 149.055C143.941 148.413 144.543 147.598 144.931 146.677C145.248 145.473 145.382 144.229 145.326 142.985L149.283 143.461C148.966 144.545 148.871 145.681 149.004 146.802C149.309 147.687 149.871 148.461 150.619 149.023C149.462 149.483 148.241 149.764 146.999 149.855L146.928 149.856C145.643 149.784 144.377 149.514 143.175 149.055V149.055Z" fill="#FAA991"/>
<path d="M142.434 134.151L143.395 143.17C145.513 144.607 147.631 146.045 149.298 146.018C149.67 146.017 150.036 145.925 150.365 145.752C150.693 145.578 150.975 145.327 151.186 145.02C152.89 142.739 153.257 136.111 151.575 133.575C151.27 133.119 150.848 132.755 150.354 132.519C149.86 132.283 149.311 132.184 148.765 132.232C146.562 132.51 144.421 133.158 142.434 134.151V134.151ZM182.429 143.547L182.348 143.217C182.175 142.537 182.045 141.945 181.958 141.44C181.907 141.203 181.895 140.96 181.923 140.719C181.924 140.693 181.932 140.668 181.945 140.646C181.958 140.624 181.976 140.605 181.998 140.592C182.02 140.579 182.045 140.571 182.07 140.569C182.096 140.568 182.122 140.573 182.145 140.584C182.207 140.603 182.266 140.63 182.322 140.663C182.675 140.892 182.893 141.027 182.975 141.069C183.071 141.126 183.178 141.163 183.289 141.176C183.365 141.181 183.441 141.164 183.508 141.127C183.575 141.089 183.629 141.034 183.666 140.967C183.809 140.686 183.862 140.368 183.818 140.055C183.802 139.857 183.766 139.662 183.711 139.471L183.396 138.453C183.348 138.269 183.361 138.152 183.436 138.102C183.808 138.077 184.505 138.523 185.526 139.441C185.749 139.652 185.959 139.876 186.156 140.112L186.428 140.469C186.591 140.696 186.728 140.941 186.835 141.199L186.947 141.561L186.986 141.915L186.955 142.261L186.862 142.6C186.773 142.834 186.655 143.055 186.51 143.259L186.266 143.58C186.079 143.802 185.88 144.012 185.668 144.21C185.22 144.624 184.738 145.035 184.222 145.441L182.429 143.547" fill="#FCC6B6"/>
<path d="M151.831 245.112C151.329 245.789 150.941 246.544 150.681 247.346C150.549 248.1 150.567 248.872 150.736 249.618L162.409 249.933C163.132 249.451 163.855 248.97 162.786 248.246C160.607 247.155 158.333 246.265 155.992 245.587C155.391 245.896 154.734 246.084 154.061 246.139C153.989 246.139 153.918 246.134 153.847 246.126C153.103 245.955 152.412 245.607 151.831 245.112V245.112ZM131.075 243.952C130.573 244.629 130.184 245.384 129.925 246.186C129.792 246.939 129.811 247.711 129.979 248.458L141.652 248.773C142.375 248.291 143.099 247.81 142.03 247.085C139.85 245.995 137.576 245.105 135.236 244.426C134.635 244.735 133.978 244.923 133.305 244.979C133.233 244.978 133.161 244.974 133.09 244.966C132.347 244.795 131.655 244.447 131.075 243.952V243.952Z" fill="#4577C5"/>
<path d="M145.219 131.751L144.988 131.765L143.027 131.836C142.817 131.848 142.609 131.879 142.405 131.929C141.924 132.044 141.489 132.302 141.157 132.669C140.66 133.276 140.29 133.977 140.069 134.729C139.847 135.482 139.779 136.271 139.867 137.05C140.092 137.895 140.553 138.657 141.197 139.249C141.096 141.531 141.442 142.993 142.237 143.632C142.767 144.097 143.396 144.436 144.076 144.623C145.251 144.973 146.45 145.236 147.664 145.407C147.939 145.092 148.138 144.719 148.247 144.315C148.356 143.912 148.371 143.489 148.291 143.079C148.296 143.01 148.159 142.822 147.88 142.513C147.352 142.048 146.799 141.612 146.223 141.208C145.994 141.022 145.79 140.807 145.617 140.568C145.445 140.348 145.327 140.091 145.271 139.818C145.215 139.545 145.224 139.262 145.297 138.993C145.401 138.678 145.667 138.617 146.095 138.81C146.325 138.943 146.54 139.101 146.735 139.281L147.776 140.221C148.028 140.42 148.17 140.498 148.202 140.454C148.236 140.416 148.26 140.37 148.271 140.32C148.282 140.27 148.28 140.218 148.265 140.169C148.144 139.597 148.087 139.013 148.097 138.429C148.092 138.238 148.136 138.048 148.227 137.88C148.318 137.712 148.452 137.571 148.615 137.472C148.859 137.363 149.124 137.308 149.391 137.309C150.363 137.382 151.34 137.369 152.31 137.271C152.929 137.21 153.517 136.969 154 136.577C154.365 136.243 154.652 135.832 154.838 135.373C155.016 134.951 155.145 134.509 155.222 134.057C155.393 133.086 155.379 132.092 155.181 131.126C155.088 130.671 154.938 130.23 154.734 129.812C154.52 129.364 154.207 128.971 153.819 128.661C152.996 128.108 152.001 127.871 151.017 127.994C149.381 128.136 147.797 128.641 146.38 129.472C145.924 129.723 145.549 130.099 145.299 130.556C145.157 130.938 145.129 131.353 145.219 131.751" fill="#0E1D73"/>
<defs>
<linearGradient id="paint0_linear_18_19" x1="248.528" y1="107.767" x2="314.151" y2="190.049" gradientUnits="userSpaceOnUse">
<stop stop-color="white"/>
<stop offset="0.014" stop-color="#F9F9F9"/>
<stop offset="0.177" stop-color="#B8B8B8"/>
<stop offset="0.338" stop-color="#808080"/>
<stop offset="0.493" stop-color="#525252"/>
<stop offset="0.64" stop-color="#2E2E2E"/>
<stop offset="0.777" stop-color="#151515"/>
<stop offset="0.901" stop-color="#050505"/>
<stop offset="1"/>
</linearGradient>
<linearGradient id="paint1_linear_18_19" x1="16049.9" y1="10979.9" x2="6177.04" y2="21938.8" gradientUnits="userSpaceOnUse">
<stop stop-color="white"/>
<stop offset="0.014" stop-color="#F9F9F9"/>
<stop offset="0.177" stop-color="#B8B8B8"/>
<stop offset="0.338" stop-color="#808080"/>
<stop offset="0.493" stop-color="#525252"/>
<stop offset="0.64" stop-color="#2E2E2E"/>
<stop offset="0.777" stop-color="#151515"/>
<stop offset="0.901" stop-color="#050505"/>
<stop offset="1"/>
</linearGradient>
<linearGradient id="paint2_linear_18_19" x1="3866.75" y1="1444.36" x2="4747.18" y2="1444.36" gradientUnits="userSpaceOnUse">
<stop stop-color="white"/>
<stop offset="0.014" stop-color="#F9F9F9"/>
<stop offset="0.177" stop-color="#B8B8B8"/>
<stop offset="0.338" stop-color="#808080"/>
<stop offset="0.493" stop-color="#525252"/>
<stop offset="0.64" stop-color="#2E2E2E"/>
<stop offset="0.777" stop-color="#151515"/>
<stop offset="0.901" stop-color="#050505"/>
<stop offset="1"/>
</linearGradient>
<linearGradient id="paint3_linear_18_19" x1="5735.73" y1="1812.84" x2="7763.81" y2="1812.84" gradientUnits="userSpaceOnUse">
<stop stop-color="white"/>
<stop offset="0.014" stop-color="#F9F9F9"/>
<stop offset="0.177" stop-color="#B8B8B8"/>
<stop offset="0.338" stop-color="#808080"/>
<stop offset="0.493" stop-color="#525252"/>
<stop offset="0.64" stop-color="#2E2E2E"/>
<stop offset="0.777" stop-color="#151515"/>
<stop offset="0.901" stop-color="#050505"/>
<stop offset="1"/>
</linearGradient>
<linearGradient id="paint4_linear_18_19" x1="349.475" y1="236.184" x2="295.445" y2="243.612" gradientUnits="userSpaceOnUse">
<stop stop-color="white"/>
<stop offset="0.256" stop-color="#C2C2C2"/>
<stop offset="0.845" stop-color="#292929"/>
<stop offset="1"/>
</linearGradient>
<linearGradient id="paint5_linear_18_19" x1="5960.36" y1="8393.83" x2="7201.78" y2="9050.57" gradientUnits="userSpaceOnUse">
<stop stop-color="white"/>
<stop offset="0.256" stop-color="#C2C2C2"/>
<stop offset="0.845" stop-color="#292929"/>
<stop offset="1"/>
</linearGradient>
<linearGradient id="paint6_linear_18_19" x1="2850.18" y1="1408.1" x2="3167.23" y2="1489.31" gradientUnits="userSpaceOnUse">
<stop stop-color="white"/>
<stop offset="0.256" stop-color="#C2C2C2"/>
<stop offset="0.845" stop-color="#292929"/>
<stop offset="1"/>
</linearGradient>
<linearGradient id="paint7_linear_18_19" x1="1154.1" y1="-13.7212" x2="1538.89" y2="-68.0873" gradientUnits="userSpaceOnUse">
<stop stop-color="white"/>
<stop offset="0.256" stop-color="#C2C2C2"/>
<stop offset="0.845" stop-color="#292929"/>
<stop offset="1"/>
</linearGradient>
<linearGradient id="paint8_linear_18_19" x1="5932.09" y1="7783.39" x2="1493.61" y2="12206.3" gradientUnits="userSpaceOnUse">
<stop stop-color="white"/>
<stop offset="0.014" stop-color="#F9F9F9"/>
<stop offset="0.177" stop-color="#B8B8B8"/>
<stop offset="0.338" stop-color="#808080"/>
<stop offset="0.493" stop-color="#525252"/>
<stop offset="0.64" stop-color="#2E2E2E"/>
<stop offset="0.777" stop-color="#151515"/>
<stop offset="0.901" stop-color="#050505"/>
<stop offset="1"/>
</linearGradient>
</defs>
</svg>
