<svg width="891" height="847" viewBox="0 0 891 847" fill="none" xmlns="http://www.w3.org/2000/svg">
<g opacity="0.46">
<g opacity="0.46">
<path opacity="0.46" d="M214.897 279.116L46.9494 375.846C40.5842 379.513 32.6367 374.917 32.6367 367.57V315.574C32.6367 312.158 34.4603 309.002 37.4206 307.298L205.368 210.567C211.734 206.9 219.681 211.496 219.681 218.843V270.839C219.68 274.256 217.857 277.411 214.897 279.116Z" fill="url(#paint0_linear_3_644)"/>
</g>
<g opacity="0.46">
<path opacity="0.46" d="M422.466 198.89L254.518 295.621C248.153 299.287 240.205 294.691 240.205 287.344V235.348C240.205 231.933 242.029 228.776 244.989 227.072L412.937 130.341C419.302 126.674 427.25 131.27 427.25 138.617V190.614C427.25 194.03 425.426 197.185 422.466 198.89Z" fill="url(#paint1_linear_3_644)"/>
</g>
<g opacity="0.46">
<path opacity="0.46" d="M438.168 93.9994L270.22 190.73C263.855 194.397 255.908 189.801 255.908 182.454V130.458C255.908 127.042 257.731 123.886 260.692 122.181L428.639 25.4505C435.004 21.7839 442.952 26.38 442.952 33.7267V85.7232C442.951 89.1386 441.127 92.2951 438.168 93.9994Z" fill="url(#paint2_linear_3_644)"/>
</g>
</g>
<g opacity="0.46">
<path opacity="0.46" d="M214.535 337.215V446.558C214.535 451.904 211.685 456.844 207.057 459.517L60.7746 544.028C50.8001 549.791 38.3295 542.59 38.3295 531.069V421.112C38.3295 415.749 41.1983 410.796 45.8488 408.129L192.131 324.232C202.105 318.512 214.535 325.714 214.535 337.215Z" fill="url(#paint3_linear_3_644)"/>
</g>
<g filter="url(#filter0_d_3_644)">
<path d="M422.461 756.383L91.4222 565.2C79.4304 558.275 79.4304 540.961 91.4232 534.037L458.723 321.947C470.979 314.871 486.074 314.857 498.343 321.908L836.814 516.475C848.833 523.385 848.85 540.722 836.845 547.656L475.428 756.383C459.04 765.848 438.849 765.848 422.461 756.383Z" fill="url(#paint4_linear_3_644)"/>
</g>
<path d="M618.362 506.728L663.841 534.339L472.603 644.783L402.614 603.678" stroke="#F5FAFF" stroke-width="3" stroke-miterlimit="10"/>
<path d="M420.31 596.175L472.603 626.376L600.095 552.746L570.68 535.759" stroke="#F5FAFF" stroke-width="3" stroke-miterlimit="10"/>
<path d="M502.018 535.759L420.31 582.947" stroke="#F5FAFF" stroke-width="3" stroke-miterlimit="10"/>
<path d="M467.923 518.694L430.514 540.24" stroke="#F5FAFF" stroke-width="3" stroke-miterlimit="10"/>
<path d="M424.512 617.335L361.049 653.987L298.955 617.172L349.334 587.124" stroke="#F5FAFF" stroke-width="3" stroke-miterlimit="10"/>
<path d="M422.2 413.194L392.922 395.308L314.005 441.86" stroke="#F5FAFF" stroke-width="3" stroke-miterlimit="10"/>
<path d="M452.966 394.146L408.858 367.763L317.452 421.423" stroke="#F5FAFF" stroke-width="3" stroke-miterlimit="10"/>
<path d="M504.476 368.673L442.756 331.447L303.255 409.667" stroke="#F5FAFF" stroke-width="3" stroke-miterlimit="10"/>
<path d="M727.586 589.561L679.777 561.95L727.586 534.339L653.706 491.741" stroke="#F5FAFF" stroke-width="3" stroke-miterlimit="10"/>
<path d="M439.481 587.124L456.667 598.765L538.428 551.546" stroke="#F5FAFF" stroke-width="3" stroke-miterlimit="10"/>
<path d="M791.332 552.746L670.404 481.911" stroke="#F5FAFF" stroke-width="3" stroke-miterlimit="10"/>
<path d="M823.205 534.339L704.541 465.807" stroke="#F5FAFF" stroke-width="3" stroke-miterlimit="10"/>
<path d="M362.118 440.751V462.413C362.118 464.343 363.047 466.1 364.501 466.924L530.937 561.248C535.041 563.574 539.797 563.574 543.901 561.248L709.982 467.126C711.653 466.179 712.72 464.16 712.72 461.943V440.751L537.419 533.851L362.118 440.751Z" fill="#F5FAFF"/>
<path d="M362.118 440.751V462.306C362.118 464.301 363.078 466.118 364.582 466.971L531.133 561.36C535.113 563.615 539.725 563.615 543.705 561.36L708.745 467.828C711.171 466.452 712.719 463.523 712.719 460.303V440.752L537.418 535.019L362.118 440.751Z" fill="url(#paint5_linear_3_644)"/>
<path d="M362.118 440.751L537.419 344.15L712.72 440.751L542.942 534.309C539.435 536.241 535.402 536.241 531.896 534.309L362.118 440.751Z" fill="#2A2F6D"/>
<path d="M362.118 440.751L537.419 344.15L712.72 440.751L542.942 534.309C539.435 536.241 535.402 536.241 531.896 534.309L362.118 440.751Z" fill="url(#paint6_linear_3_644)"/>
<path d="M535.473 482.985C585.671 482.985 626.365 460.56 626.365 432.898C626.365 405.236 585.671 382.812 535.473 382.812C485.275 382.812 444.581 405.236 444.581 432.898C444.581 460.56 485.275 482.985 535.473 482.985Z" fill="url(#paint7_linear_3_644)"/>
<path d="M535.473 469.027C571.682 469.027 601.034 452.852 601.034 432.899C601.034 412.946 571.682 396.771 535.473 396.771C499.264 396.771 469.912 412.946 469.912 432.899C469.912 452.852 499.264 469.027 535.473 469.027Z" fill="url(#paint8_linear_3_644)"/>
<path d="M535.473 453.192C555.811 453.192 572.298 444.106 572.298 432.899C572.298 421.691 555.811 412.605 535.473 412.605C515.135 412.605 498.648 421.691 498.648 432.899C498.648 444.106 515.135 453.192 535.473 453.192Z" fill="#F5FAFF"/>
<path d="M532.518 437.816V510.741C532.518 512.698 533.841 514.286 535.473 514.286C537.105 514.286 538.427 512.699 538.427 510.741V437.816C538.427 435.886 537.14 434.31 535.531 434.272C533.878 434.233 532.518 435.831 532.518 437.816Z" fill="url(#paint9_linear_3_644)"/>
<path d="M386.485 375.662V436.465C386.485 438.097 387.808 439.42 389.44 439.42C391.072 439.42 392.394 438.097 392.394 436.465V375.662C392.394 374.053 391.107 372.739 389.498 372.707C387.845 372.675 386.485 374.007 386.485 375.662Z" fill="url(#paint10_linear_3_644)"/>
<path d="M679.982 362.881V435.806C679.982 437.764 681.304 439.351 682.936 439.351C684.568 439.351 685.891 437.765 685.891 435.806V362.881C685.891 360.951 684.603 359.375 682.994 359.337C681.341 359.297 679.982 360.896 679.982 362.881Z" fill="url(#paint11_linear_3_644)"/>
<g opacity="0.5">
<path opacity="0.5" d="M535.617 522.011C532.401 522.011 529.284 521.195 526.352 519.586L390.988 445.236C384.193 441.503 379.801 433.245 379.801 424.196V113.018C379.801 107.348 383.539 102.667 388.134 102.584L687.367 97.1785C692.027 97.1785 695.819 101.86 695.819 107.614V432.225C695.819 436.388 693.813 440.15 690.705 441.807L544.656 519.705C541.789 521.235 538.748 522.011 535.617 522.011C535.618 522.011 535.618 522.011 535.617 522.011Z" fill="url(#paint12_linear_3_644)"/>
<g opacity="0.5">
<path opacity="0.5" d="M687.368 98.6385C691.224 98.6385 694.361 102.665 694.361 107.614V432.225C694.361 435.856 692.657 439.111 690.02 440.518L543.971 518.418C541.316 519.834 538.506 520.551 535.618 520.551C532.651 520.551 529.77 519.795 527.056 518.305L391.693 443.956C385.357 440.476 381.263 432.72 381.263 424.196V113.019C381.263 108.139 384.358 104.113 388.162 104.044L687.268 98.6395L687.368 98.6385ZM687.368 95.7185C687.317 95.7185 687.267 95.7185 687.215 95.7195L388.109 101.124C382.691 101.223 378.342 106.519 378.342 113.019V424.196C378.342 433.798 383.008 442.518 390.286 446.515L525.65 520.864C528.814 522.601 532.215 523.471 535.617 523.471C538.931 523.471 542.247 522.646 545.344 520.994L691.393 443.094C694.973 441.185 697.28 436.925 697.28 432.225V107.614C697.28 101.035 692.833 95.7185 687.368 95.7185Z" fill="#FFFEFF"/>
</g>
</g>
<g opacity="0.58">
<path opacity="0.58" d="M535.618 522.011C532.402 522.01 529.285 521.194 526.353 519.585L390.988 445.235C384.194 441.502 379.802 433.243 379.802 424.195V113.018C379.802 107.349 383.541 102.668 388.135 102.585L687.367 97.1785C692.028 97.1785 695.821 101.86 695.821 107.614V432.225C695.821 436.388 693.814 440.149 690.706 441.807L544.657 519.705C541.789 521.235 538.747 522.011 535.618 522.011Z" fill="url(#paint13_linear_3_644)"/>
<g opacity="0.58">
<path opacity="0.58" d="M687.368 98.6385C691.224 98.6385 694.361 102.665 694.361 107.614V432.225C694.361 435.856 692.657 439.111 690.02 440.518L543.971 518.418C541.316 519.834 538.506 520.551 535.618 520.551C532.651 520.551 529.77 519.795 527.056 518.305L391.693 443.956C385.357 440.476 381.263 432.72 381.263 424.196V113.019C381.263 108.139 384.358 104.113 388.162 104.044L687.268 98.6395L687.368 98.6385ZM687.368 95.7185C687.317 95.7185 687.267 95.7185 687.215 95.7195L388.109 101.124C382.691 101.223 378.342 106.519 378.342 113.019V424.196C378.342 433.798 383.008 442.518 390.286 446.515L525.65 520.864C528.814 522.601 532.215 523.471 535.617 523.471C538.931 523.471 542.247 522.646 545.344 520.994L691.393 443.094C694.973 441.185 697.28 436.925 697.28 432.225V107.614C697.281 101.035 692.832 95.7185 687.368 95.7185Z" fill="#F5FAFF"/>
</g>
</g>
<path d="M546.165 510.263C546.165 510.263 590.868 472.457 592.169 442.302C593.47 412.147 584.867 395.027 631.968 370.926C679.069 346.824 690.646 267.432 690.646 267.432V431.688L546.165 510.263Z" fill="url(#paint14_linear_3_644)"/>
<path opacity="0.21" d="M694.287 111.722L693.929 414.419C693.929 420.473 686.655 430.819 681.447 433.214L612.096 465.071C606.582 467.602 600.443 463.29 600.443 456.895V164.457C616.416 161.08 631.405 156.641 644.774 151.152C666.524 142.216 683.19 129.925 694.287 111.722Z" fill="url(#paint15_linear_3_644)"/>
<path d="M537.419 170.201C625.337 170.201 696.609 137.291 696.609 96.6946C696.609 56.0983 625.337 23.1885 537.419 23.1885C449.501 23.1885 378.229 56.0983 378.229 96.6946C378.229 137.291 449.501 170.201 537.419 170.201Z" fill="#CDE9F9"/>
<path d="M537.419 170.201C625.337 170.201 696.609 137.291 696.609 96.6946C696.609 56.0983 625.337 23.1885 537.419 23.1885C449.501 23.1885 378.229 56.0983 378.229 96.6946C378.229 137.291 449.501 170.201 537.419 170.201Z" fill="#F5FAFF"/>
<path d="M537.419 146.148C620.92 146.148 688.611 118.553 688.611 84.5143C688.611 50.4751 620.92 22.8809 537.419 22.8809C453.918 22.8809 386.228 50.4751 386.228 84.5143C386.228 118.553 453.918 146.148 537.419 146.148Z" fill="#BD8AAE"/>
<path d="M537.419 146.148C620.92 146.148 688.611 118.553 688.611 84.5143C688.611 50.4751 620.92 22.8809 537.419 22.8809C453.918 22.8809 386.228 50.4751 386.228 84.5143C386.228 118.553 453.918 146.148 537.419 146.148Z" fill="url(#paint16_linear_3_644)"/>
<path d="M537.419 119.398C591.008 119.398 634.45 101.689 634.45 79.8442C634.45 57.9989 591.008 40.2898 537.419 40.2898C483.83 40.2898 440.388 57.9989 440.388 79.8442C440.388 101.689 483.83 119.398 537.419 119.398Z" fill="url(#paint17_linear_3_644)"/>
<path d="M537.419 130.184C605.62 130.184 660.908 107.646 660.908 79.8442C660.908 52.0423 605.62 29.5044 537.419 29.5044C469.218 29.5044 413.931 52.0423 413.931 79.8442C413.931 107.646 469.218 130.184 537.419 130.184Z" stroke="#1BA0DB" stroke-width="3" stroke-miterlimit="10"/>
<path d="M537.419 88.8894C559.163 88.8894 576.791 81.7038 576.791 72.8401C576.791 63.9763 559.163 56.7908 537.419 56.7908C515.675 56.7908 498.047 63.9763 498.047 72.8401C498.047 81.7038 515.675 88.8894 537.419 88.8894Z" fill="#CDE9F9"/>
<path d="M537.42 80.2121C526.935 80.2121 517.112 78.5623 509.763 75.5673C502.553 72.6278 498.583 68.7569 498.583 64.6689C498.583 60.5799 502.553 56.71 509.763 53.7705C517.112 50.7746 526.935 49.1257 537.42 49.1257C547.905 49.1257 557.727 50.7755 565.076 53.7705C572.286 56.71 576.256 60.5809 576.256 64.6689C576.256 68.7569 572.286 72.6278 565.076 75.5673C557.727 78.5623 547.905 80.2121 537.42 80.2121Z" fill="url(#paint18_linear_3_644)"/>
<path d="M537.419 49.6115C547.843 49.6115 557.6 51.2487 564.891 54.2212C571.804 57.039 575.77 60.8477 575.769 64.669C575.769 68.4903 571.804 72.298 564.891 75.1167C557.6 78.0893 547.843 79.7264 537.419 79.7264C526.995 79.7264 517.238 78.0893 509.947 75.1167C503.034 72.2989 499.069 68.4903 499.069 64.669C499.069 60.8477 503.034 57.04 509.947 54.2212C517.238 51.2487 526.995 49.6115 537.419 49.6115ZM537.419 48.6382C527.327 48.6382 517.236 50.1984 509.579 53.3199C494.267 59.5619 494.267 69.7761 509.579 76.0181C517.235 79.1386 527.327 80.6998 537.419 80.6998C547.511 80.6998 557.603 79.1395 565.259 76.0181C580.571 69.7761 580.571 59.5619 565.259 53.3199C557.604 50.1984 547.511 48.6382 537.419 48.6382Z" fill="#E7F6FD"/>
<path d="M587.47 284.327C585.817 283.465 584.159 282.723 582.511 282.108C578.27 250.382 558.576 219.13 534.436 206.531C505.385 191.367 479.994 208.432 477.837 244.572C477.8 245.185 477.771 245.803 477.749 246.423L477.589 246.339C458.078 236.155 441.027 247.616 439.579 271.884C438.131 296.143 452.826 324.165 472.337 334.349L504.145 350.95C506.151 351.997 507.897 350.823 508.046 348.328C508.195 345.832 506.69 342.962 504.684 341.915L472.876 325.314C457.37 317.221 445.692 294.955 446.842 275.676C447.994 256.39 461.544 247.281 477.05 255.374L481.089 257.482C482.118 258.019 483.132 257.987 483.877 257.394C484.623 256.802 485.029 255.704 484.998 254.375C484.95 252.346 484.983 250.324 485.101 248.362C486.96 217.203 508.85 202.49 533.897 215.563C555.737 226.962 573.355 256.06 575.788 284.749C575.897 286.032 576.392 287.373 577.158 288.469C577.927 289.568 578.906 290.329 579.872 290.581C582.192 291.192 584.568 292.126 586.931 293.36C606.595 303.623 621.406 331.864 619.947 356.314C619.204 368.757 614.216 378.499 606.263 383.045C606.167 383.098 606.078 383.159 605.991 383.228C600.479 387.591 592.542 387.77 584.759 383.707L555.813 368.599C553.807 367.552 552.06 368.726 551.912 371.222C551.763 373.717 553.267 376.587 555.274 377.635L584.22 392.743C594.11 397.904 603.82 397.702 610.891 392.197C620.376 386.698 626.321 375.014 627.21 360.105C628.966 330.674 611.139 296.68 587.47 284.327Z" fill="url(#paint19_linear_3_644)"/>
<path d="M573.337 342.133C573.946 343.05 574.677 343.72 575.416 344.106C576.54 344.692 577.686 344.625 578.469 343.778C579.768 342.374 579.577 339.361 578.041 337.048L537.943 276.651C537.926 276.624 537.906 276.603 537.889 276.578C537.832 276.493 537.768 276.415 537.707 276.333C537.589 276.175 537.47 276.022 537.344 275.881C537.275 275.802 537.204 275.729 537.132 275.655C536.997 275.516 536.858 275.388 536.717 275.269C536.65 275.213 536.585 275.155 536.517 275.103C536.086 274.774 535.64 274.541 535.196 274.414C535.125 274.393 535.057 274.382 534.987 274.367C534.841 274.336 534.697 274.317 534.554 274.31C534.477 274.306 534.402 274.304 534.327 274.307C534.193 274.313 534.064 274.335 533.935 274.364C533.868 274.38 533.8 274.389 533.736 274.41C533.716 274.417 533.696 274.417 533.676 274.424L489.01 290.58C487.299 291.199 486.77 293.836 487.828 296.47C488.885 299.102 491.129 300.74 492.841 300.119L531.431 286.159L525.033 393.385C524.884 395.88 526.389 398.751 528.395 399.797C530.402 400.844 532.148 399.67 532.296 397.175L538.695 289.949L573.337 342.133Z" fill="url(#paint20_linear_3_644)"/>
<path d="M578.502 288.937C576.85 288.074 575.192 287.333 573.544 286.718C569.302 254.992 549.609 223.74 525.469 211.14C496.417 195.977 471.026 213.042 468.87 249.182C468.833 249.794 468.804 250.412 468.781 251.032L468.622 250.949C449.111 240.765 432.06 252.226 430.612 276.494C429.164 300.753 443.859 328.774 463.37 338.958L495.177 355.56C497.184 356.607 498.93 355.433 499.079 352.937C499.228 350.442 497.723 347.572 495.717 346.525L463.909 329.924C448.402 321.831 436.725 299.565 437.875 280.286C439.026 260.999 452.577 251.891 468.083 259.984L472.12 262.091C473.15 262.629 474.164 262.596 474.908 262.004C475.655 261.412 476.06 260.314 476.029 258.984C475.982 256.956 476.015 254.933 476.132 252.971C477.992 221.813 499.882 207.1 524.929 220.173C546.769 231.571 564.387 260.669 566.82 289.358C566.929 290.642 567.423 291.982 568.19 293.078C568.959 294.177 569.938 294.938 570.904 295.19C573.224 295.802 575.599 296.736 577.963 297.969C597.627 308.232 612.437 336.473 610.978 360.924C610.236 373.367 605.248 383.109 597.294 387.654C597.2 387.708 597.109 387.769 597.023 387.837C591.511 392.201 583.574 392.38 575.791 388.318L546.845 373.21C544.839 372.163 543.092 373.336 542.943 375.832C542.794 378.328 544.299 381.198 546.305 382.245L575.252 397.353C585.142 402.515 594.852 402.313 601.922 396.807C611.407 391.309 617.352 379.624 618.242 364.716C619.998 335.285 602.171 301.29 578.502 288.937Z" fill="#F5FAFF"/>
<path d="M564.369 346.743C564.978 347.661 565.709 348.33 566.447 348.716C567.571 349.303 568.718 349.236 569.501 348.388C570.8 346.984 570.608 343.971 569.073 341.658L528.975 281.261C528.958 281.235 528.938 281.213 528.921 281.188C528.862 281.103 528.8 281.025 528.739 280.944C528.621 280.785 528.501 280.632 528.376 280.491C528.307 280.412 528.236 280.339 528.164 280.265C528.028 280.126 527.89 279.999 527.749 279.88C527.682 279.823 527.617 279.765 527.549 279.713C527.117 279.384 526.672 279.152 526.228 279.024C526.157 279.004 526.089 278.992 526.019 278.978C525.873 278.946 525.729 278.927 525.586 278.92C525.509 278.916 525.434 278.914 525.359 278.917C525.225 278.923 525.095 278.945 524.967 278.975C524.9 278.99 524.832 278.999 524.767 279.02C524.748 279.027 524.728 279.027 524.708 279.034L480.042 295.19C478.331 295.809 477.802 298.446 478.86 301.08C479.917 303.712 482.161 305.35 483.873 304.729L522.463 290.769L516.065 397.995C515.916 400.49 517.42 403.361 519.427 404.407C521.434 405.454 523.179 404.281 523.328 401.786L529.726 294.561L564.369 346.743Z" fill="#F5FAFF"/>
<path d="M394.146 617.335L240.864 528.322V414.22C240.864 414.22 389.465 480.836 403.098 499.228C416.73 517.62 401.83 582.943 401.83 582.943L394.146 617.335Z" fill="url(#paint21_linear_3_644)"/>
<path d="M443.522 496.895C443.522 519.855 443.522 588.32 443.522 588.32L394.146 617.335V523.661C394.146 523.661 395.81 512.166 388.473 502.832C386.594 500.428 384.103 498.17 380.843 496.281L243.02 417.626C240.129 415.972 240.149 411.796 243.058 410.18L279.813 389.73C283.18 387.862 287.268 387.871 290.615 389.75L428.653 467.159C428.653 467.159 435.951 470.488 440.311 480.367C442.189 484.592 443.522 490.013 443.522 496.895Z" fill="#E7F6FD"/>
<path d="M443.522 496.894C443.522 519.855 443.522 588.32 443.522 588.32L394.146 617.335V523.661C394.146 523.661 395.81 512.166 388.473 502.832L440.311 480.367C442.189 484.591 443.522 490.013 443.522 496.894Z" fill="url(#paint22_linear_3_644)"/>
<path d="M432.811 650.359L432.75 550.667H325.231L325.292 650.329L309.963 659.182C306.802 661.007 306.802 665.57 309.963 667.395L369.314 701.672C375.324 705.143 382.728 705.143 388.738 701.672L447.338 667.83C450.832 665.811 450.832 660.766 447.338 658.747L432.811 650.359Z" fill="url(#paint23_linear_3_644)"/>
<path d="M379.026 576.761C410.215 576.761 435.499 562.16 435.499 544.148C435.499 526.136 410.215 511.534 379.026 511.534C347.837 511.534 322.554 526.136 322.554 544.148C322.554 562.16 347.837 576.761 379.026 576.761Z" fill="url(#paint24_linear_3_644)"/>
<path d="M379.026 576.761C410.215 576.761 435.499 562.16 435.499 544.148C435.499 526.136 410.215 511.534 379.026 511.534C347.837 511.534 322.554 526.136 322.554 544.148C322.554 562.16 347.837 576.761 379.026 576.761Z" fill="url(#paint25_linear_3_644)"/>
<path d="M396.888 551.94L396.494 549.8L359.852 528.61C357.522 527.263 356.075 524.755 356.075 522.064V473.626L354.103 471.365L349.479 465.093L359.253 459.447L359.258 459.458L359.711 459.186C360.512 458.7 361.322 458.454 362.117 458.454C362.8 458.454 363.464 458.637 364.091 458.998L412.788 487.105C415.2 488.495 416.698 491.088 416.698 493.873L416.697 552.617C416.697 553.747 416.145 554.739 415.182 555.339L415.058 555.417L404.003 561.917L396.888 551.94Z" fill="url(#paint26_linear_3_644)"/>
<path d="M362.118 458.939C362.715 458.939 363.297 459.1 363.848 459.417L412.547 487.525C414.807 488.827 416.212 491.259 416.212 493.87L416.211 552.615C416.211 553.571 415.743 554.413 414.926 554.923L414.843 554.976L414.817 554.991L414.813 554.994L404.142 561.269L397.347 551.745L397.014 549.931L396.932 549.489L396.544 549.264L360.095 528.188C357.915 526.927 356.562 524.581 356.562 522.064V473.807V473.442L356.322 473.166L354.497 471.073L350.195 465.239L359.241 460.014L359.253 460.028L359.964 459.598C360.688 459.162 361.413 458.939 362.118 458.939ZM362.118 457.966C361.247 457.966 360.349 458.23 359.459 458.769L359.458 458.767L348.765 464.943L353.737 471.685L355.589 473.809V522.066C355.589 524.939 357.121 527.594 359.608 529.033L396.056 550.109L396.429 552.136L403.866 562.56L415.305 555.834C415.326 555.824 415.344 555.813 415.364 555.801L415.441 555.757V555.752C416.461 555.114 417.184 553.994 417.184 552.618L417.185 493.873C417.185 490.906 415.602 488.164 413.032 486.684L364.333 458.576C363.634 458.172 362.888 457.966 362.118 457.966Z" fill="#FDFEFE"/>
<path d="M402.098 562.526C401.538 562.526 400.998 562.379 400.496 562.09L351.231 533.6C348.901 532.254 347.454 529.746 347.454 527.055V468.062C347.454 466.131 349.076 464.936 350.581 464.936C351.125 464.936 351.647 465.078 352.133 465.358L401.405 493.795C403.818 495.187 405.316 497.78 405.316 500.564L405.315 559.31C405.315 560.195 404.969 561.016 404.338 561.619C403.736 562.196 402.919 562.526 402.098 562.526Z" fill="url(#paint27_linear_3_644)"/>
<path d="M350.58 465.423C351.037 465.423 351.478 465.542 351.889 465.78L401.162 494.218C403.424 495.522 404.829 497.953 404.829 500.564L404.828 559.31C404.828 560.996 403.411 562.041 402.098 562.041C401.623 562.041 401.166 561.916 400.741 561.67L351.474 533.18C349.296 531.92 347.942 529.574 347.942 527.057V468.064C347.941 466.433 349.311 465.423 350.58 465.423ZM350.58 464.449C348.695 464.449 346.967 465.957 346.967 468.063V527.056C346.967 529.928 348.499 532.584 350.986 534.022L400.252 562.512C400.849 562.856 401.481 563.014 402.097 563.014C404.029 563.014 405.8 561.469 405.8 559.31L405.801 500.564C405.801 497.597 404.217 494.856 401.648 493.375L352.375 464.937C351.795 464.602 351.179 464.449 350.58 464.449Z" fill="#FDFEFE"/>
<path d="M403.937 562.518L403.866 562.56L403.861 562.551C403.885 562.537 403.913 562.532 403.937 562.518Z" fill="url(#paint28_linear_3_644)"/>
<path d="M403.937 562.518C403.936 562.518 403.937 562.518 403.937 562.518V562.518ZM403.936 562.518C403.912 562.532 403.885 562.537 403.86 562.55L403.865 562.559L403.936 562.518Z" fill="#FDFEFE"/>
<path d="M406.05 560.711C406.206 560.27 406.287 559.798 406.287 559.31L406.288 500.563C406.288 499.733 406.142 498.896 405.83 497.954L416.388 491.872C416.599 492.593 416.698 493.239 416.698 493.872L416.697 552.616C416.697 553.73 416.131 554.746 415.182 555.337L415.036 555.429L406.05 560.711Z" fill="url(#paint29_linear_3_644)"/>
<path d="M416.074 492.613C416.167 493.053 416.211 493.467 416.211 493.871L416.21 552.615C416.21 553.573 415.742 554.414 414.925 554.922L414.823 554.988L414.813 554.993L414.811 554.994L406.755 559.731C406.767 559.592 406.773 559.451 406.773 559.309L406.774 500.563C406.774 499.805 406.654 499.021 406.409 498.181L416.074 492.613ZM416.667 491.148L405.237 497.733C405.568 498.633 405.801 499.574 405.801 500.563L405.8 559.31C405.8 560.716 405.048 561.859 403.989 562.488L415.304 555.834C415.325 555.824 415.343 555.813 415.363 555.801L415.44 555.756V555.75C416.462 555.113 417.184 553.993 417.184 552.616L417.185 493.872C417.185 492.922 416.971 492.018 416.667 491.148ZM403.99 562.487L403.964 562.503C403.972 562.498 403.981 562.493 403.99 562.487Z" fill="#FDFEFE"/>
<path d="M392.516 513.974C391.19 506.811 385.512 498.772 378.509 494.928C373.019 491.916 368.287 492.349 366.016 495.646C360.108 493.167 355.735 495.56 355.795 501.518C355.858 507.796 361.013 515.619 367.255 519.046L391.759 532.491C397.058 535.4 401.223 533.519 401.223 528.218C401.222 523.297 397.247 516.95 392.516 513.974ZM382.294 514.69V520.665C382.294 521.192 381.867 521.384 381.34 521.095L375.675 517.987C375.148 517.697 374.722 517.037 374.722 516.51V510.535C374.722 510.178 374.434 509.732 374.078 509.537L371.345 508.037C370.495 507.571 370.07 506.31 370.67 506.04L377.833 502.805C378.206 502.637 378.809 502.969 379.181 503.545L386.344 514.64C386.945 515.571 386.519 516.364 385.67 515.898L382.936 514.398C382.582 514.204 382.294 514.335 382.294 514.69Z" fill="#F5FAFF"/>
<path d="M281.158 279.031L351.648 319.741C355.877 322.183 358.481 326.695 358.481 331.578V443.38C358.481 447.862 353.63 450.663 349.749 448.421L276.654 406.208C271.667 403.328 268.595 398.005 268.595 392.245V286.285C268.595 279.837 275.574 275.807 281.158 279.031Z" fill="#CDE9F9"/>
<path d="M276.709 281.337L347.199 322.047C351.428 324.489 354.032 329.001 354.032 333.883V445.685C354.032 450.168 349.181 452.969 345.3 450.727L272.205 408.514C267.218 405.634 264.146 400.311 264.146 394.55V288.591C264.146 282.143 271.125 278.112 276.709 281.337Z" fill="#17A1DB"/>
<path d="M276.709 281.337L347.199 322.047C351.428 324.489 354.032 329.001 354.032 333.883V445.685C354.032 450.168 349.181 452.969 345.3 450.727L272.205 408.514C267.218 405.634 264.146 400.311 264.146 394.55V288.591C264.146 282.143 271.125 278.112 276.709 281.337Z" fill="url(#paint30_linear_3_644)"/>
<path d="M276.709 281.337L347.199 322.047C351.428 324.489 354.032 329.001 354.032 333.883V445.685C354.032 450.168 349.181 452.969 345.3 450.727L272.205 408.514C267.218 405.634 264.146 400.311 264.146 394.55V288.591C264.146 282.143 271.125 278.112 276.709 281.337Z" fill="url(#paint31_linear_3_644)"/>
<path d="M274.268 292.858V294.81L282.464 299.538V297.587L274.268 292.858Z" fill="#CDE9F9"/>
<path d="M274.268 296.424V298.375L282.464 303.104V301.152L274.268 296.424Z" fill="#CDE9F9"/>
<path d="M274.268 299.988V301.941L282.464 306.669V304.717L274.268 299.988Z" fill="#CDE9F9"/>
<path d="M336.124 341.192V339.241L285.539 310.056V312.008L336.124 341.192Z" fill="#CDE9F9"/>
<path d="M274.268 303.553V305.505L282.464 310.234V308.282L274.268 303.553Z" fill="#CDE9F9"/>
<path d="M274.268 307.119V309.07L282.464 313.799V311.847L274.268 307.119Z" fill="#CDE9F9"/>
<path d="M336.124 344.758V342.806L285.539 313.622V315.573L336.124 344.758Z" fill="#CDE9F9"/>
<path d="M274.268 317.813V319.765L282.464 324.493V322.542L274.268 317.813Z" fill="#CDE9F9"/>
<path d="M274.268 321.379V323.33L282.464 328.059V326.107L274.268 321.379Z" fill="#CDE9F9"/>
<path d="M274.268 335.639V337.591L282.464 342.319V340.368L274.268 335.639Z" fill="#CDE9F9"/>
<path d="M274.268 339.205V341.156L282.464 345.885V343.933L274.268 339.205Z" fill="#CDE9F9"/>
<path d="M317.452 364.119L285.539 345.708V347.659L317.452 366.071V364.119Z" fill="#CDE9F9"/>
<path d="M319.135 365.088V367.041L336.124 376.842V374.891L319.135 365.088Z" fill="#CDE9F9"/>
<path d="M301.573 351.392L285.539 342.142V344.094L301.573 353.344V351.392Z" fill="#CDE9F9"/>
<path d="M303.255 352.362V354.314L336.124 373.277V371.326L303.255 352.362Z" fill="#CDE9F9"/>
<path d="M331.801 358.136V360.087L336.124 362.582V360.63L331.801 358.136Z" fill="#CDE9F9"/>
<path d="M308.268 340.996L285.539 327.882V329.833L308.268 342.947V340.996Z" fill="#CDE9F9"/>
<path d="M298.955 307.101L285.539 299.361V301.313L298.955 309.053V307.101Z" fill="#CDE9F9"/>
<path d="M320.946 319.789L300.637 308.072V310.023L320.946 321.74V319.789Z" fill="#CDE9F9"/>
<path d="M309.11 316.525L294.811 308.275V310.226L309.11 318.476V316.525Z" fill="#CDE9F9"/>
<path d="M324.112 325.181L310.792 317.496V319.447L324.112 327.132V325.181Z" fill="#CDE9F9"/>
<path d="M325.794 326.15V328.103L336.124 334.062V332.11L325.794 326.15Z" fill="#CDE9F9"/>
<path d="M288.181 308.016V309.968L298.955 316.183V314.232L288.181 308.016Z" fill="#CDE9F9"/>
<path d="M331.91 333.244L300.637 315.202V317.154L331.91 335.195V333.244Z" fill="#CDE9F9"/>
<path d="M314.005 333.61L293.568 321.819V323.77L314.005 335.561V333.61Z" fill="#CDE9F9"/>
<path d="M331.91 343.939L315.688 334.58V336.532L331.91 345.89V343.939Z" fill="#CDE9F9"/>
<path d="M330.119 353.6L309.951 341.966V343.917L330.119 355.552V353.6Z" fill="#CDE9F9"/>
<path d="M319.134 350.828V352.781L330.119 359.117V357.166L319.134 350.828Z" fill="#CDE9F9"/>
<path d="M289.495 333.729L285.539 331.447V333.399L289.495 335.68V333.729Z" fill="#CDE9F9"/>
<path d="M296.904 338.004V339.955L317.452 351.811V349.859L296.904 338.004Z" fill="#CDE9F9"/>
<path d="M295.222 337.033L291.177 334.699V336.651L295.222 338.985V337.033Z" fill="#CDE9F9"/>
<path d="M313.651 351.23L291.177 338.264V340.216L313.651 353.182V351.23Z" fill="#CDE9F9"/>
<path d="M274.268 350.164V352.115L282.464 356.844V354.892L274.268 350.164Z" fill="#CDE9F9"/>
<path d="M274.268 353.728V355.68L282.464 360.409V358.457L274.268 353.728Z" fill="#CDE9F9"/>
<path d="M274.268 357.293V359.245L282.464 363.973V362.022L274.268 357.293Z" fill="#CDE9F9"/>
<path d="M336.124 398.496V396.545L285.539 367.361V369.313L336.124 398.496Z" fill="#CDE9F9"/>
<path d="M274.268 360.858V362.81L282.464 367.538V365.587L274.268 360.858Z" fill="#CDE9F9"/>
<path d="M274.268 364.424V366.375L282.464 371.104V369.152L274.268 364.424Z" fill="#CDE9F9"/>
<path d="M336.124 402.062V400.11L285.539 370.927V372.878L336.124 402.062Z" fill="#CDE9F9"/>
<path d="M274.268 375.119V377.071L282.464 381.799V379.848L274.268 375.119Z" fill="#CDE9F9"/>
<path d="M274.268 378.683V380.636L282.464 385.364V383.413L274.268 378.683Z" fill="#CDE9F9"/>
<path d="M274.268 392.943V394.895L282.464 399.624V397.672L274.268 392.943Z" fill="#CDE9F9"/>
<path d="M274.268 396.509V398.46L282.464 403.189V401.237L274.268 396.509Z" fill="#CDE9F9"/>
<path d="M317.452 421.423L285.539 403.012V404.963L317.452 423.375V421.423Z" fill="#CDE9F9"/>
<path d="M319.135 422.394V424.345L336.124 434.148V432.196L319.135 422.394Z" fill="#CDE9F9"/>
<path d="M301.573 408.697L285.539 399.446V401.398L301.573 410.648V408.697Z" fill="#CDE9F9"/>
<path d="M303.255 409.667V411.619L336.124 430.582V428.631L303.255 409.667Z" fill="#CDE9F9"/>
<path d="M331.801 415.441V417.393L336.124 419.888V417.936L331.801 415.441Z" fill="#CDE9F9"/>
<path d="M308.268 398.3L285.539 385.187V387.138L308.268 400.251V398.3Z" fill="#CDE9F9"/>
<path d="M298.955 364.406L285.539 356.667V358.618L298.955 366.358V364.406Z" fill="#CDE9F9"/>
<path d="M320.946 377.094L300.637 365.377V367.328L320.946 379.045V377.094Z" fill="#CDE9F9"/>
<path d="M309.11 373.83L294.811 365.58V367.532L309.11 375.782V373.83Z" fill="#CDE9F9"/>
<path d="M324.112 382.485L310.792 374.8V376.752L324.112 384.437V382.485Z" fill="#CDE9F9"/>
<path d="M325.794 383.456V385.407L336.124 391.367V389.415L325.794 383.456Z" fill="#CDE9F9"/>
<path d="M288.181 365.32V367.272L298.955 373.487V371.536L288.181 365.32Z" fill="#CDE9F9"/>
<path d="M331.91 390.549L300.637 372.506V374.458L331.91 392.501V390.549Z" fill="#CDE9F9"/>
<path d="M314.005 390.914L293.568 379.123V381.075L314.005 392.866V390.914Z" fill="#CDE9F9"/>
<path d="M331.91 401.244L315.688 391.885V393.836L331.91 403.196V401.244Z" fill="#CDE9F9"/>
<path d="M330.119 410.905L309.951 399.27V401.222L330.119 412.857V410.905Z" fill="#CDE9F9"/>
<path d="M319.134 408.133V410.085L330.119 416.422V414.471L319.134 408.133Z" fill="#CDE9F9"/>
<path d="M289.495 391.034L285.539 388.751V390.703L289.495 392.985V391.034Z" fill="#CDE9F9"/>
<path d="M296.904 395.308V397.261L317.452 409.115V407.163L296.904 395.308Z" fill="#CDE9F9"/>
<path d="M295.222 394.337L291.177 392.004V393.956L295.222 396.29V394.337Z" fill="#CDE9F9"/>
<path d="M313.651 408.534L291.177 395.568V397.521L313.651 410.486V408.534Z" fill="#CDE9F9"/>
<path d="M240.063 319.052V342.866C240.063 342.866 239.264 349.249 232.012 351.266C230.771 351.624 229.256 351.982 227.586 352.244H227.55V361.455C227.55 361.455 221.132 363.209 216.468 360.095C212.758 357.613 212.245 354.881 213.08 350.526C209.239 348.486 205.982 344.716 204.456 338.142C200.411 320.638 233.073 270.825 240.063 319.052Z" fill="#FDE0D9"/>
<path d="M209.035 354.854C209.035 354.854 187.599 349.764 177.841 379.391C177.841 379.391 167.47 401.062 170.336 410.318C173.202 419.575 189.435 419.586 189.435 419.586L209.035 354.854Z" fill="#F5FAFF"/>
<path d="M209.036 354.858L189.437 419.585C189.437 419.585 187.552 419.585 184.952 419.216C182.566 418.882 179.584 418.226 176.901 416.996C173.931 415.624 171.329 413.524 170.34 410.314C167.477 401.056 177.843 379.389 177.843 379.389C187.6 349.762 209.036 354.858 209.036 354.858Z" fill="#F5FAFF"/>
<path d="M184.952 419.216C182.566 418.882 179.584 418.226 176.9 416.996C173.98 413.674 176.293 406.272 176.9 403.828C179.013 395.326 181.517 370.548 193.362 361.945C203.68 354.44 188.9 405.936 184.952 419.216Z" fill="url(#paint32_linear_3_644)"/>
<path d="M179.161 445.823C179.161 445.823 177.022 472.652 181.46 494.084C185.897 515.517 190.043 550.495 190.043 550.495C190.043 550.495 191.079 553.87 190.043 559.053C189.006 564.236 184.575 589.114 184.575 589.114C184.575 589.114 186.933 595.914 194.188 595.623C201.443 595.333 204.552 590.669 204.552 590.669C204.552 590.669 215.488 546.323 214.397 539.213C213.307 532.103 210.192 493.749 210.999 488.307C211.806 482.865 187.806 447.651 179.161 445.823Z" fill="#222457"/>
<path d="M235.708 605.212C235.708 605.212 248.065 595.553 254.494 599.396C262.277 604.049 261.874 606.537 253.687 612.715C245.923 618.575 205.497 626.827 235.708 605.212Z" fill="#222457"/>
<path d="M254.497 565.792C250.19 584.428 244.93 609.712 244.93 609.712C244.93 609.712 240.54 620.497 232.536 618.182C229.721 617.371 227.896 616.846 226.715 616.512C224.52 615.88 224.52 615.88 224.52 615.88C224.52 615.88 226.835 561.628 229.423 550.496C229.423 550.496 208.702 501.781 204.038 484.683C201.295 474.637 197.704 465.82 195.199 460.247V460.236C193.434 456.322 192.217 454.02 192.217 454.02L244.573 460.236L255.559 532.885C255.558 532.885 258.791 547.155 254.497 565.792Z" fill="#2A2F6D"/>
<path d="M306.967 348.17C306.748 346.767 307.027 344.657 307.661 343.654C308.296 342.649 308.269 341.751 306.341 342.545C305.158 343.032 303.632 344.672 302.628 345.867C302.238 346.152 301.853 346.451 301.496 346.742C300.381 347.649 299.524 348.469 299.524 348.469C299.612 346.122 298.183 344.388 297.78 346.536C297.377 348.684 296.334 348.107 295.371 349.157C294.407 350.207 296.788 357.716 296.788 357.716C296.788 357.716 300.994 361.365 303.648 362.155C306.303 362.945 308.991 358.143 309.085 355.678C309.167 353.551 307.787 350.226 306.967 348.17Z" fill="#FDE0D9"/>
<path d="M233.574 555.423C232.977 558.346 228.766 597.374 226.714 616.512C224.52 615.879 224.52 615.879 224.52 615.879C224.52 615.879 226.834 561.627 229.422 550.495C229.422 550.495 208.701 501.78 204.037 484.683C201.294 474.637 197.703 465.819 195.198 460.247V460.235L214.475 468.742C214.475 468.742 224.591 522.553 230.639 536.261C236.676 549.983 234.349 551.534 233.574 555.423Z" fill="url(#paint33_linear_3_644)"/>
<path d="M304.836 364.976C304.836 364.976 299.326 396.45 292.001 406.771C285.917 415.35 276.314 415.112 276.314 415.112C267.94 414.945 248.925 403.849 247.363 402.918C247.291 402.882 247.256 402.859 247.256 402.859V415.028L247.172 464.889C247.172 464.889 247.231 465.856 246.838 467.204C246.099 469.877 243.63 474.065 235.541 475.377C234.277 475.592 232.869 475.723 231.319 475.771C229.983 475.819 228.539 475.795 226.965 475.699C223.589 475.484 220.059 474.912 216.516 474.077C213.999 473.48 211.47 472.74 208.977 471.905C193.088 466.607 178.558 457.217 177.019 452.421C175.803 448.674 179.572 415.207 184.308 387.216C185.345 381.096 186.431 375.249 187.505 370.023C187.516 369.999 187.516 369.987 187.516 369.987C189.628 359.738 195.795 356.481 197.99 355.633C198.48 355.443 198.777 355.371 198.777 355.371C198.777 355.371 200.996 352.71 209.143 353.438C229.756 355.287 244.93 363.651 251.061 371.776C251.061 371.776 269.324 385.938 276.708 389.446C282.816 392.346 290.784 366.837 293.349 357.935C293.933 355.919 296.116 354.845 298.072 355.609C299.408 356.134 300.971 357.053 302.546 358.64C303.417 359.511 304.025 360.299 304.442 360.991C304.466 361.038 304.49 361.074 304.514 361.122C306.029 363.71 304.836 364.976 304.836 364.976Z" fill="#F5FAFF"/>
<path d="M228.906 322.34C228.906 322.34 237.961 323.648 246.777 315.277C255.592 306.907 244.842 290.285 235.708 288.489L237.828 293.89C237.828 293.89 229.944 289.357 224.503 291.006L229.685 294.335C229.685 294.335 219.062 292.198 213.88 295.147L217.248 297.155C217.248 297.155 202.049 299.907 200.996 306.434C199.943 312.962 200.996 313.569 200.996 313.569C200.996 313.569 194.967 314.589 193.671 321.243C192.376 327.896 194.792 342.323 206.626 346.869L211.826 349.775C211.826 349.775 214.658 352.163 217.767 347.416C220.876 342.668 220.533 340.594 220.533 340.594C220.533 340.594 215.942 334.58 216.99 330.436C218.039 326.291 223.726 327.32 224.504 332.791C224.502 332.793 224.502 323.778 228.906 322.34Z" fill="#2A2F6D"/>
<path d="M247.363 402.917C247.291 402.881 247.256 402.858 247.256 402.858V415.027L247.173 464.888C247.173 464.888 247.232 465.855 246.839 467.203C246.099 469.876 243.631 474.064 235.542 475.376C234.278 475.591 232.87 475.722 231.32 475.77C230.95 470.556 230.544 460.51 230.652 442.315C230.854 411.019 237.26 383.803 237.26 383.803C237.713 390.866 243.033 398.12 247.363 402.917Z" fill="url(#paint34_linear_3_644)"/>
<path d="M304.836 364.976C304.836 364.976 299.326 396.45 292.001 406.771C285.917 415.35 276.314 415.112 276.314 415.112C267.94 414.944 248.925 403.848 247.363 402.918C247.291 402.882 247.256 402.859 247.256 402.859V403.085C241.362 395.986 237.877 391.9 237.793 387.056C237.793 387.056 259.602 405.388 279.141 401.69C294.958 398.706 302.295 371.396 304.513 361.123C306.029 363.71 304.836 364.976 304.836 364.976Z" fill="url(#paint35_linear_3_644)"/>
<path opacity="0.3" d="M208.977 471.904C193.088 466.606 178.558 457.216 177.019 452.42C175.803 448.673 179.572 415.206 184.308 387.215C185.345 381.095 186.431 375.248 187.505 370.022C187.516 369.998 187.516 369.986 187.516 369.986C187.516 369.986 193.54 403.823 193.362 437.673C193.267 454.687 201.127 465.437 208.977 471.904Z" fill="url(#paint36_linear_3_644)"/>
<path d="M227.586 352.244H227.55V356.301C225.057 354.619 223.232 349.584 222.981 348.856C223.804 350.741 225.749 351.731 227.586 352.244Z" fill="#ECBFB9"/>
<path d="M196.144 583.927C196.144 583.927 206.912 575.511 212.514 578.86C219.297 582.914 218.944 585.082 211.811 590.466C205.045 595.57 169.818 602.761 196.144 583.927Z" fill="#222457"/>
<defs>
<filter id="filter0_d_3_644" x="68.4285" y="316.63" width="783.41" height="502.852" filterUnits="userSpaceOnUse" color-interpolation-filters="sRGB">
<feFlood flood-opacity="0" result="BackgroundImageFix"/>
<feColorMatrix in="SourceAlpha" type="matrix" values="0 0 0 0 0 0 0 0 0 0 0 0 0 0 0 0 0 0 127 0" result="hardAlpha"/>
<feOffset dx="-4" dy="46"/>
<feGaussianBlur stdDeviation="5"/>
<feComposite in2="hardAlpha" operator="out"/>
<feColorMatrix type="matrix" values="0 0 0 0 0.8325 0 0 0 0 0.86625 0 0 0 0 0.9 0 0 0 1 0"/>
<feBlend mode="normal" in2="BackgroundImageFix" result="effect1_dropShadow_3_644"/>
<feBlend mode="normal" in="SourceGraphic" in2="effect1_dropShadow_3_644" result="shape"/>
</filter>
<linearGradient id="paint0_linear_3_644" x1="32.6357" y1="293.207" x2="219.68" y2="293.207" gradientUnits="userSpaceOnUse">
<stop offset="0.0607" stop-color="#28A8E0"/>
<stop offset="0.9984" stop-color="#29ABE2" stop-opacity="0"/>
</linearGradient>
<linearGradient id="paint1_linear_3_644" x1="240.205" y1="212.981" x2="427.25" y2="212.981" gradientUnits="userSpaceOnUse">
<stop offset="0.0607" stop-color="#28A8E0"/>
<stop offset="0.9984" stop-color="#29ABE2" stop-opacity="0"/>
</linearGradient>
<linearGradient id="paint2_linear_3_644" x1="255.907" y1="108.09" x2="442.951" y2="108.09" gradientUnits="userSpaceOnUse">
<stop offset="0.0607" stop-color="#28A8E0"/>
<stop offset="0.9984" stop-color="#29ABE2" stop-opacity="0"/>
</linearGradient>
<linearGradient id="paint3_linear_3_644" x1="214.535" y1="434.142" x2="38.3293" y2="434.142" gradientUnits="userSpaceOnUse">
<stop offset="0.0607" stop-color="#28A8E0"/>
<stop offset="0.9984" stop-color="#29ABE2" stop-opacity="0"/>
</linearGradient>
<linearGradient id="paint4_linear_3_644" x1="82.4285" y1="540.055" x2="845.838" y2="540.055" gradientUnits="userSpaceOnUse">
<stop offset="0.1107" stop-color="white"/>
<stop offset="0.652" stop-color="#CDE9F9"/>
<stop offset="1" stop-color="#CDE9F9"/>
</linearGradient>
<linearGradient id="paint5_linear_3_644" x1="362.119" y1="501.901" x2="712.72" y2="501.901" gradientUnits="userSpaceOnUse">
<stop offset="0.0607" stop-color="#28A8E0"/>
<stop offset="0.9984" stop-color="#29ABE2" stop-opacity="0"/>
</linearGradient>
<linearGradient id="paint6_linear_3_644" x1="362.119" y1="439.954" x2="712.72" y2="439.954" gradientUnits="userSpaceOnUse">
<stop offset="0.0607" stop-color="#28A8E0"/>
<stop offset="0.9984" stop-color="#29ABE2" stop-opacity="0"/>
</linearGradient>
<linearGradient id="paint7_linear_3_644" x1="444.692" y1="432.898" x2="626.255" y2="432.898" gradientUnits="userSpaceOnUse">
<stop stop-color="#BD8AAE"/>
<stop offset="1" stop-color="#2484C6" stop-opacity="0"/>
</linearGradient>
<linearGradient id="paint8_linear_3_644" x1="469.992" y1="432.898" x2="600.955" y2="432.898" gradientUnits="userSpaceOnUse">
<stop offset="0.0607" stop-color="#28A8E0"/>
<stop offset="0.9984" stop-color="#29ABE2" stop-opacity="0"/>
</linearGradient>
<linearGradient id="paint9_linear_3_644" x1="532.519" y1="474.279" x2="538.428" y2="474.279" gradientUnits="userSpaceOnUse">
<stop offset="0.0607" stop-color="#28A8E0"/>
<stop offset="0.9984" stop-color="#29ABE2" stop-opacity="0"/>
</linearGradient>
<linearGradient id="paint10_linear_3_644" x1="386.486" y1="406.063" x2="392.395" y2="406.063" gradientUnits="userSpaceOnUse">
<stop offset="0.0607" stop-color="#28A8E0"/>
<stop offset="0.9984" stop-color="#29ABE2" stop-opacity="0"/>
</linearGradient>
<linearGradient id="paint11_linear_3_644" x1="679.982" y1="399.343" x2="685.891" y2="399.343" gradientUnits="userSpaceOnUse">
<stop offset="0.0607" stop-color="#28A8E0"/>
<stop offset="0.9984" stop-color="#29ABE2" stop-opacity="0"/>
</linearGradient>
<linearGradient id="paint12_linear_3_644" x1="379.803" y1="309.595" x2="695.821" y2="309.595" gradientUnits="userSpaceOnUse">
<stop offset="0.4247" stop-color="white"/>
<stop offset="1" stop-color="#2484C6" stop-opacity="0"/>
</linearGradient>
<linearGradient id="paint13_linear_3_644" x1="379.802" y1="309.595" x2="695.821" y2="309.595" gradientUnits="userSpaceOnUse">
<stop stop-color="#29ABE2" stop-opacity="0"/>
<stop offset="1" stop-color="#28A8E0"/>
</linearGradient>
<linearGradient id="paint14_linear_3_644" x1="618.405" y1="510.263" x2="618.405" y2="267.433" gradientUnits="userSpaceOnUse">
<stop stop-color="#29ABE2" stop-opacity="0"/>
<stop offset="1" stop-color="#3C7FBE"/>
</linearGradient>
<linearGradient id="paint15_linear_3_644" x1="647.365" y1="465.806" x2="647.365" y2="111.722" gradientUnits="userSpaceOnUse">
<stop stop-color="#21409A"/>
<stop offset="0.9984" stop-color="#BD8AAE"/>
</linearGradient>
<linearGradient id="paint16_linear_3_644" x1="386.411" y1="84.5139" x2="688.428" y2="84.5139" gradientUnits="userSpaceOnUse">
<stop stop-color="#21409A"/>
<stop offset="0.9984" stop-color="#BD8AAE"/>
</linearGradient>
<linearGradient id="paint17_linear_3_644" x1="440.505" y1="79.8443" x2="634.333" y2="79.8443" gradientUnits="userSpaceOnUse">
<stop stop-color="#21409A"/>
<stop offset="0.9984" stop-color="#29ABE2" stop-opacity="0"/>
</linearGradient>
<linearGradient id="paint18_linear_3_644" x1="498.582" y1="64.6683" x2="576.256" y2="64.6683" gradientUnits="userSpaceOnUse">
<stop offset="0.0607" stop-color="#28A8E0"/>
<stop offset="0.9984" stop-color="#29ABE2" stop-opacity="0"/>
</linearGradient>
<linearGradient id="paint19_linear_3_644" x1="439.481" y1="298.735" x2="627.329" y2="298.735" gradientUnits="userSpaceOnUse">
<stop stop-color="#21409A"/>
<stop offset="0.9984" stop-color="#29ABE2" stop-opacity="0"/>
</linearGradient>
<linearGradient id="paint20_linear_3_644" x1="487.282" y1="337.243" x2="579.33" y2="337.243" gradientUnits="userSpaceOnUse">
<stop stop-color="#21409A"/>
<stop offset="0.9984" stop-color="#29ABE2" stop-opacity="0"/>
</linearGradient>
<linearGradient id="paint21_linear_3_644" x1="240.864" y1="515.777" x2="408.844" y2="515.777" gradientUnits="userSpaceOnUse">
<stop offset="0.0607" stop-color="#28A8E0"/>
<stop offset="0.9984" stop-color="#29ABE2" stop-opacity="0"/>
</linearGradient>
<linearGradient id="paint22_linear_3_644" x1="379.468" y1="608.859" x2="450.328" y2="486.152" gradientUnits="userSpaceOnUse">
<stop offset="0.0814" stop-color="#64CDF6"/>
<stop offset="1" stop-color="white" stop-opacity="0"/>
</linearGradient>
<linearGradient id="paint23_linear_3_644" x1="307.592" y1="627.472" x2="449.959" y2="627.472" gradientUnits="userSpaceOnUse">
<stop offset="0.1107" stop-color="white"/>
<stop offset="0.4" stop-color="#CDE9F9"/>
<stop offset="0.9094" stop-color="#17A1DB"/>
</linearGradient>
<linearGradient id="paint24_linear_3_644" x1="322.622" y1="544.148" x2="435.43" y2="544.148" gradientUnits="userSpaceOnUse">
<stop offset="0.1107" stop-color="white"/>
<stop offset="0.4" stop-color="#CDE9F9"/>
<stop offset="0.9094" stop-color="#17A1DB"/>
</linearGradient>
<linearGradient id="paint25_linear_3_644" x1="322.622" y1="544.148" x2="435.43" y2="544.148" gradientUnits="userSpaceOnUse">
<stop stop-color="#21409A"/>
<stop offset="0.9984" stop-color="#BD8AAE"/>
</linearGradient>
<linearGradient id="paint26_linear_3_644" x1="349.48" y1="510.184" x2="416.698" y2="510.184" gradientUnits="userSpaceOnUse">
<stop offset="0.0607" stop-color="#28A8E0"/>
<stop offset="0.9984" stop-color="#29ABE2" stop-opacity="0"/>
</linearGradient>
<linearGradient id="paint27_linear_3_644" x1="347.454" y1="513.732" x2="405.315" y2="513.732" gradientUnits="userSpaceOnUse">
<stop offset="0.0607" stop-color="#28A8E0"/>
<stop offset="0.9984" stop-color="#29ABE2" stop-opacity="0"/>
</linearGradient>
<linearGradient id="paint28_linear_3_644" x1="403.86" y1="562.539" x2="403.937" y2="562.539" gradientUnits="userSpaceOnUse">
<stop offset="0.0607" stop-color="#28A8E0"/>
<stop offset="0.9984" stop-color="#29ABE2" stop-opacity="0"/>
</linearGradient>
<linearGradient id="paint29_linear_3_644" x1="405.831" y1="526.291" x2="416.698" y2="526.291" gradientUnits="userSpaceOnUse">
<stop offset="0.0607" stop-color="#28A8E0"/>
<stop offset="0.9984" stop-color="#29ABE2" stop-opacity="0"/>
</linearGradient>
<linearGradient id="paint30_linear_3_644" x1="264.146" y1="365.86" x2="354.031" y2="365.86" gradientUnits="userSpaceOnUse">
<stop offset="0.0607" stop-color="#28A8E0"/>
<stop offset="0.9984" stop-color="#29ABE2" stop-opacity="0"/>
</linearGradient>
<linearGradient id="paint31_linear_3_644" x1="264.146" y1="365.86" x2="354.031" y2="365.86" gradientUnits="userSpaceOnUse">
<stop stop-color="#21409A"/>
<stop offset="0.9984" stop-color="#BD8AAE"/>
</linearGradient>
<linearGradient id="paint32_linear_3_644" x1="175.456" y1="390.209" x2="196.956" y2="390.209" gradientUnits="userSpaceOnUse">
<stop offset="0.0016" stop-color="#D2D2D1"/>
<stop offset="1" stop-color="white"/>
</linearGradient>
<linearGradient id="paint33_linear_3_644" x1="214.932" y1="616.512" x2="214.932" y2="460.235" gradientUnits="userSpaceOnUse">
<stop stop-color="#306097"/>
<stop offset="1" stop-color="#2484C6" stop-opacity="0"/>
</linearGradient>
<linearGradient id="paint34_linear_3_644" x1="212.788" y1="408.28" x2="260.141" y2="455.623" gradientUnits="userSpaceOnUse">
<stop offset="0.0016" stop-color="#D2D2D1"/>
<stop offset="1" stop-color="white"/>
</linearGradient>
<linearGradient id="paint35_linear_3_644" x1="237.793" y1="388.116" x2="305.283" y2="388.116" gradientUnits="userSpaceOnUse">
<stop offset="0.0016" stop-color="#D2D2D1"/>
<stop offset="1" stop-color="white"/>
</linearGradient>
<linearGradient id="paint36_linear_3_644" x1="176.789" y1="420.945" x2="208.976" y2="420.945" gradientUnits="userSpaceOnUse">
<stop offset="0.0016" stop-color="#D2D2D1"/>
<stop offset="1" stop-color="white"/>
</linearGradient>
</defs>
</svg>
