<svg width="644" height="491" viewBox="0 0 644 491" fill="none" xmlns="http://www.w3.org/2000/svg">
<g opacity="0.51">
<path opacity="0.51" d="M412.409 30.2155V135.294C412.409 139.089 414.441 142.595 417.733 144.479L550.956 220.757C560.066 225.973 571.407 219.39 571.407 208.886V114.648C571.407 107.484 567.575 100.868 561.362 97.3079L428.238 21.0316C421.188 16.9922 412.409 22.0861 412.409 30.2155Z" fill="url(#paint0_linear_10_2469)"/>
</g>
<g opacity="0.51">
<path opacity="0.51" d="M434.735 27.2947V132.373C434.735 136.169 436.766 139.674 440.058 141.558L573.281 217.836C582.391 223.052 593.733 216.469 593.733 205.965V111.727C593.733 104.562 589.9 97.9463 583.687 94.3866L450.564 18.1102C443.514 14.0709 434.735 19.1647 434.735 27.2947Z" fill="url(#paint1_linear_10_2469)"/>
</g>
<g opacity="0.46">
<path opacity="0.46" d="M137.829 182.19L45.7111 235.276C42.2198 237.288 37.8607 234.766 37.8607 230.734V202.198C37.8607 200.324 38.861 198.592 40.4846 197.656L132.602 144.57C136.094 142.558 140.453 145.08 140.453 149.112V177.648C140.453 179.522 139.453 181.255 137.829 182.19Z" fill="#CDE9F9"/>
</g>
<g opacity="0.46">
<path opacity="0.46" d="M251.679 138.162L159.561 191.248C156.07 193.26 151.711 190.738 151.711 186.706V158.171C151.711 156.296 152.711 154.564 154.335 153.629L246.452 100.543C249.944 98.5303 254.303 101.053 254.303 105.085V133.62C254.303 135.495 253.302 137.227 251.679 138.162Z" fill="#CDE9F9"/>
</g>
<g opacity="0.46">
<path opacity="0.46" d="M260.291 80.5983L168.173 133.684C164.682 135.697 160.323 133.174 160.323 129.142V100.607C160.323 98.7322 161.323 96.9999 162.947 96.0646L255.064 42.9785C258.556 40.9663 262.915 43.4887 262.915 47.5206V76.0563C262.915 77.9307 261.914 79.6624 260.291 80.5983Z" fill="#CDE9F9"/>
</g>
<path d="M423.819 31.9944C423.819 34.037 422.792 35.1583 421.525 35.1583C420.259 35.1583 419.232 33.5023 419.232 31.4602C419.232 29.4181 420.259 27.7622 421.525 27.7622C422.792 27.7622 423.819 29.9523 423.819 31.9944Z" fill="white"/>
<path d="M432.514 37.4763C432.514 39.519 431.487 40.6402 430.22 40.6402C428.954 40.6402 427.927 38.9843 427.927 36.9422C427.927 34.9 428.954 33.2441 430.22 33.2441C431.487 33.2436 432.514 35.4337 432.514 37.4763Z" fill="white"/>
<path d="M440.687 43.2195C440.687 45.2616 439.66 46.3834 438.393 46.3834C437.127 46.3834 436.1 44.7275 436.1 42.6853C436.1 40.6427 437.127 38.9873 438.393 38.9873C439.66 38.9873 440.687 41.1769 440.687 43.2195Z" fill="white"/>
<path d="M125.806 349.203C157.364 349.203 182.947 342.236 182.947 333.642C182.947 325.049 157.364 318.082 125.806 318.082C94.2475 318.082 68.6646 325.049 68.6646 333.642C68.6646 342.236 94.2475 349.203 125.806 349.203Z" fill="#E7F6FD"/>
<path d="M514.808 247.772C546.366 247.772 571.949 240.806 571.949 232.212C571.949 223.618 546.366 216.652 514.808 216.652C483.25 216.652 457.667 223.618 457.667 232.212C457.667 240.806 483.25 247.772 514.808 247.772Z" fill="#E7F6FD"/>
<g filter="url(#filter0_d_10_2469)">
<path d="M306.157 426.652L72.9425 291.889C63.271 286.3 63.271 272.33 72.9425 266.741L323.64 121.875C328.128 119.281 333.66 119.281 338.148 121.875L571.364 256.638C581.035 262.227 581.035 276.197 571.364 281.786L320.667 426.652C316.177 429.246 310.646 429.246 306.157 426.652Z" fill="#E7F6FD"/>
<path d="M313.412 430.844L68.6646 289.417L323.281 142.286C327.992 139.564 333.796 139.564 338.507 142.286L575.641 279.314L313.412 430.844Z" fill="#CDE9F9"/>
<path d="M303.075 424.871L86.1464 299.519L324.496 161.811C328.456 159.523 333.335 159.518 337.299 161.799L558.668 289.123L323.748 424.871C317.352 428.567 309.471 428.567 303.075 424.871Z" fill="url(#paint2_linear_10_2469)"/>
</g>
<path d="M376.281 366.902L295.319 319.657C294.354 319.095 293.163 319.09 292.195 319.644L254.646 341.129C252.558 342.324 252.546 345.332 254.623 346.544L272.233 356.821C274.42 358.096 274.272 361.325 271.964 362.364C269.082 363.662 265.501 364.749 261.267 365.06C259.699 365.174 259.545 367.433 261.083 367.755C267.694 369.14 276.108 369.459 283.118 365.095C284.114 364.475 285.379 364.491 286.391 365.082L335.585 393.788C336.549 394.351 337.74 394.356 338.709 393.801L376.258 372.316C378.346 371.122 378.358 368.114 376.281 366.902Z" fill="url(#paint3_linear_10_2469)"/>
<path d="M388.443 347.24L307.281 300.34C306.315 299.782 305.124 299.782 304.157 300.34L266.7 321.985C264.617 323.189 264.617 326.197 266.7 327.4L284.353 337.602C286.545 338.868 286.412 342.098 284.108 343.146C281.231 344.456 277.654 345.559 273.422 345.887C271.855 346.009 271.71 348.268 273.25 348.584C279.866 349.94 288.281 350.224 295.273 345.829C296.266 345.206 297.532 345.216 298.546 345.803L347.862 374.299C348.828 374.858 350.019 374.858 350.986 374.299L388.443 352.655C390.526 351.452 390.526 348.444 388.443 347.24Z" fill="white"/>
<path d="M402.316 228.183L337.069 190.48C336.344 190.061 335.452 190.061 334.728 190.48L295.704 213.03C294.143 213.932 294.143 216.185 295.704 217.087L313.111 227.146C315.02 228.249 314.49 231.155 312.311 231.49C310.761 231.729 309.107 231.837 307.4 231.732C306.177 231.656 305.724 233.318 306.81 233.884C312.32 236.754 320.66 239.596 327.157 235.263L360.951 254.79C361.676 255.208 362.567 255.208 363.292 254.79L402.316 232.24C403.876 231.338 403.876 229.084 402.316 228.183Z" fill="url(#paint4_linear_10_2469)"/>
<path d="M406.052 211.624L340.805 173.921C340.081 173.502 339.189 173.502 338.465 173.921L299.44 196.471C297.88 197.373 297.88 199.626 299.44 200.527L316.848 210.587C318.757 211.69 318.226 214.596 316.047 214.931C314.498 215.169 312.843 215.278 311.136 215.173C309.914 215.097 309.46 216.759 310.547 217.325C316.056 220.195 324.396 223.037 330.894 218.704L364.688 238.231C365.412 238.649 366.304 238.649 367.028 238.231L406.053 215.681C407.612 214.779 407.612 212.525 406.052 211.624Z" fill="white"/>
<path d="M425.213 285.996C426.031 285.35 427.017 284.843 427.991 284.451C428.937 284.069 428.759 282.687 427.746 282.565C421.428 281.8 417.706 282.292 415.582 282.945C415.038 283.113 414.452 283.046 413.959 282.762L413.187 282.316L389.632 268.704C388.998 268.338 388.216 268.338 387.582 268.704L348.169 291.479C346.804 292.268 346.803 294.238 348.166 295.029L440.027 348.332C440.662 348.7 441.445 348.701 442.08 348.333L481.684 325.448C483.05 324.659 483.05 322.685 481.684 321.895L425.442 289.396C424.179 288.668 424.068 286.9 425.213 285.996Z" fill="url(#paint5_linear_10_2469)"/>
<path d="M428.687 271.943C429.505 271.298 430.491 270.791 431.465 270.398C432.411 270.017 432.233 268.635 431.22 268.512C424.902 267.747 421.179 268.239 419.056 268.893C418.512 269.06 417.926 268.994 417.433 268.709L416.661 268.263L393.106 254.651C392.471 254.285 391.69 254.285 391.056 254.651L351.643 277.426C350.278 278.214 350.276 280.186 351.64 280.977L443.501 334.279C444.135 334.647 444.918 334.648 445.553 334.281L485.158 311.395C486.524 310.606 486.524 308.632 485.158 307.843L428.916 275.343C427.653 274.615 427.542 272.847 428.687 271.943Z" fill="#CDE9F9"/>
<path d="M253.072 295.514C276.372 295.514 295.259 284.6 295.259 271.137C295.259 257.673 276.372 246.759 253.072 246.759C229.773 246.759 210.885 257.673 210.885 271.137C210.885 284.6 229.773 295.514 253.072 295.514Z" fill="url(#paint6_linear_10_2469)"/>
<path d="M263.783 277.447C287.082 277.447 305.97 266.533 305.97 253.07C305.97 239.606 287.082 228.692 263.783 228.692C240.483 228.692 221.596 239.606 221.596 253.07C221.596 266.533 240.483 277.447 263.783 277.447Z" fill="#CDE9F9"/>
<path d="M265.456 241.603C267.484 241.603 269.127 240.653 269.127 239.482C269.127 238.31 267.484 237.36 265.456 237.36C263.429 237.36 261.786 238.31 261.786 239.482C261.786 240.653 263.429 241.603 265.456 241.603Z" fill="white"/>
<path d="M283.579 250.983C285.606 250.983 287.25 250.033 287.25 248.862C287.25 247.69 285.606 246.741 283.579 246.741C281.552 246.741 279.908 247.69 279.908 248.862C279.908 250.033 281.552 250.983 283.579 250.983Z" fill="white"/>
<path d="M241.304 245.773L271.167 263.03C271.167 263.03 255.621 266.688 244.944 259.902C234.267 253.115 241.304 245.773 241.304 245.773Z" fill="white"/>
<path opacity="0.2" d="M163.141 329.48C163.141 329.48 191.993 321.526 193.962 333.508C195.931 345.49 192.637 350.643 205.645 354.68C218.652 358.716 203.348 367.243 203.348 367.243L153.501 338.528L163.141 329.48Z" fill="#2A2F6D"/>
<path d="M197.641 276.356L194.047 302.311L159.083 282.107L163.454 256.853L197.641 276.356Z" fill="#A17194"/>
<path d="M197.641 276.356L194.047 302.311L159.083 282.107L163.454 256.853L197.641 276.356Z" fill="url(#paint7_linear_10_2469)"/>
<path d="M164.248 258.257L196.147 276.386L192.822 300.308L160.206 281.532L164.248 258.257ZM164.05 257.838L159.91 281.671L193.031 300.738L196.436 276.244L164.05 257.838Z" fill="#8F8FA7"/>
<path d="M137.503 302.311C137.503 302.311 174.485 301.317 180.164 304.159C185.844 307.002 183.75 342.009 183.75 342.009C183.75 342.009 183.178 343.866 185.497 344.794C187.816 345.722 191.409 346.418 190.714 347.81C190.018 349.202 187.227 350.363 182.947 349.202C178.666 348.042 174.832 349.551 174.6 346.07C174.368 342.589 170.89 329.015 168.572 328.087C166.253 327.16 126.142 318.533 137.503 302.311Z" fill="#09518C"/>
<path d="M197.856 353.45C197.856 353.45 200.408 355.409 202.786 356.68C205.164 357.951 207.466 359.773 203.491 360.83C199.516 361.887 196.62 359.307 195.314 359.261C194.009 359.216 189.573 358.277 189.632 356.981C189.691 355.685 188.822 352.954 197.856 353.45Z" fill="#222457"/>
<path d="M198.238 354.017C198.238 354.017 198.964 354.711 192.164 354.679C191.624 354.674 191.032 354.669 190.392 354.658C190.392 354.658 187.723 333.008 185.844 330.642C183.965 328.275 169.863 340.454 146.517 341.266C123.224 342.078 97.8072 328.911 101.672 321.727C101.725 321.614 101.789 321.508 101.864 321.401C106.694 314.296 140.779 317.464 140.779 317.464C140.779 317.464 181.505 311.604 190.338 312.411C201.205 313.41 199.044 342.799 198.238 354.017Z" fill="#1D9FDA"/>
<path d="M192.164 354.679C191.624 354.674 191.032 354.669 190.391 354.658C190.391 354.658 187.723 333.008 185.844 330.642C183.965 328.275 169.863 340.454 146.517 341.266C123.224 342.078 97.8072 328.911 101.672 321.726C104.383 320.268 107.303 320.199 107.303 320.199L114.434 324.2C114.434 324.2 123.822 338.638 151.823 333.51C179.818 328.377 187.701 324.899 190.802 328.03C193.904 331.16 192.164 354.679 192.164 354.679Z" fill="#2187C5"/>
<path d="M193.962 302.311L167.739 317.464L132.775 297.26L158.998 282.107L193.962 302.311Z" fill="#6E8F99"/>
<path d="M187.79 299.827L167.058 311.808L139.414 295.833L160.147 283.853L187.79 299.827Z" fill="#AECFDC"/>
<path d="M183.031 296.948C183.546 297.127 183.76 296.586 183.639 296.25C183.517 295.913 182.181 295.643 182.181 295.643C182.181 295.643 182.473 295.434 182.869 295.608C183.265 295.782 184.201 295.385 183.493 294.862C182.786 294.339 182.184 293.909 181.442 294.043C180.7 294.177 179.93 293.874 179.93 293.874C180.584 293.156 180.525 292.311 179.698 292.864C178.871 293.417 178.506 292.569 176.692 292.528C174.878 292.487 172.938 295.819 172.938 295.819C172.938 295.819 171.648 301.887 173.534 303.51C175.419 305.132 177.343 303.331 178.379 302.277C179.415 301.223 180.976 300.268 181.832 300.485C182.688 300.701 183.547 299.87 183.162 299.544C182.777 299.219 181.492 298.732 181.492 298.732C181.492 298.732 182.016 298.488 182.621 298.556C183.226 298.623 183.767 298.24 183.524 297.81C183.281 297.379 182.273 296.88 182.273 296.88C182.273 296.88 182.515 296.769 183.031 296.948Z" fill="#FDE0D9"/>
<path d="M161.39 291.308C161.11 290.971 160.085 290.649 160.085 290.649C160.085 290.649 160.306 290.534 160.822 290.635C161.338 290.736 161.486 290.265 161.333 289.995C161.179 289.726 159.864 289.625 159.864 289.625C159.864 289.625 160.121 289.423 160.522 289.532C160.922 289.64 161.78 289.221 161.043 288.851C160.306 288.481 159.68 288.178 158.979 288.36C158.279 288.541 157.505 288.36 157.505 288.36C158.058 287.7 157.911 287.001 157.173 287.539C156.436 288.078 155.993 287.405 154.242 287.539C152.49 287.674 150.98 290.635 150.98 290.635C150.98 290.635 150.391 295.816 152.381 296.994C154.371 298.171 156.03 296.489 156.915 295.513C157.799 294.537 159.2 293.596 160.048 293.697C160.895 293.798 161.633 293.024 161.227 292.788C160.822 292.553 159.532 292.266 159.532 292.266C159.532 292.266 160.011 292.015 160.601 292.015C161.191 292.015 161.67 291.644 161.39 291.308Z" fill="#FDE0D9"/>
<path d="M135.389 246.142C131.487 247.231 129.784 247.327 129.229 247.317C129.08 247.311 129.01 247.301 129.01 247.301L128.375 250.773L127.969 252.99L121.826 251.478L120.086 251.36C120.086 251.36 119.963 250.848 119.787 249.956C119.077 249.902 118.463 249.779 118.389 249.747C118.245 249.683 118.837 247.488 119.163 246.329C118.234 240.111 117.423 229.764 121.25 224.957C126.923 217.836 132.661 220.571 133.878 218.76C135.1 216.955 136.894 215.977 136.776 217.948C136.664 219.925 137.577 224.273 138.052 229.342C138.052 229.342 140.374 244.747 135.389 246.142Z" fill="#FDE0D9"/>
<path d="M102.921 267.182C102.921 267.182 97.045 286.321 99.0156 288.177C100.986 290.033 105.623 292.527 105.623 292.527L102.921 267.182Z" fill="#AECFDC"/>
<path d="M176.802 303.629C176.802 303.629 169.613 305.813 157 308.981C154.337 309.649 151.524 308.751 149.746 306.657C147.862 304.43 145.53 301.631 144.206 299.906C143.987 299.617 143.795 299.361 143.64 299.142C143.64 299.142 144.553 311.422 148.695 315.028C148.695 315.028 149.976 316.433 149.106 318.126C148.391 319.515 146.224 321.096 140.694 322.25C128.22 324.835 107.308 328.355 99.9369 322.517L102.921 267.183C102.921 267.183 104.116 258.764 108.754 253.951C111.861 250.725 113.644 249.352 116.622 248.812C127.089 249.961 144.34 254.314 148.951 261.905C154.39 270.847 154.513 295.093 161.126 296.252C167.734 297.411 173.472 295.151 173.472 295.151C173.472 295.151 178.441 295.509 177.005 302.309C177.005 302.309 178.211 301.743 176.802 303.629Z" fill="white"/>
<path d="M145.531 211.079C145.531 211.079 145.526 211.084 145.525 211.085C144.405 207.914 141.619 205.157 141.619 205.157C141.619 205.157 142.37 207.983 141.635 210.35C141.635 210.35 140.244 204.49 134.679 203.678C134.679 203.678 137.604 205.89 136.418 208.729C136.418 208.729 134.853 205.304 131.897 205.304L132.267 207.604C132.267 207.604 127.765 207.454 122.989 209.173C122.988 209.173 122.988 209.173 122.988 209.173C108.241 212.57 111.478 226.137 111.825 227.529C112.173 228.921 107.913 232.315 108.608 237.188C109.304 242.06 117.933 246.573 117.933 246.573L117.934 246.568C118.677 247.204 119.266 247.222 120.072 246.374C122.01 244.336 123.028 241.327 123.028 241.327C123.028 241.327 120.835 237.265 121.578 235.41C122.318 233.561 125.073 233.381 125.445 236.2C125.446 237.208 125.565 238.07 125.953 238.189C126.953 238.493 127.214 231.924 132.17 230.009C137.126 228.095 140.778 230.923 145.734 224.963C150.69 219.002 145.531 211.079 145.531 211.079Z" fill="#2A2F6D"/>
<path d="M129.229 247.317C129.08 247.312 129.01 247.301 129.01 247.301L128.375 250.773C125.829 249.929 124.783 244.582 124.783 244.582C126.774 246.024 128.204 246.858 129.229 247.317Z" fill="#ECBFB9"/>
<path d="M149.106 318.126C148.07 318.741 146.491 319.221 144.11 319.387C135.65 319.964 137.967 311.032 134.951 293.87C132.026 277.193 139.05 266.307 139.456 265.698C139.264 266.077 137.23 270.361 138.714 280.868C139.813 288.683 142.653 296.199 144.206 299.906C143.987 299.617 143.795 299.361 143.64 299.142C143.64 299.142 144.553 311.422 148.695 315.028C148.695 315.028 149.976 316.433 149.106 318.126Z" fill="#CDE9F9"/>
<path opacity="0.1" d="M544.988 223.985C544.988 223.985 553.683 226.415 547.075 239.546C540.467 252.676 520.797 257.136 514.808 266.218C508.819 275.299 505.341 281.582 503.602 286.968C501.863 292.354 499.014 299.463 492.092 299.041C485.17 298.619 477.867 301.823 472.302 297.437C466.738 293.05 484.474 294.399 489.343 284.85C494.212 275.3 497.179 259.111 497.179 259.111C497.179 259.111 491.547 273.924 484.533 276.004C477.519 278.084 474.028 280.172 470.904 279.824C467.781 279.476 466.389 276.051 473.693 272.543C480.996 269.034 486.908 250.206 489.343 243.957C491.777 237.709 523.281 219.243 523.281 219.243L544.988 223.985Z" fill="#2A2F6D"/>
<path d="M517.021 138.412C517.021 138.412 512.279 130.502 523.281 126.894C534.283 123.287 540.575 131.288 541.97 134.832C543.379 138.408 544.23 142.364 547.955 145.786C553.658 151.024 572.032 162.55 568.618 187.786C565.204 213.021 521.155 222.893 497.178 196.599C473.201 170.306 501.086 171.255 509.054 165.18C517.021 159.105 522.712 142.778 517.021 138.412Z" fill="#A17194"/>
<path d="M545.858 206.075C545.858 206.075 560.812 202.171 562.899 183.382C564.986 164.592 555.282 158.828 550.396 154.066C545.509 149.303 537.727 145.077 537.727 145.077L534.902 154.066L545.858 206.075Z" fill="url(#paint8_linear_10_2469)"/>
<path d="M522.936 141.463C522.936 141.463 521.736 152.552 514.234 165.082C506.732 177.612 496.002 174.459 495.256 183.993C494.509 193.528 498.075 207.313 514.808 195.595C531.541 183.877 532.639 157.775 532.639 157.775C532.639 157.775 533.919 150.464 531.687 148.376L522.936 141.463Z" fill="url(#paint9_linear_10_2469)"/>
<path d="M485.215 285.984C485.215 285.984 477.374 289.655 475.098 290.667C472.822 291.68 470.672 291.3 470.925 292.566C471.178 293.831 475.731 297.502 480.03 296.236C484.33 294.971 485.721 293.705 487.744 293.705C489.768 293.705 492.044 292.059 491.285 289.781C490.527 287.503 485.215 285.984 485.215 285.984Z" fill="#222457"/>
<path d="M522.143 207.895C522.143 207.895 500.707 221.563 495.585 225.171C490.464 228.778 487.112 232.575 486.48 234.22C485.848 235.865 479.398 260.798 478.639 263.962C477.88 267.127 477.375 268.012 477.375 268.012C477.375 268.012 480.157 271.498 484.963 271.176C484.963 271.176 491.16 258.014 495.08 246.37C499 234.726 514.682 232.828 520.626 229.537C526.57 226.247 535.928 217.007 533.904 213.844C531.881 210.68 522.143 207.895 522.143 207.895Z" fill="#222457"/>
<path d="M547.941 214.456C547.941 214.456 550.371 220.495 548.783 227.617C547.784 232.1 545.193 237.011 539.405 241.117C524.419 251.749 519.487 249.851 512.278 255.356C505.07 260.861 500.138 279.656 496.344 284.592C492.55 289.527 490.653 291.616 490.653 291.616C490.653 291.616 486.29 290.856 483.065 287.06C483.065 287.06 493.025 264.893 497.179 248.521C501.332 232.149 518.159 230.296 533.145 215.868C548.131 201.44 547.941 214.456 547.941 214.456Z" fill="#2A2F6D"/>
<path d="M499.284 198.972C499.284 198.972 498.961 197.168 497.179 196.599C495.396 196.029 491.602 195.839 489.99 194.32C489.99 194.32 489.326 195.649 491.318 196.646C491.318 196.646 488.946 197.358 485.816 196.124C482.686 194.89 486.006 197.548 488.093 198.212C490.179 198.877 488.188 200.78 493.024 202.863C497.861 204.947 500.707 206.566 499.284 198.972Z" fill="#FDE0D9"/>
<path d="M549.117 196.758C547.463 209.52 549.082 218.908 549.082 218.908C549.082 218.908 538.077 220.423 529.92 217.008C527.98 216.193 526.181 215.283 524.528 214.351C519.211 211.356 515.351 208.105 513.04 206.945C510.001 205.424 500.707 199.923 500.707 199.923C500.707 199.923 498.955 195.343 500.527 194.673C503.852 194.323 510.751 193.531 511.899 192.96C513.418 192.203 513.925 189.038 515.567 181.189C516.109 178.59 516.696 176.498 517.308 174.628C524.86 154.041 532.639 157.775 532.639 157.775C532.639 157.775 535.067 157.123 535.463 156.331C543.597 157.391 549.612 161.733 551.86 169.296C554.013 176.509 550.281 187.721 549.117 196.758Z" fill="#3C7FBE"/>
<path d="M521.44 188.375C521.005 185.375 520.026 182.133 518.878 179.913C516.981 176.243 523.281 168.281 523.281 168.281C516.044 174.149 516.578 187.265 516.089 191.315C515.601 195.365 507.346 195.872 502.034 195.998C496.723 196.125 500.706 199.922 500.706 199.922C500.706 199.922 502.174 200.784 508.697 200.49C509.116 200.93 510.116 201.447 511.898 202.073C519.107 204.605 522.516 203.086 522.516 203.086C522.516 203.086 522.509 190.502 521.441 188.377C521.441 188.376 521.44 188.376 521.44 188.375Z" fill="url(#paint10_linear_10_2469)"/>
<path d="M550.333 172.454C550.333 172.454 545.541 200.174 539.34 208.023C534.921 213.623 529.395 214.864 524.527 214.351C519.211 211.356 515.351 208.104 513.04 206.945C513.04 206.945 531.881 202.417 535.294 189.842C538.711 177.267 546.91 168.532 550.333 172.454Z" fill="url(#paint11_linear_10_2469)"/>
<path d="M526.714 199.46C526.714 199.46 533.408 168.063 541.37 163.678C541.37 163.678 538.204 164.357 532.639 174.735C527.075 185.113 525.684 196.72 520.246 199.459C514.807 202.199 514.808 202.199 514.808 202.199L522.517 203.085L526.714 199.46Z" fill="url(#paint12_linear_10_2469)"/>
<path d="M545.476 162.522C545.476 162.522 538.267 162.198 534.663 172.516C531.058 182.835 524.609 198.213 522.143 199.731C522.143 199.731 511.899 201.44 498.62 197.833C498.62 197.833 495.964 202.379 497.861 204.947C497.861 204.947 522.016 212.113 529.224 209.455C536.433 206.797 544.476 188.572 545.791 185.619C547.739 181.249 555.276 168.154 545.476 162.522Z" fill="#3C7FBE"/>
<path d="M493.403 196.504C493.403 196.504 478.892 190.809 477.374 190.049C475.856 189.289 474.623 190.809 475.287 191.473C475.951 192.138 490.369 198.687 491.317 198.592C492.265 198.497 493.403 196.504 493.403 196.504Z" fill="#222457"/>
<path d="M536.848 160.047C536.574 155.543 536.586 152.525 536.592 152.14C536.842 152.28 537.034 152.531 537.07 152.869C537.163 153.796 537.332 154.809 537.64 155.637C537.687 156.982 537.6 158.555 536.848 160.047Z" fill="#2A2F6D"/>
<path d="M538.24 156.732C538.52 157.07 538.578 157.542 538.328 157.909L536.808 160.117C536.389 160.921 535.777 161.702 534.881 162.413C531.276 165.263 530.519 162.413 530.519 162.413V154.063C528.056 154.441 527.293 154.063 527.293 154.063C523.206 153.497 522.577 144.856 522.525 140.456C523.846 141.196 524.831 141.156 524.831 141.156C525.966 142.356 527.993 143.055 527.108 142.292C526.223 141.534 525.652 139.32 526.787 140.52C527.929 141.721 530.712 142.735 530.013 141.849C529.321 140.963 529.321 139.763 530.334 141.027C531.341 142.292 533.495 142.735 532.732 142.164C531.975 141.598 531.155 139.32 531.679 140.078C532.209 140.835 534.695 141.913 535.324 142.42C535.958 142.927 535.83 147.163 535.83 147.163C535.83 147.163 536.273 145.835 537.728 145.077C539.184 144.32 538.928 148.178 538.427 149.256C537.92 150.328 536.593 152.1 536.593 152.1C536.593 152.1 536.593 152.117 536.593 152.14C536.843 152.28 537.035 152.531 537.071 152.869C537.164 153.796 537.333 154.809 537.641 155.637C537.803 156.067 537.996 156.446 538.24 156.732Z" fill="#FDE0D9"/>
<path d="M479.271 266.24C479.271 266.24 474.804 270.29 470.904 271.809C467.004 273.328 468.142 276.745 472.695 275.859C477.248 274.973 478.512 273.834 480.536 273.707C482.559 273.581 485.847 273.328 484.583 269.531C483.318 265.734 479.271 266.24 479.271 266.24Z" fill="#222457"/>
<path d="M530.519 156.33V154.063C531.171 153.748 532.236 153.224 533.395 151.802C533.396 151.802 533.995 156.132 530.519 156.33Z" fill="#ECBFB9"/>
<path d="M372.839 350.83L302.91 310.74L305.111 309.539L375.003 349.609L372.839 350.83Z" fill="#CDE9F9"/>
<path d="M363.028 355.404L293.099 315.314L295.301 314.114L365.193 354.183L363.028 355.404Z" fill="#CDE9F9"/>
<path d="M353.189 361.299L283.26 321.209L285.461 320.008L355.353 360.077L353.189 361.299Z" fill="#CDE9F9"/>
<path d="M460.235 307.613L390.306 267.523L392.507 266.322L462.4 306.392L460.235 307.613Z" fill="white"/>
<path d="M450.424 312.188L380.496 272.097L382.697 270.897L452.589 310.966L450.424 312.188Z" fill="white"/>
<path d="M440.585 318.082L370.656 277.992L372.858 276.792L442.75 316.86L440.585 318.082Z" fill="white"/>
<path d="M392.213 215.386L334.771 182.455L336.579 181.469L393.99 214.383L392.213 215.386Z" fill="#CDE9F9"/>
<path d="M384.154 219.144L326.712 186.213L328.521 185.227L385.932 218.14L384.154 219.144Z" fill="#CDE9F9"/>
<path d="M376.072 223.985L318.63 191.054L320.439 190.068L377.85 222.982L376.072 223.985Z" fill="#CDE9F9"/>
<path d="M286.477 86.0545C285.393 86.0545 284.301 85.7046 283.38 84.984C281.195 83.2726 280.813 80.1065 282.524 77.9191C283.598 76.5453 288.381 71.4979 296.004 66.4986C305.832 60.0529 316.565 56.271 327.043 55.5616C345.002 54.3458 362.291 61.6981 378.432 77.4143C380.421 79.3512 380.465 82.5354 378.529 84.5262C376.594 86.5171 373.413 86.5609 371.423 84.6235C357.52 71.0861 342.927 64.6809 328.054 65.5761C316.975 66.2455 307.652 70.9269 301.782 74.736C295.262 78.9672 291.11 83.2859 290.431 84.1277C289.442 85.3932 287.967 86.0545 286.477 86.0545ZM301.903 96.9216C303.057 95.5958 313.619 83.9456 328.804 83.2448C339.154 82.7699 349.591 87.4818 359.826 97.256C361.835 99.1742 365.015 99.0994 366.931 97.0898C368.847 95.0803 368.773 91.8967 366.765 89.9795C354.466 78.2343 341.538 72.5882 328.341 73.1971C309.384 74.0715 296.678 87.6094 294.323 90.3145C292.5 92.4089 292.719 95.5856 294.812 97.4103C295.764 98.2404 296.94 98.6475 298.111 98.6475C299.513 98.6469 300.909 98.0626 301.903 96.9216ZM313.846 109.763C314.815 108.139 320.7 102.132 328.511 101.292C335.13 100.582 341.758 103.719 348.208 110.621C350.105 112.649 353.285 112.755 355.312 110.859C357.339 108.961 357.445 105.778 355.549 103.75C344.681 92.1242 334.265 90.5586 327.438 91.2915C315.909 92.5307 307.488 100.798 305.216 104.608C303.794 106.993 304.572 110.081 306.956 111.504C307.763 111.987 308.65 112.216 309.527 112.216C311.237 112.216 312.906 111.34 313.846 109.763ZM330.839 111.097C325.51 111.097 321.19 115.421 321.19 120.753C321.19 126.086 325.51 130.41 330.839 130.41C336.168 130.41 340.487 126.087 340.487 120.753C340.487 115.42 336.168 111.097 330.839 111.097Z" fill="#E7F6FD"/>
<path d="M286.477 86.0545C285.393 86.0545 284.301 85.7046 283.38 84.984C281.195 83.2726 280.813 80.1065 282.524 77.9191C283.598 76.5453 288.381 71.4979 296.004 66.4986C305.832 60.0529 316.565 56.271 327.043 55.5616C345.002 54.3458 362.291 61.6981 378.432 77.4143C380.421 79.3512 380.465 82.5354 378.529 84.5262C376.594 86.5171 373.413 86.5609 371.423 84.6235C357.52 71.0861 342.927 64.6809 328.054 65.5761C316.975 66.2455 307.652 70.9269 301.782 74.736C295.262 78.9672 291.11 83.2859 290.431 84.1277C289.442 85.3932 287.967 86.0545 286.477 86.0545ZM301.903 96.9216C303.057 95.5958 313.619 83.9456 328.804 83.2448C339.154 82.7699 349.591 87.4818 359.826 97.256C361.835 99.1742 365.015 99.0994 366.931 97.0898C368.847 95.0803 368.773 91.8967 366.765 89.9795C354.466 78.2343 341.538 72.5882 328.341 73.1971C309.384 74.0715 296.678 87.6094 294.323 90.3145C292.5 92.4089 292.719 95.5856 294.812 97.4103C295.764 98.2404 296.94 98.6475 298.111 98.6475C299.513 98.6469 300.909 98.0626 301.903 96.9216ZM313.846 109.763C314.815 108.139 320.7 102.132 328.511 101.292C335.13 100.582 341.758 103.719 348.208 110.621C350.105 112.649 353.285 112.755 355.312 110.859C357.339 108.961 357.445 105.778 355.549 103.75C344.681 92.1242 334.265 90.5586 327.438 91.2915C315.909 92.5307 307.488 100.798 305.216 104.608C303.794 106.993 304.572 110.081 306.956 111.504C307.763 111.987 308.65 112.216 309.527 112.216C311.237 112.216 312.906 111.34 313.846 109.763ZM330.839 111.097C325.51 111.097 321.19 115.421 321.19 120.753C321.19 126.086 325.51 130.41 330.839 130.41C336.168 130.41 340.487 126.087 340.487 120.753C340.487 115.42 336.168 111.097 330.839 111.097Z" fill="url(#paint13_linear_10_2469)"/>
<path d="M517.058 105.499C517.058 99.2858 511.965 94.5381 505.683 94.5381C499.401 94.5381 494.308 99.5753 494.308 105.789C494.308 112.002 499.401 117.039 505.683 117.039C511.965 117.039 517.058 111.713 517.058 105.499Z" fill="url(#paint14_linear_10_2469)"/>
<path d="M98.4888 248.417C98.4888 239.924 91.5271 233.435 82.9396 233.435C74.3521 233.435 67.3904 240.319 67.3904 248.813C67.3904 257.306 74.3521 264.191 82.9396 264.191C91.5271 264.191 98.4888 256.91 98.4888 248.417Z" fill="url(#paint15_linear_10_2469)"/>
<path d="M566.029 134.175C566.029 131.432 563.78 129.335 561.006 129.335C558.232 129.335 555.982 131.559 555.982 134.303C555.982 137.046 558.231 139.27 561.006 139.27C563.78 139.27 566.029 136.919 566.029 134.175Z" fill="url(#paint16_linear_10_2469)"/>
<path d="M106.615 206.9C106.615 204.156 104.366 202.06 101.592 202.06C98.8175 202.06 96.5688 204.284 96.5688 207.027C96.5688 209.771 98.8175 211.995 101.592 211.995C104.366 211.995 106.615 209.643 106.615 206.9Z" fill="url(#paint17_linear_10_2469)"/>
<defs>
<filter id="filter0_d_10_2469" x="51.6888" y="119.93" width="532.928" height="366.915" filterUnits="userSpaceOnUse" color-interpolation-filters="sRGB">
<feFlood flood-opacity="0" result="BackgroundImageFix"/>
<feColorMatrix in="SourceAlpha" type="matrix" values="0 0 0 0 0 0 0 0 0 0 0 0 0 0 0 0 0 0 127 0" result="hardAlpha"/>
<feOffset dx="-4" dy="46"/>
<feGaussianBlur stdDeviation="5"/>
<feComposite in2="hardAlpha" operator="out"/>
<feColorMatrix type="matrix" values="0 0 0 0 0.8325 0 0 0 0 0.86625 0 0 0 0 0.9 0 0 0 1 0"/>
<feBlend mode="normal" in2="BackgroundImageFix" result="effect1_dropShadow_10_2469"/>
<feBlend mode="normal" in="SourceGraphic" in2="effect1_dropShadow_10_2469" result="shape"/>
</filter>
<linearGradient id="paint0_linear_10_2469" x1="412.409" y1="121.1" x2="571.407" y2="121.1" gradientUnits="userSpaceOnUse">
<stop offset="0.0607" stop-color="#28A8E0"/>
<stop offset="0.9984" stop-color="#29ABE2" stop-opacity="0"/>
</linearGradient>
<linearGradient id="paint1_linear_10_2469" x1="434.735" y1="118.179" x2="593.733" y2="118.179" gradientUnits="userSpaceOnUse">
<stop offset="0.0607" stop-color="#28A8E0"/>
<stop offset="0.9984" stop-color="#29ABE2" stop-opacity="0"/>
</linearGradient>
<linearGradient id="paint2_linear_10_2469" x1="86.1463" y1="293.867" x2="558.668" y2="293.867" gradientUnits="userSpaceOnUse">
<stop offset="0.0607" stop-color="#28A8E0"/>
<stop offset="0.9984" stop-color="#29ABE2" stop-opacity="0"/>
</linearGradient>
<linearGradient id="paint3_linear_10_2469" x1="253.045" y1="356.442" x2="377.913" y2="356.966" gradientUnits="userSpaceOnUse">
<stop offset="0.0607" stop-color="#28A8E0"/>
<stop offset="0.9984" stop-color="#29ABE2" stop-opacity="0"/>
</linearGradient>
<linearGradient id="paint4_linear_10_2469" x1="294.534" y1="222.635" x2="403.486" y2="222.635" gradientUnits="userSpaceOnUse">
<stop offset="0.0607" stop-color="#28A8E0"/>
<stop offset="0.9984" stop-color="#29ABE2" stop-opacity="0"/>
</linearGradient>
<linearGradient id="paint5_linear_10_2469" x1="347.144" y1="308.519" x2="482.709" y2="308.519" gradientUnits="userSpaceOnUse">
<stop offset="0.0607" stop-color="#28A8E0"/>
<stop offset="0.9984" stop-color="#29ABE2" stop-opacity="0"/>
</linearGradient>
<linearGradient id="paint6_linear_10_2469" x1="210.885" y1="271.136" x2="295.259" y2="271.136" gradientUnits="userSpaceOnUse">
<stop offset="0.0607" stop-color="#28A8E0"/>
<stop offset="0.9984" stop-color="#29ABE2" stop-opacity="0"/>
</linearGradient>
<linearGradient id="paint7_linear_10_2469" x1="159.083" y1="279.582" x2="197.641" y2="279.582" gradientUnits="userSpaceOnUse">
<stop offset="0.1739" stop-color="#21409A"/>
<stop offset="0.9984" stop-color="#29ABE2" stop-opacity="0"/>
</linearGradient>
<linearGradient id="paint8_linear_10_2469" x1="534.902" y1="175.577" x2="563.154" y2="175.577" gradientUnits="userSpaceOnUse">
<stop offset="0.2368" stop-color="#6B385F"/>
<stop offset="0.3385" stop-color="#6F3B62" stop-opacity="0.7323"/>
<stop offset="0.4548" stop-color="#764268" stop-opacity="0.6035"/>
<stop offset="0.6508" stop-color="#8C567A" stop-opacity="0.3865"/>
<stop offset="0.901" stop-color="#B5799B" stop-opacity="0.1096"/>
<stop offset="1" stop-color="#CC8DAE" stop-opacity="0"/>
</linearGradient>
<linearGradient id="paint9_linear_10_2469" x1="495.164" y1="170.779" x2="532.958" y2="170.779" gradientUnits="userSpaceOnUse">
<stop stop-color="#CC8DAE" stop-opacity="0"/>
<stop offset="0.5406" stop-color="#6F3B62" stop-opacity="0.7323"/>
<stop offset="1" stop-color="#6B385F"/>
</linearGradient>
<linearGradient id="paint10_linear_10_2469" x1="499.273" y1="185.909" x2="523.281" y2="185.909" gradientUnits="userSpaceOnUse">
<stop offset="0.2449" stop-color="#262262"/>
<stop offset="0.4247" stop-color="#272567" stop-opacity="0.7669"/>
<stop offset="0.7079" stop-color="#2A2D76" stop-opacity="0.3997"/>
<stop offset="0.8792" stop-color="#2A3282" stop-opacity="0.1777"/>
<stop offset="1" stop-color="#2B3990" stop-opacity="0"/>
</linearGradient>
<linearGradient id="paint11_linear_10_2469" x1="513.039" y1="192.981" x2="550.333" y2="192.981" gradientUnits="userSpaceOnUse">
<stop offset="0.2449" stop-color="#262262"/>
<stop offset="0.4247" stop-color="#272567" stop-opacity="0.7669"/>
<stop offset="0.7079" stop-color="#2A2D76" stop-opacity="0.3997"/>
<stop offset="0.8792" stop-color="#2A3282" stop-opacity="0.1777"/>
<stop offset="1" stop-color="#2B3990" stop-opacity="0"/>
</linearGradient>
<linearGradient id="paint12_linear_10_2469" x1="514.808" y1="183.382" x2="541.37" y2="183.382" gradientUnits="userSpaceOnUse">
<stop offset="0.2449" stop-color="#262262"/>
<stop offset="0.4247" stop-color="#272567" stop-opacity="0.7669"/>
<stop offset="0.7079" stop-color="#2A2D76" stop-opacity="0.3997"/>
<stop offset="0.8792" stop-color="#2A3282" stop-opacity="0.1777"/>
<stop offset="1" stop-color="#2B3990" stop-opacity="0"/>
</linearGradient>
<linearGradient id="paint13_linear_10_2469" x1="355.641" y1="114.141" x2="315.048" y2="60.3146" gradientUnits="userSpaceOnUse">
<stop offset="0.0607" stop-color="#28A8E0"/>
<stop offset="0.9984" stop-color="#29ABE2" stop-opacity="0"/>
</linearGradient>
<linearGradient id="paint14_linear_10_2469" x1="494.307" y1="105.789" x2="517.058" y2="105.789" gradientUnits="userSpaceOnUse">
<stop stop-color="#BD8AAE"/>
<stop offset="1" stop-color="#2484C6" stop-opacity="0"/>
</linearGradient>
<linearGradient id="paint15_linear_10_2469" x1="67.3909" y1="248.813" x2="98.4888" y2="248.813" gradientUnits="userSpaceOnUse">
<stop offset="0.0607" stop-color="#28A8E0"/>
<stop offset="0.9984" stop-color="#29ABE2" stop-opacity="0"/>
</linearGradient>
<linearGradient id="paint16_linear_10_2469" x1="555.983" y1="134.303" x2="566.029" y2="134.303" gradientUnits="userSpaceOnUse">
<stop stop-color="#BD8AAE"/>
<stop offset="1" stop-color="#2484C6" stop-opacity="0"/>
</linearGradient>
<linearGradient id="paint17_linear_10_2469" x1="96.5693" y1="207.027" x2="106.615" y2="207.027" gradientUnits="userSpaceOnUse">
<stop offset="0.0607" stop-color="#28A8E0"/>
<stop offset="0.9984" stop-color="#29ABE2" stop-opacity="0"/>
</linearGradient>
</defs>
</svg>
